<?xml version="1.0" standalone="no"?>
<!DOCTYPE svg PUBLIC "-//W3C//DTD SVG 1.1//EN" "http://www.w3.org/Graphics/SVG/1.1/DTD/svg11.dtd" >
<svg xmlns="http://www.w3.org/2000/svg" xmlns:xlink="http://www.w3.org/1999/xlink" version="1.1">
<metadata>
Created by FontForge 20170731 at Wed Apr  1 16:10:26 2020
 By Aleksey,,,
Copyright 2006 The Inconsolata Project Authors (https://github.com/cyrealtype/Inconsolata)
</metadata>
<defs>
<font id="Inconsolata-UltraExpandedBlack" horiz-adv-x="1000" >
  <font-face 
    font-family="Inconsolata UltraExpandedBlack"
    font-weight="900"
    font-stretch="ultra-expanded"
    units-per-em="1000"
    panose-1="0 0 5 9 0 0 0 0 0 0"
    ascent="800"
    descent="-200"
    x-height="471"
    cap-height="623"
    bbox="-173 -400 2910 1000"
    underline-thickness="50"
    underline-position="-275"
    unicode-range="U+000D-FFFD"
  />
<missing-glyph 
 />
    <glyph glyph-name=".notdef" 
 />
    <glyph glyph-name=".null" horiz-adv-x="0" 
 />
    <glyph glyph-name="nonmarkingreturn" horiz-adv-x="333" 
 />
    <glyph glyph-name="NULL" 
 />
    <glyph glyph-name="NULL" 
 />
    <glyph glyph-name="CR" unicode="&#xd;" 
 />
    <glyph glyph-name="space" unicode=" " 
 />
    <glyph glyph-name="exclam" unicode="!" 
d="M435 239l-55 315q-3 24 10.5 50.5t40 45t60.5 18.5t60 -18.5t40 -47t11 -58.5l-59 -305h-108zM488 -11q-40 0 -69 28.5t-29 68.5t29 68.5t69 28.5t68.5 -28.5t28.5 -68.5t-28.5 -68.5t-68.5 -28.5z" />
    <glyph glyph-name="quotedbl" unicode="&#x22;" 
d="M241 665h218q0 -60 -3.5 -96t-9.5 -60.5t-14 -47t-17 -54.5h-130q-9 32 -17 54.5t-14 46.5t-9.5 60.5t-3.5 96.5zM541 665h218q0 -60 -3.5 -96t-9.5 -60.5t-14 -47t-17 -54.5h-130q-9 32 -17 54.5t-14 46.5t-9.5 60.5t-3.5 96.5z" />
    <glyph glyph-name="numbersign" unicode="#" 
d="M526 10l38 143h-194l-36 -139l-146 -1l36 138h-174l8 105h190l27 111h-197l6 106h214l34 151l150 2l-36 -151h192l34 147l152 1l-34 -146h162l-12 -107h-175l-29 -109h178l-10 -105h-190l-38 -142zM394 258h192l29 110h-194z" />
    <glyph glyph-name="dollar" unicode="$" 
d="M452 -47v61q-72 3 -133 11.5t-112.5 23t-96.5 35.5l73 120q8 -3 7.5 -10.5t6.5 -10.5q27 -12 67.5 -21.5t89 -15.5t98.5 -9v117q-104 15 -171.5 37.5t-100 55t-32.5 75.5t28.5 80t95 61t180.5 28v60h161q2 -1 2 -1.5v-1.5q0 -2 -4.5 -6.5t-6.5 -11.5v-39q63 -4 115.5 -14
t96 -24.5t78.5 -34.5l-51 -118q-10 2 -11 8.5t-11 12.5q-17 11 -41.5 19t-54 13.5t-60.5 9.5t-61 5v-107q115 -15 187 -37t105.5 -54.5t33.5 -79.5q0 -52 -33.5 -89t-105.5 -59t-187 -28v-61h-152zM604 137q72 3 109.5 10t51 17t13.5 21t-13.5 18.5t-51 15.5t-109.5 18v-100
zM452 379v90q-45 0 -79 -5t-53.5 -13.5t-19.5 -21.5t18 -22t52 -15.5t82 -12.5z" />
    <glyph glyph-name="percent" unicode="%" 
d="M58 0l690 623h202l-696 -623h-196zM742 -10q-61 0 -112 17t-81.5 46.5t-30.5 65.5q0 37 30.5 66t81.5 46.5t112 17.5q62 0 112.5 -17.5t80 -47t29.5 -65.5t-30.5 -65.5t-81 -46.5t-110.5 -17zM743 76q17 0 35.5 4t31.5 13t13 25q0 14 -12.5 24t-31.5 15t-39 5
q-16 0 -35 -3.5t-32.5 -12.5t-13.5 -26t14 -27t34 -13.5t36 -3.5zM280 373q-61 0 -112 17t-81.5 47t-30.5 67t30.5 66t81.5 46.5t112 17.5t112 -17.5t81.5 -47t30.5 -66.5q0 -38 -29.5 -67.5t-80 -46t-114.5 -16.5zM280 460q15 0 34 3.5t33.5 13.5t14.5 27q0 13 -8.5 21
t-22 12.5t-28 6.5t-25.5 2q-15 0 -33.5 -3.5t-32.5 -12.5t-14 -26t14 -26.5t33.5 -13.5t34.5 -4z" />
    <glyph glyph-name="ampersand" unicode="&#x26;" 
d="M822 -12l-103 70q-44 -20 -97 -35.5t-113 -24t-125 -8.5q-102 0 -175.5 24.5t-113 63.5t-39.5 82q0 32 17 59.5t47 50.5t69 41.5t82 31.5q-52 32 -78 62t-26 64q0 38 23.5 67.5t64.5 50t93 31.5t108 11q81 0 145 -21.5t100.5 -56t36.5 -73.5q0 -27 -13.5 -51t-39 -45
t-62.5 -39t-84 -34l185 -121q22 12 42 26t36 28.5t25.5 26.5t9.5 19q0 3 2 5.5t6 4.5l117 -59q-18 -22 -39 -42.5t-44.5 -40t-49.5 -37.5l106 -74zM398 102q48 0 84 3t66.5 10.5t63.5 19.5l-219 133q-39 -10 -72.5 -19.5t-59 -20t-39.5 -23.5t-14 -32q0 -20 16 -33.5
t43.5 -22t61.5 -12t69 -3.5zM426 384q36 9 65.5 17.5t51.5 18t33.5 21t11.5 25.5q0 23 -33 41.5t-97 18.5q-45 0 -77 -9t-48.5 -22t-16.5 -27t15.5 -28t40.5 -27.5t54 -28.5z" />
    <glyph glyph-name="quotesingle" unicode="'" 
d="M391 665h218q0 -60 -3.5 -96t-9.5 -60.5t-14 -47t-17 -54.5h-130q-9 32 -17 54.5t-14 46.5t-9.5 60.5t-3.5 96.5z" />
    <glyph glyph-name="parenleft" unicode="(" 
d="M754 -104q-166 39 -288.5 96t-190 138t-67.5 190q0 104 66 183t186 136.5t282 95.5l37 -134q-97 -26 -170.5 -53.5t-123.5 -60.5t-75.5 -75.5t-25.5 -99.5q0 -52 26.5 -93t78.5 -74t129 -60.5t178 -54.5z" />
    <glyph glyph-name="parenright" unicode=")" 
d="M244 -104l-42 134q101 27 178 54.5t129 60.5t78.5 74t26.5 93q0 57 -25.5 99.5t-75.5 75.5t-123.5 60.5t-170.5 53.5l37 134q162 -38 282 -95.5t186 -136.5t66 -183q0 -109 -67.5 -190t-190 -138t-288.5 -96z" />
    <glyph glyph-name="asterisk" unicode="*" 
d="M277 101l-124 85l241 120l-312 55l81 108l274 -64l-34 139h204l-38 -139l281 56l67 -112l-307 -41l228 -129l-139 -78l-199 143z" />
    <glyph glyph-name="plus" unicode="+" 
d="M430 104v156h-340v123h340v140h154v-140h328v-123h-328v-156h-154z" />
    <glyph glyph-name="comma" unicode="," 
d="M409 -168l-70 81q47 31 69.5 54.5t22.5 39.5q0 12 -7 21t-16.5 17.5t-16.5 20.5t-7 31q0 32 29.5 59t74.5 27q53 0 83 -24.5t30 -68.5q0 -28 -16 -63t-43 -70.5t-61.5 -68t-71.5 -56.5z" />
    <glyph glyph-name="hyphen" unicode="-" 
d="M212 250v129h580v-129h-580z" />
    <glyph glyph-name="period" unicode="." 
d="M489 -11q-41 0 -70 28.5t-29 68.5t29 68.5t70 28.5q39 0 67.5 -28.5t28.5 -68.5t-28.5 -68.5t-67.5 -28.5z" />
    <glyph glyph-name="slash" unicode="/" 
d="M246 -42l-132 89l640 618l124 -101z" />
    <glyph glyph-name="zero" unicode="0" 
d="M202 194l540 311l62 -86l-544 -308zM500 -11q-119 0 -208 39.5t-138.5 111t-49.5 168.5q0 94 49.5 165.5t138.5 112.5t208 41t208 -41t138.5 -112.5t49.5 -165.5q0 -97 -49.5 -168.5t-138.5 -111t-208 -39.5zM500 113q83 0 136.5 24t79.5 67.5t26 103.5q0 56 -26 100
t-79.5 69.5t-136.5 25.5q-72 0 -126.5 -25.5t-85 -69.5t-30.5 -100q0 -66 30.5 -109t85 -64.5t126.5 -21.5z" />
    <glyph glyph-name="one" unicode="1" 
d="M454 0v482l-237 -51l-41 108l306 85h124v-624h-152z" />
    <glyph glyph-name="two" unicode="2" 
d="M136 86q107 55 198.5 97t164.5 74.5t124 59t78 51t27 51.5q0 24 -12.5 40t-38.5 25.5t-66 14t-95 4.5q-62 0 -115 -6t-95.5 -17.5t-74.5 -30.5q-13 -9 -18 -15t-7 -14l-5 -4l-6 8l-89 87q44 34 102 60t134 41t172 15q105 0 188 -21t131.5 -62t48.5 -103
q0 -41 -17.5 -75.5t-50.5 -64.5t-80.5 -58.5t-107 -57.5t-130.5 -61h348q17 0 24 2t13 8h7v-10v-124h-752v86z" />
    <glyph glyph-name="three" unicode="3" 
d="M480 -11q-122 0 -204.5 18t-147.5 53l98 88l8 7l4 -5q0 -8 7 -10t23 -7q36 -11 86 -16t120 -5q80 0 132.5 8t78 25t25.5 42q0 21 -24.5 37t-71 26.5t-110.5 14.5t-144 0v118q97 0 156 3.5t90 11t41.5 18t10.5 25.5q0 12 -11.5 23.5t-33 20t-52.5 14t-71 5.5t-79.5 -3.5
t-78 -13t-74.5 -26.5l-90 102q68 35 153.5 49.5t166.5 14.5q101 0 176 -17.5t116.5 -52t41.5 -85.5q0 -37 -14 -65t-43 -47t-75 -30q50 -11 89.5 -30t62 -50t22.5 -79q0 -55 -39.5 -95.5t-124 -63.5t-220.5 -23v0z" />
    <glyph glyph-name="four" unicode="4" 
d="M633 0v122h-547v82l580 420h121v-382h167v-121h-167v-121h-154zM328 243h305v215z" />
    <glyph glyph-name="five" unicode="5" 
d="M498 -11q-130 0 -224 23t-156 66l106 89l8 7l4 -6q-1 -8 6 -11t21 -11q46 -22 104.5 -27.5t138.5 -5.5q48 0 91.5 4.5t77 14t53 27t19.5 42.5q0 28 -19.5 46t-54.5 28.5t-81.5 14.5t-99.5 4q-43 0 -87.5 -7.5t-85 -20.5t-71.5 -32l-88 62l42 327h652v-120h-519l-14 -118
q33 10 68 16.5t72 10t77 3.5q71 0 135.5 -9.5t116 -32.5t81 -62.5t29.5 -99.5q0 -69 -46.5 -119t-136 -76.5t-219.5 -26.5v0z" />
    <glyph glyph-name="six" unicode="6" 
d="M521 -10q-129 0 -218 36t-134.5 102t-45.5 156q0 112 57 189t158.5 117t234.5 40q78 0 151.5 -11t132.5 -39l-63 -108l-6 -9l-6 4q-1 8 -8 11t-22 8q-24 6 -54 10.5t-61 6.5t-60 2q-40 0 -79.5 -4.5t-74.5 -14t-64 -25.5t-47.5 -38.5t-24.5 -53.5q28 16 65.5 27
t83.5 16.5t99 5.5q78 0 143 -12.5t111.5 -38t72 -65t25.5 -93.5q0 -69 -48 -118t-130.5 -75t-187.5 -26v0zM527 115q43 0 80 4.5t65.5 14.5t44.5 27t16 43q0 27 -17 44.5t-46.5 28t-67 14.5t-79.5 4q-36 0 -70 -3t-64.5 -9.5t-57 -15.5t-47.5 -21q-1 -30 12.5 -54t43 -41.5
t76.5 -26.5t111 -9v0z" />
    <glyph glyph-name="seven" unicode="7" 
d="M313 0q58 96 120.5 177t127 159t129.5 163h-542v124h726v-99q-57 -72 -110.5 -135t-103 -124t-95.5 -125.5t-87 -139.5h-165z" />
    <glyph glyph-name="eight" unicode="8" 
d="M500 -10q-118 0 -205.5 20.5t-136 59t-48.5 92.5q0 44 18.5 76.5t58.5 56.5t103 41q-37 15 -64 31.5t-41.5 38.5t-14.5 50q0 54 39 93t115 60.5t186 21.5q115 0 190.5 -20.5t112.5 -57.5t37 -89q0 -21 -7 -40t-20.5 -35.5t-34 -29.5t-46.5 -23q31 -10 58.5 -25t48 -34.5
t32 -44t11.5 -54.5q0 -62 -49 -104t-137.5 -63t-205.5 -21zM504 114q77 0 129.5 7.5t79.5 23t27 38.5q0 21 -23 37t-63.5 27t-94 19t-114.5 13q-45 -7 -79.5 -17.5t-57.5 -23t-35 -27t-12 -29.5q0 -25 29 -40t83.5 -21.5t130.5 -6.5zM540 375q38 6 68.5 14t52 17.5t32.5 20
t11 21.5q0 18 -22 31.5t-66 21.5t-110 8q-55 0 -98.5 -7t-68.5 -19.5t-25 -30.5q0 -14 17.5 -25.5t49 -21t72.5 -17t87 -13.5z" />
    <glyph glyph-name="nine" unicode="9" 
d="M456 -10q-91 0 -170 12.5t-138 39.5l94 103l7 8l5 -5q1 -8 7.5 -10.5t21.5 -9.5q32 -10 72 -14.5t89 -4.5q77 0 132.5 14t91 42t52 70t16.5 97q0 62 -22 100.5t-73.5 56.5t-140.5 18q-51 0 -92 -8t-69.5 -21t-43.5 -29.5t-15 -33.5q0 -21 17 -37t47 -27t70 -16.5t86 -5.5
q69 0 119.5 9t90 28t76.5 48l20 -128q-38 -21 -83.5 -38.5t-101 -27.5t-123.5 -10q-77 0 -144.5 14.5t-118.5 42t-80 65t-29 82.5q0 48 29.5 87t80.5 67t117.5 43.5t140.5 15.5q128 0 215.5 -30t133 -88.5t45.5 -145.5q0 -132 -49.5 -214t-146 -120.5t-236.5 -38.5v0z" />
    <glyph glyph-name="colon" unicode=":" 
d="M488 269q-40 0 -69 28.5t-29 68.5t29 68.5t69 28.5t68.5 -28.5t28.5 -68.5t-28.5 -68.5t-68.5 -28.5zM488 -11q-40 0 -69 28.5t-29 68.5t29 68.5t69 28.5t68.5 -28.5t28.5 -68.5t-28.5 -68.5t-68.5 -28.5z" />
    <glyph glyph-name="semicolon" unicode=";" 
d="M409 -168l-70 81q47 31 69.5 54.5t22.5 39.5q0 12 -6 21t-14.5 17.5t-14.5 20.5t-6 31q0 22 13.5 41.5t35.5 32t49 12.5q40 0 68.5 -24.5t28.5 -68.5q0 -48 -23.5 -95.5t-63 -89t-89.5 -73.5zM488 269q-40 0 -69 28.5t-29 68.5t29 68.5t69 28.5t68.5 -28.5t28.5 -68.5
t-28.5 -68.5t-68.5 -28.5z" />
    <glyph glyph-name="less" unicode="&#x3c;" 
d="M922 47l-852 229v88l846 203v-126l-524 -124l530 -144v-126z" />
    <glyph glyph-name="equal" unicode="=" 
d="M80 356v127h842v-127h-842zM80 149v127h842v-127h-842z" />
    <glyph glyph-name="greater" unicode="&#x3e;" 
d="M80 47v126l530 146l-526 122v126l848 -203v-88z" />
    <glyph glyph-name="question" unicode="?" 
d="M432 281q0 29 21.5 53t55 43.5t71 36.5t71 31.5t55 27t21.5 24.5q0 14 -14 24t-42.5 17t-71.5 10t-100 3q-90 0 -154 -10t-112 -33q-14 -7 -19.5 -12.5t-7.5 -13.5l-6 -4l-5 9l-76 84q43 30 94.5 51t122 32t169.5 11q106 0 191 -19t135 -54t50 -83q0 -34 -21.5 -60
t-55 -46.5t-71 -37t-71 -31.5t-55 -30t-21.5 -33v-31h-154v41zM512 -11q-40 0 -69 28.5t-29 68.5t29 68.5t69 28.5t68.5 -28.5t28.5 -68.5t-28.5 -68.5t-68.5 -28.5z" />
    <glyph glyph-name="at" unicode="@" 
d="M590 -11q-110 0 -207.5 19.5t-172 59t-116.5 100.5t-42 145q0 83 40.5 143.5t109.5 99.5t157 58t183 19q85 0 157.5 -10.5t126.5 -35.5t84 -69t30 -110v-233h-140v46q-28 -26 -72 -40t-112 -14q-76 0 -142 14.5t-106.5 45t-40.5 77.5q0 41 22 71t74 49t141 27t223 3
q-6 19 -33.5 33.5t-81 23t-136.5 8.5q-71 0 -131.5 -11t-105 -34t-69 -60t-24.5 -90q0 -60 31.5 -102t87 -68t127 -38.5t150.5 -12.5q57 0 116 7t108 23l44 -103q-64 -20 -134.5 -30.5t-145.5 -10.5zM614 275q31 0 62.5 6.5t58.5 17.5t43.5 25.5t16.5 29.5q-93 6 -163.5 1
t-110.5 -17t-40 -27q0 -20 34 -28t99 -8z" />
    <glyph glyph-name="A" unicode="A" 
d="M762 153h-532l60 112h428zM498 424l-298 -424h-178l450 634h56l450 -634h-184z" />
    <glyph glyph-name="B" unicode="B" 
d="M87 0v623h364q125 0 207 -11t129.5 -31t67.5 -48t20 -61t-14 -62.5t-44 -50t-77 -27.5q43 -6 77 -19t58 -32.5t37 -46t13 -59.5q0 -47 -23.5 -80t-78 -54t-146 -31t-228.5 -10h-362zM240 110h233q96 0 162.5 7t100.5 22.5t34 39.5q0 33 -38 53t-112 28.5t-181 8.5h-199
v-159zM240 379h191q105 0 168.5 6.5t92 22t28.5 41.5q0 15 -16.5 26.5t-50 20t-83.5 13t-117 4.5h-213v-134z" />
    <glyph glyph-name="C" unicode="C" 
d="M569 -10q-106 0 -195.5 21t-155 62t-101.5 100t-36 135q0 71 28 124t76.5 90.5t110 60.5t130 34t135.5 11q135 0 231.5 -29.5t144.5 -85.5l-78 -92l-7 -8l-5 5q-1 8 -5.5 13.5t-18.5 15.5q-47 31 -115 43.5t-151 12.5q-67 0 -125.5 -11.5t-103 -35.5t-69 -59.5
t-24.5 -83.5t24 -85t68 -62t104 -38t132 -13q50 0 105.5 7.5t103.5 23.5t76 39l71 -102q-60 -50 -144 -71.5t-206 -21.5v0z" />
    <glyph glyph-name="D" unicode="D" 
d="M88 -1v624h310q107 0 182 -11t127.5 -31t93.5 -48t72.5 -61.5t49 -74t17.5 -89.5q-3 -73 -37.5 -130.5t-103 -97t-174 -60.5t-251.5 -21h-286zM242 123h126q151 0 243.5 22t134.5 63t42 96q0 58 -41 102t-129 68.5t-228 24.5h-148v-376z" />
    <glyph glyph-name="E" unicode="E" 
d="M88 0v624h824v-120h-670v-119h560v-120h-560v-145h664v-120h-818z" />
    <glyph glyph-name="F" unicode="F" 
d="M126 0v624h778v-120h-625v-108h513v-120h-513v-276h-153z" />
    <glyph glyph-name="G" unicode="G" 
d="M544 -10q-149 0 -259.5 39t-171.5 110t-61 165q-2 81 30 137.5t86 93.5t119 58t130.5 29t120.5 8q74 0 147.5 -13.5t134.5 -36.5t96 -55l-78 -102l-6 -8l-6 4q-1 8 -6 13.5t-19 15.5q-32 20 -75 32.5t-91.5 18.5t-98.5 6q-54 0 -103.5 -6t-91 -19.5t-72.5 -35.5t-48 -53
t-17 -72q0 -48 23 -85.5t67.5 -64.5t107.5 -41t142 -14q27 0 56.5 2t58.5 6.5t57 12t52 17.5v65h-214v123h366v-285q-88 -32 -184.5 -48.5t-191.5 -16.5v0z" />
    <glyph glyph-name="H" unicode="H" 
d="M56 623h152h10v-7q-6 -6 -7.5 -13t-1.5 -24v-192h563v236h153h10v-7q-6 -6 -7.5 -13t-1.5 -24v-579h-153v267h-564v-267h-153v623z" />
    <glyph glyph-name="I" unicode="I" 
d="M141 0v124h260v375h-246v124h648v-124h-249v-376h261v-123h-674z" />
    <glyph glyph-name="J" unicode="J" 
d="M382 -11q-88 0 -161.5 17.5t-132.5 51.5l64 113l4 9l7 -4q2 -7 7.5 -12t19.5 -13q44 -22 92 -32t100 -10q67 0 110 11t64 33t21 55v295h-243v120h590v-120h-195v-294q2 -60 -27.5 -102t-79.5 -68t-112.5 -38t-127.5 -12v0z" />
    <glyph glyph-name="K" unicode="K" 
d="M337 280l-99 -61v-219h-154v623h153h10v-7q-6 -6 -7.5 -13t-1.5 -24v-227l476 276q11 -1 35 -2t51 -1.5t49 -1t29 -0.5h52l-476 -277l508 -346l-198 -7z" />
    <glyph glyph-name="L" unicode="L" 
d="M102 623h162h10v-7q-6 -6 -7.5 -13t-1.5 -24v-459h643v-120h-806v623z" />
    <glyph glyph-name="M" unicode="M" 
d="M72 0v623h142l286 -275l292 276h138v-624h-154v454l-258 -241h-54l-240 238v-451h-152z" />
    <glyph glyph-name="N" unicode="N" 
d="M86 623h154l516 -430v430h151h10v-7q-6 -6 -7.5 -13t-1.5 -24v-579h-128l-542 452v-452h-152v623z" />
    <glyph glyph-name="O" unicode="O" 
d="M500 -11q-138 0 -240.5 39.5t-159 111t-56.5 168.5q0 94 56.5 165.5t159 112.5t240.5 41t240.5 -41t159 -112.5t56.5 -165.5q0 -97 -56.5 -168.5t-159 -111t-240.5 -39.5zM500 113q100 0 167 22.5t101 66t34 106.5q0 59 -34 102.5t-101 68t-167 24.5t-167 -24.5t-101 -68
t-34 -102.5q0 -63 34 -106.5t101 -66t167 -22.5z" />
    <glyph glyph-name="P" unicode="P" 
d="M108 0v623h450q124 0 204.5 -23t120 -65t39.5 -99q0 -52 -31 -88.5t-82.5 -59t-114 -32.5t-126.5 -10h-307v-246h-153zM261 366h291q68 0 116 6t73.5 21t25.5 41t-27 41t-75 21.5t-111 6.5h-293v-137z" />
    <glyph glyph-name="Q" unicode="Q" 
d="M803 -149q-98 -2 -168 2.5t-114 19.5t-65 44.5t-21 75.5q-117 8 -205 48.5t-137 108.5t-49 158q0 78 34 138.5t96 101t145.5 61.5t183.5 21t183.5 -23.5t144.5 -66.5t94 -101.5t31 -127.5q0 -69 -24 -123.5t-71.5 -94.5t-117 -65t-160.5 -35q3 -16 16.5 -23t43.5 -8.5
t80 -1.5l162 5l-4 -114h-78zM513 113q60 0 113 12t92.5 35.5t62 57t22.5 76.5q0 47 -20 86t-59 68.5t-94.5 45.5t-126.5 16q-77 0 -134 -15.5t-95 -42t-57 -60t-19 -69.5q0 -72 34 -118.5t104 -69t177 -22.5z" />
    <glyph glyph-name="R" unicode="R" 
d="M102 0v623h458q108 0 185 -25t118 -67.5t41 -95.5q0 -60 -34.5 -98.5t-94.5 -58t-135 -23.5l298 -255h-186l-286 246h-211v-246h-153zM255 366h311q103 0 143.5 19.5t40.5 49.5q0 20 -18 35t-60 24t-116 9h-301v-137z" />
    <glyph glyph-name="S" unicode="S" 
d="M494 -10q-121 0 -223.5 20t-176.5 59l78 106l6 8l6 -4q2 -8 7.5 -12t20.5 -12q52 -23 127.5 -34t174.5 -11q56 0 102 4t80 11.5t52.5 19t18.5 25.5q0 11 -8.5 19t-28 16t-53.5 16.5t-84.5 19.5t-120.5 26q-131 26 -205 54t-103.5 64.5t-29.5 85.5q0 54 47.5 89.5t134 53
t204.5 17.5q68 0 134.5 -9t124.5 -26t101 -43l-67 -96l-6 -8l-6 4q-1 8 -7.5 11.5t-21.5 10.5q-53 21 -123.5 28.5t-150.5 7.5q-49 0 -88 -2.5t-66.5 -8.5t-41.5 -15.5t-14 -23.5q0 -8 8 -16t28 -16t55 -17.5t88 -21t129 -26.5q93 -19 155.5 -40.5t99.5 -45t53 -50.5t16 -58
q0 -50 -45.5 -91t-140 -65t-240.5 -24v0z" />
    <glyph glyph-name="T" unicode="T" 
d="M410 0v504h-364v120h896v-120h-379v-504h-153z" />
    <glyph glyph-name="U" unicode="U" 
d="M502 -11q-199 0 -305.5 68t-106.5 198v368h152h10v-7q-6 -6 -7.5 -13t-1.5 -24v-325q0 -64 65.5 -104.5t195.5 -40.5q143 0 204 41t61 107v366h149v-365q0 -94 -52.5 -153.5t-146.5 -87.5t-217 -28v0z" />
    <glyph glyph-name="V" unicode="V" 
d="M434 -4l-398 628h176l303 -485l287 484h168l-392 -627h-144z" />
    <glyph glyph-name="W" unicode="W" 
d="M234 0l-210 623h156l120 -409l182 363h76l163 -363l119 409h146l-208 -623h-84l-177 383l-195 -383h-88z" />
    <glyph glyph-name="X" unicode="X" 
d="M62 0l334 317l-328 307h192l237 -221l227 221h194l-309 -294l347 -330h-200l-253 239l-245 -239h-196z" />
    <glyph glyph-name="Y" unicode="Y" 
d="M440 0v226l-404 397h186l301 -275l265 275h178l-373 -397v-226h-153z" />
    <glyph glyph-name="Z" unicode="Z" 
d="M90 89l578 414h-554v120h790v-89l-582 -415h570q17 0 24 2t13 8h7v-10v-119h-846v89z" />
    <glyph glyph-name="bracketleft" unicode="[" 
d="M280 -89v759h554v-124h-400v-514h402v-121h-556z" />
    <glyph glyph-name="backslash" unicode="\" 
d="M746 -42l-632 606l124 101l640 -618z" />
    <glyph glyph-name="bracketright" unicode="]" 
d="M720 -89h-556v121h402v514h-400v124h554v-759z" />
    <glyph glyph-name="asciicircum" unicode="^" 
d="M306 333l-142 74l288 216h124l246 -215l-152 -75l-164 135z" />
    <glyph glyph-name="underscore" unicode="_" 
d="M60 -128v124h882v-124h-882z" />
    <glyph glyph-name="grave" unicode="`" 
d="M556 477l-262 117l160 88l238 -136z" />
    <glyph glyph-name="a" unicode="a" 
d="M425 -11q-166 0 -253 33t-87 106q0 39 26.5 70.5t83 53.5t147 33.5t219.5 11.5q33 0 73 -2.5t82.5 -6.5t84.5 -7l-3 -101q-36 3 -75.5 4t-78 1h-71.5q-97 0 -163 -4t-106 -11t-57.5 -15.5t-17.5 -18.5q0 -8 10.5 -14.5t35 -11t64.5 -7t99 -2.5q78 0 137.5 5.5t100.5 19.5
t61.5 40t20.5 66q0 58 -28 87.5t-82.5 40t-135.5 10.5q-103 0 -172.5 -14t-122.5 -38l-82 85q65 32 154 55.5t223 23.5q87 0 159 -9.5t124 -35t80.5 -72.5t28.5 -122v-243h-152v50q-31 -15 -70.5 -26.5t-84 -19t-88.5 -11.5t-84 -4z" />
    <glyph glyph-name="b" unicode="b" 
d="M534 -11q-77 0 -135 9.5t-99 26.5t-68 40l-69 -65h-84v665h156h10v-7q-6 -6 -7.5 -13t-1.5 -24v-224q23 23 57 39t75 26t85 15t87 5q83 0 158.5 -17t134 -49t92.5 -78t34 -105q0 -61 -34 -107t-93 -76.5t-135.5 -45.5t-162.5 -15v0zM516 112q56 0 107 5t92 18t64.5 37
t23.5 62q0 35 -20.5 58.5t-58.5 37.5t-90 20.5t-114 6.5q-78 0 -142.5 -13t-103 -40.5t-38.5 -71.5q0 -29 16 -51.5t50 -37.5t87 -23t127 -8v0z" />
    <glyph glyph-name="c" unicode="c" 
d="M569 -11q-100 0 -186 17.5t-151 50.5t-101.5 78.5t-36.5 100.5q0 61 36.5 107t101 77t150.5 46.5t185 15.5q111 0 201 -21t145 -61l-74 -107l-6 -8l-6 4q-1 8 -7 13t-20 13q-49 24 -112 33.5t-137 9.5q-58 0 -110 -7t-92.5 -21.5t-63.5 -36.5t-23 -52q0 -28 23 -51.5
t65 -40.5t99.5 -26.5t126.5 -9.5q46 0 93.5 5.5t90 16.5t71.5 27l69 -108q-67 -37 -151 -51t-180 -14v0z" />
    <glyph glyph-name="d" unicode="d" 
d="M457 -10q-91 3 -165.5 19.5t-129 47t-84 75.5t-29.5 104q0 65 34 111.5t92 76.5t133.5 44t157.5 14q80 0 138.5 -11.5t98 -31t58.5 -42.5v268h153h10v-7q-6 -6 -7.5 -13t-1.5 -24v-550q0 -18 3 -35.5t13 -35.5h-162l-6.5 19.5t-5.5 22t-2 23.5q-18 -22 -65 -39.5
t-108.5 -27.5t-124.5 -8v0zM479 114q72 0 125.5 8t88 23.5t51.5 38t17 52.5q0 41 -35.5 68t-101 40.5t-157.5 13.5q-63 0 -112 -6.5t-83 -21.5t-51.5 -38t-17.5 -56q0 -40 31 -67.5t92.5 -41t152.5 -13.5v0z" />
    <glyph glyph-name="e" unicode="e" 
d="M547 -10q-100 0 -187 15.5t-152.5 45.5t-102 74.5t-36.5 101.5q0 58 32 105t91.5 80t143 51t185.5 18q98 0 173 -20t126.5 -55.5t78 -83t26.5 -103.5q0 -8 -1 -16.5t-3 -16.5h-710q9 -18 35.5 -33t69 -25.5t101.5 -16t134 -5.5q47 0 101 3t98.5 10t64.5 18l80 -77
q-34 -22 -90 -38t-123 -24t-135 -8zM211 293h574q-6 18 -29.5 32t-60.5 23.5t-84 14.5t-100 5q-67 0 -118.5 -5t-88.5 -14.5t-59.5 -23.5t-33.5 -32z" />
    <glyph glyph-name="f" unicode="f" 
d="M226 360h-163v111h163v24q0 50 39 89.5t121.5 63t210.5 23.5q86 0 161.5 -15.5t124.5 -47.5l-76 -97l-12 -16l-6 4q3 14 -2 19.5t-19 12.5q-33 17 -71.5 24.5t-95.5 7.5q-82 0 -129.5 -9.5t-67.5 -24.5t-20 -34v-24h315v-111h-315v-360h-158v360z" />
    <glyph glyph-name="g" unicode="g" 
d="M488 -172q-96 -1 -178 6t-143 22t-95 37.5t-34 52.5q0 32 23.5 52t63 33t87.5 23l132 -29q-42 -4 -78.5 -11t-59 -17t-22.5 -23q0 -10 15.5 -17.5t50.5 -13t94 -8t146 -2.5q91 0 153.5 4.5t94.5 13t32 21.5q0 10 -20.5 18t-73 13t-148.5 4q-75 -1 -138 2t-112 10.5
t-83.5 19t-52.5 28t-18 37.5q0 26 36.5 53t93.5 49l119 -27q-21 -5 -47.5 -11.5t-46 -15.5t-19.5 -21q0 -11 27.5 -16t90.5 -6t170 -1q105 0 176 -9.5t113 -27t60.5 -41t18.5 -52.5q0 -27 -22 -52.5t-71.5 -47t-131.5 -35t-203 -15.5zM446 168q-114 0 -192.5 22.5t-119 58.5
t-40.5 76q0 44 40.5 79.5t119 56.5t192.5 21q110 0 189 -15.5t121.5 -50t41.5 -91.5q0 -51 -42.5 -86t-121 -53t-188.5 -18zM446 273q66 0 114 5t73.5 17t25.5 31q0 20 -25.5 31t-73.5 16t-114 5q-56 0 -104.5 -5t-78.5 -16t-30 -31q0 -19 31 -31t79.5 -17t102.5 -5z
M739 342l-73 74q59 29 121 42.5t149 10.5l24 -84q-66 3 -122 -6t-99 -37z" />
    <glyph glyph-name="h" unicode="h" 
d="M106 665h153h10v-7q-6 -6 -7.5 -13t-1.5 -24v-236q36 35 80 56t103 30.5t140 9.5q95 0 168.5 -30t115 -85t41.5 -129v-237h-154v231q0 42 -26.5 68t-71.5 38.5t-103 12.5q-35 0 -75 -3.5t-78.5 -11.5t-70 -21.5t-50.5 -33t-19 -46.5v-234h-154v665z" />
    <glyph glyph-name="i" unicode="i" 
d="M175 0v124h259v223h-247v124h401v-347h239v-124h-652zM504 531q-36 0 -61.5 25.5t-25.5 61.5q0 37 25 62.5t62 25.5q35 0 61.5 -26.5t26.5 -61.5q0 -36 -26.5 -61.5t-61.5 -25.5z" />
    <glyph glyph-name="j" unicode="j" 
d="M400 -174q-87 1 -163.5 20t-123.5 53l84 107l7 8l5 -4q1 -8 6 -14t18 -16q30 -19 68.5 -29.5t96.5 -10.5q60 0 105.5 10.5t71 36.5t25.5 71v289h-336v124h490v-409q0 -89 -45 -141t-124.5 -74t-184.5 -21v0zM667 531q-36 0 -61.5 25.5t-25.5 61.5q0 37 25 62.5t62 25.5
q35 0 61.5 -26.5t26.5 -61.5q0 -36 -26.5 -61.5t-61.5 -25.5z" />
    <glyph glyph-name="k" unicode="k" 
d="M384 216l-108 -57v-159h-154v665h153h10v-7q-6 -6 -7.5 -13t-1.5 -24v-335l386 186q15 -1 41 -2t55.5 -1.5t54.5 -1t38 -0.5h43l-385 -193l443 -274l-221 -4z" />
    <glyph glyph-name="l" unicode="l" 
d="M128 0v124h296v417h-284v124h438v-541h295v-124h-745z" />
    <glyph glyph-name="m" unicode="m" 
d="M51 0v471h154v-69q16 22 41 40t57 29t68 11q40 0 75 -14.5t58 -35.5t27 -41q17 20 47.5 41.5t70.5 36t85 13.5q74 -1 118 -19.5t67 -45.5t30.5 -56.5t7.5 -52.5v-308h-156v281q0 34 -12 53.5t-32.5 28.5t-44.5 9q-38 0 -67 -15.5t-45.5 -41t-16.5 -56.5v-259h-157v275
q0 35 -20.5 65t-68.5 30q-22 0 -44.5 -7.5t-42 -21t-31.5 -33.5t-12 -46v-262h-156z" />
    <glyph glyph-name="n" unicode="n" 
d="M102 0v471h154v-86q27 34 76 55.5t116 32t146 9.5q96 0 165.5 -29t107 -83.5t37.5 -132.5v-237h-154v231q0 30 -20.5 57t-63.5 44.5t-112 17.5q-49 0 -101.5 -6t-97 -19.5t-72 -35.5t-27.5 -55v-234h-154z" />
    <glyph glyph-name="o" unicode="o" 
d="M497 -8q-135 -2 -232 29.5t-149.5 87.5t-52.5 125q0 70 52.5 126t149.5 89t232 33t230 -33t144.5 -89t49.5 -126q0 -69 -49.5 -124t-144.5 -86.5t-230 -31.5zM497 116q80 0 138 14t89 40.5t31 64.5q0 39 -31 66.5t-89 42t-138 14.5t-140.5 -14.5t-94 -42t-33.5 -66.5
q0 -38 33.5 -64.5t94 -40.5t140.5 -14z" />
    <glyph glyph-name="p" unicode="p" 
d="M78 -167v638h153v-74q26 27 74.5 45.5t113 28.5t138.5 10q76 0 147 -14.5t128 -44t90.5 -76t33.5 -109.5q0 -64 -35 -111t-93.5 -77.5t-130 -45.5t-144.5 -15q-80 0 -143 9t-107.5 26.5t-70.5 41.5v-232h-154zM529 112q64 0 114 7.5t85 22t53.5 38t18.5 54.5
q0 40 -30.5 66.5t-86.5 41t-132 15.5q-67 2 -125 -4.5t-102 -21t-69 -38t-25 -55.5q0 -31 15 -53.5t42 -36.5t64.5 -22t82.5 -11t95 -3z" />
    <glyph glyph-name="q" unicode="q" 
d="M774 -167v232q-24 -25 -67.5 -42t-103 -25t-132.5 -8q-75 0 -148 13t-132.5 42t-95 75.5t-35.5 112.5q0 65 36.5 112.5t96.5 77.5t134 44.5t149 14.5q58 0 106.5 -6t86.5 -17t65 -26.5t40 -35.5v74h152v-638h-152zM484 114q55 0 106.5 6.5t92.5 20.5t65 37.5t24 57.5
q0 33 -20.5 56.5t-57.5 38t-86.5 21t-107.5 6.5q-65 0 -117.5 -5.5t-90.5 -19t-58 -37.5t-20 -60q0 -34 18.5 -57.5t53.5 -37.5t85 -20.5t113 -6.5z" />
    <glyph glyph-name="r" unicode="r" 
d="M185 471h159l-6 -121l-18 15q12 24 43.5 45t77 37.5t98.5 25.5t106 9q93 0 163 -21t110 -53l-80 -92l-7 -8l-5 5q-1 8 -7 12t-21 11q-39 17 -83.5 23.5t-92.5 6.5q-50 0 -100 -7t-91 -24t-66 -45.5t-25 -71.5v-219h-155v472z" />
    <glyph glyph-name="s" unicode="s" 
d="M524 -10q-82 0 -154 7.5t-133.5 24t-114.5 42.5l88 97l7 8l5 -5q1 -8 7.5 -10.5t22.5 -8.5q50 -17 122.5 -27t153.5 -10q68 0 116.5 3.5t74.5 11t26 17.5q0 7 -7 12t-29 9t-67 8.5t-122 10.5q-132 10 -212.5 25t-117 44.5t-36.5 81.5q0 46 42.5 80t123 52.5t192.5 18.5
q55 0 105 -3.5t95 -12.5t86 -23t78 -35l-73 -86l-7 -8l-5 5q-1 8 -7.5 10.5t-22.5 8.5q-46 14 -109.5 20t-135.5 6q-94 0 -152 -6.5t-58 -20.5q0 -8 24 -13.5t83 -11t163 -14.5q115 -9 185 -28t102.5 -51t32.5 -82q0 -47 -42.5 -80t-125.5 -50t-204 -17v0z" />
    <glyph glyph-name="t" unicode="t" 
d="M580 -12q-88 0 -146 16t-89.5 48t-42.5 81t-6 115l24 326l161 9h10v-6q-5 -7 -9.5 -14t-6.5 -23l-17 -100l4 -32l-14 -165q-4 -50 8.5 -82t47 -47.5t95.5 -15.5q66 0 124.5 14t113.5 36l33 -106q-69 -25 -140.5 -39.5t-149.5 -14.5v0zM132 471h638v-110h-638v110z" />
    <glyph glyph-name="u" unicode="u" 
d="M439 -11q-87 0 -147.5 16t-99.5 42.5t-60.5 58t-30 63t-8.5 57.5l2 245h154v-232q0 -24 11.5 -46.5t37 -40.5t69.5 -28.5t108 -10.5q60 0 108.5 6.5t83 20.5t53.5 36.5t19 55.5v239h154v-400q0 -18 2.5 -35.5t17.5 -35.5h-142q-8 8 -12.5 16.5t-6 19t-1.5 24.5
q-22 -19 -56 -32.5t-76.5 -22t-88.5 -12.5t-91 -4z" />
    <glyph glyph-name="v" unicode="v" 
d="M415 0l-353 471h194l317 -424h-128l182 221q46 56 86.5 109.5t53.5 93.5h166q-16 -42 -50.5 -98.5t-83.5 -115.5l-212 -257h-172z" />
    <glyph glyph-name="w" unicode="w" 
d="M236 -1l-211 472h152l143 -335l129 292h124l149 -317q26 77 44.5 130t30.5 89.5t19.5 63t10.5 51.5l3 26h145q-23 -77 -52.5 -157t-63.5 -159.5t-69 -155.5h-146l-138 279l-124 -279h-146z" />
    <glyph glyph-name="x" unicode="x" 
d="M61 0l328 239l-322 232h214l212 -152l202 152h204l-302 -229l342 -242h-220l-226 171l-212 -171h-220z" />
    <glyph glyph-name="y" unicode="y" 
d="M299 -174q-72 0 -131 14.5t-100 42.5l68 113l6 9l6 -4q2 -8 7.5 -13.5t19.5 -13.5q27 -13 61 -18.5t76 -5.5q49 0 82 9.5t57 29t44 48.5l164 238q31 45 58.5 97.5t37.5 98.5h164q-13 -46 -44 -100t-64 -101l-228 -322q-48 -67 -117 -94.5t-167 -27.5v0zM85 471h206
l299 -381l-85 -125z" />
    <glyph glyph-name="z" unicode="z" 
d="M90 97l491 250h-469v124h775v-97l-481 -250h460q17 0 24 2t13 8h7v-10v-124h-820v97z" />
    <glyph glyph-name="braceleft" unicode="{" 
d="M742 -95q-144 0 -242 14.5t-145.5 52.5t-42.5 108l8 100q0 44 -21 60t-61.5 17.5t-97.5 1.5h-40v122h38q61 0 102.5 2.5t62.5 18t21 53.5l-4 72q0 58 42 96.5t124.5 58t203.5 19.5h126v-124h-164q-93 0 -136.5 -12.5t-43.5 -46.5l4 -70q0 -37 -10 -60.5t-31.5 -39
t-56.5 -28.5q34 -9 56 -24.5t31.5 -41.5t6.5 -69l-6 -84q-1 -23 23.5 -39.5t79 -25t143.5 -8.5h102v-123h-72z" />
    <glyph glyph-name="bar" unicode="|" 
d="M425 -151v803h152v-803h-152z" />
    <glyph glyph-name="braceright" unicode="}" 
d="M258 -95h-72v123h102q89 0 143.5 8.5t79 25t23.5 39.5l-6 84q-3 43 6.5 69t31.5 41.5t56 24.5q-35 13 -56.5 28.5t-31.5 39t-10 60.5l4 70q0 34 -43.5 46.5t-136.5 12.5h-164v124h126q121 0 203.5 -19.5t124.5 -58t42 -96.5l-4 -72q0 -38 21 -53.5t62.5 -18t102.5 -2.5
h38v-122h-40q-57 0 -97 -1.5t-61.5 -17.5t-21.5 -60l8 -100q6 -70 -42 -108t-146 -52.5t-242 -14.5z" />
    <glyph glyph-name="asciitilde" unicode="~" 
d="M696 221q-47 0 -89.5 12.5t-82 28.5t-77.5 28.5t-76 12.5q-46 0 -81.5 -18.5t-67.5 -52.5l-72 95q34 30 68 53.5t73.5 37t86.5 13.5q56 0 95.5 -12.5t73 -29t69 -29t84.5 -12.5q44 0 81 22.5t69 50.5l70 -95q-27 -28 -62.5 -52t-76.5 -38.5t-85 -14.5z" />
    <glyph glyph-name="uni00A0" unicode="&#xa0;" 
 />
    <glyph glyph-name="exclamdown" unicode="&#xa1;" 
d="M435 348h108l59 -305q3 -30 -11 -58.5t-40 -47t-60 -18.5t-60.5 18.5t-40 45.5t-10.5 50zM488 598q40 0 68.5 -28.5t28.5 -68.5t-28.5 -68.5t-68.5 -28.5t-69 28.5t-29 68.5t29 68.5t69 28.5z" />
    <glyph glyph-name="cent" unicode="&#xa2;" 
d="M558 -73h-170l190 696h164zM569 32q-100 0 -186 17.5t-151 50.5t-101.5 78.5t-36.5 100.5q0 61 36.5 107t101 77t150.5 46.5t185 15.5q111 0 201 -21t145 -61l-74 -107l-6 -8l-6 4q-1 8 -7 13t-20 13q-49 24 -112 33.5t-137 9.5q-58 0 -110 -7t-92.5 -21.5t-63.5 -36.5
t-23 -52q0 -28 23 -51.5t65 -40.5t99.5 -26.5t126.5 -9.5q46 0 93.5 5.5t90 16.5t71.5 27l69 -108q-67 -37 -151 -51t-180 -14v0z" />
    <glyph glyph-name="sterling" unicode="&#xa3;" 
d="M130 -8l-49 115q81 20 125.5 31t62.5 24.5t18 39.5q0 19 -3.5 41t-15.5 44h-134v125h91q-4 12 -7 28t-3 31q0 45 45 79t124 53.5t182 19.5q76 0 145.5 -14t124.5 -37l-53 -96q-37 17 -97 25.5t-134 8.5q-49 0 -91 -6t-68 -18.5t-26 -30.5q0 -10 3 -20t9 -23h255v-125
h-216q8 -23 12 -41.5t4 -38.5q0 -10 -2 -20t-5.5 -19.5t-10.5 -18.5q50 1 91.5 -5t79.5 -15t76.5 -15.5t82.5 -6.5q38 0 77.5 6t79.5 21l37 -107q-52 -21 -104.5 -31.5t-103.5 -10.5q-28 0 -73.5 7t-99 15.5t-106 15.5t-93.5 7q-43 0 -101 -9.5t-129 -28.5z" />
    <glyph glyph-name="currency" unicode="&#xa4;" 
d="M202 142l-120 95l110 46q-16 14 -26 29.5t-10 34.5t10 35.5t24 29.5l-108 43l120 95l154 -52q33 5 72.5 9.5t73.5 4.5q36 0 72.5 -4t69.5 -9l154 51l120 -95l-109 -43q17 -13 27 -30t10 -35q0 -20 -10 -37.5t-27 -28.5l109 -44l-120 -95l-152 52q-36 -7 -71 -9.5
t-73 -2.5q-42 0 -77.5 3t-70.5 10zM500 277q48 0 92 6.5t72 21.5t28 40q0 24 -28 39.5t-72 22.5t-92 7q-50 0 -94.5 -7t-72 -22.5t-27.5 -39.5t28 -39t72.5 -22t93.5 -7z" />
    <glyph glyph-name="yen" unicode="&#xa5;" 
d="M471 229h-337v80h327zM557 309h325v-80h-325v80zM471 100h-337v79h337v-79zM557 179h325v-79h-325v79zM591 0h-154v277l-419 345l220 1l273 -236l281 236h186l-387 -338v-285z" />
    <glyph glyph-name="brokenbar" unicode="&#xa6;" 
d="M423 277v375h156v-375h-156zM423 -151v364h156v-364h-156z" />
    <glyph glyph-name="section" unicode="&#xa7;" 
d="M476 -59q-114 0 -217.5 22t-180.5 71l138 105q11 -1 12 -4t1.5 -9t8 -15.5t30.5 -21.5q22 -12 51 -18t67 -8.5t86 -2.5q35 0 68 2.5t58.5 7.5t40.5 13.5t15 20.5q0 13 -33.5 23t-86 19.5t-110.5 18.5q-108 17 -174 40t-96 52t-30 61q0 13 9.5 27.5t27.5 28.5t43 25.5
t56 18.5q-45 13 -76.5 40t-31.5 62q0 42 45 78.5t125.5 59t187.5 22.5q80 0 149.5 -13t124 -37.5t90.5 -59.5l-162 -72q-9 5 -13.5 8t-10.5 15q-6 11 -22.5 20t-40.5 15.5t-52.5 10t-58.5 3.5q-49 0 -86 -4t-57.5 -12.5t-20.5 -22.5q0 -10 21.5 -20.5t56 -21.5t76.5 -20.5
t82 -16.5q44 -8 92.5 -19.5t91 -27.5t69.5 -40t27 -57q0 -20 -16 -40t-42 -36t-56 -25q44 -19 71 -44.5t27 -51.5q0 -35 -26.5 -66t-76.5 -54.5t-118.5 -36.5t-152.5 -13zM602 250l37.5 10t40.5 14t18 18q0 11 -23 21t-59 19t-77 17t-77 15l-52 11q-9 -1 -25 -5t-33.5 -10.5
t-29.5 -14t-12 -15.5t18 -16t47 -15.5t63 -14.5t66 -13q29 -6 49.5 -10t48.5 -11z" />
    <glyph glyph-name="dieresis" unicode="&#xa8;" 
d="M311 534q-31 0 -54 23t-23 55q0 31 22 54t55 23q32 0 55 -23t23 -55q0 -31 -23 -54t-55 -23zM689 534q-31 0 -54 23t-23 54q0 32 22 55t55 23q32 0 55 -23t23 -55q0 -31 -23 -54t-55 -23z" />
    <glyph glyph-name="copyright" unicode="&#xa9;" 
d="M501 131q-84 0 -142.5 20t-89.5 53.5t-31 71.5q0 30 19 55t52.5 44t79.5 29.5t100 10.5q120 0 187 -31t89 -77l-142 -21q-4 4 -5 8t-2 8.5t-7.5 9.5t-22.5 11q-12 4 -31 7.5t-42 3.5q-28 0 -52 -4t-42 -11t-28 -17t-10 -22q0 -18 18 -33t49.5 -24t72.5 -9q20 0 43.5 4
t42 11t22.5 16l128 -33q-37 -37 -104.5 -59t-151.5 -22zM489 17q-103 0 -190 20t-151.5 55.5t-100 81.5t-35.5 98q0 53 37.5 99t104 81t155.5 55t192 20q101 0 189 -20t154.5 -55t104.5 -81t38 -99q0 -42 -24 -80.5t-68.5 -70t-106 -55t-137.5 -36.5t-162 -13zM503 89
q86 0 156 14t119.5 39t76 58.5t26.5 72.5q0 38 -26.5 71.5t-76 58.5t-119.5 39.5t-156 14.5q-79 0 -149 -14t-123 -39t-83 -59t-30 -73t30 -72t83 -58t123 -39t149 -14z" />
    <glyph glyph-name="ordfeminine" unicode="&#xaa;" 
d="M443 258q-122 0 -186 25.5t-64 83.5q0 41 33 70.5t110.5 45.5t210.5 16q23 0 50.5 -2t57.5 -5t59 -5l-3 -82q-25 2 -52.5 2h-54h-49.5q-98 0 -151 -5t-73 -12t-20 -15q0 -7 11.5 -12t42.5 -8t90 -3q56 0 97 3.5t68.5 13.5t41.5 29t14 49q1 43 -17.5 64t-55 28.5
t-92.5 7.5q-79 0 -130 -10.5t-89 -29.5l-66 71q49 26 115.5 44t168.5 18q84 0 148.5 -13.5t101.5 -52.5t37 -116v-191h-125v34q-23 -10 -50.5 -18t-57.5 -13.5t-61 -8.5t-60 -3zM165 229h673v-113h-673v113z" />
    <glyph glyph-name="guillemotleft" unicode="&#xab;" 
d="M454 38l-346 187v40l344 165l84 -68l-226 -119l244 -140zM768 38l-346 187v40l342 165l100 -73l-242 -114l256 -139z" />
    <glyph glyph-name="logicalnot" unicode="&#xac;" 
d="M706 146v112h-558v125h714v-237h-156z" />
    <glyph glyph-name="uni00AD" unicode="&#xad;" 
d="M212 250v129h580v-129h-580z" />
    <glyph glyph-name="registered" unicode="&#xae;" 
d="M579 152l-58 73h-74v-68h-146v238h209q80 0 127 -11t67.5 -30t20.5 -43q0 -20 -17 -35.5t-54 -27.5l83 -84zM447 292h72q30 0 42 4.5t12 14.5q0 7 -13 12t-45 5h-68v-36zM489 17q-103 0 -190 20t-151.5 55.5t-100 81.5t-35.5 98q0 53 37.5 99t104 81t155.5 55t192 20
q101 0 189 -20t154.5 -55t104.5 -81t38 -99q0 -42 -24 -80.5t-68.5 -70t-106 -55t-137.5 -36.5t-162 -13zM503 89q86 0 156 14t119.5 39t76 58.5t26.5 72.5q0 38 -26.5 71.5t-76 58.5t-119.5 39.5t-156 14.5q-79 0 -149 -14t-123 -39t-83 -59t-30 -73t30 -72t83 -58t123 -39
t149 -14z" />
    <glyph glyph-name="macron" unicode="&#xaf;" 
d="M196 557v99h594v-99h-594z" />
    <glyph glyph-name="degree" unicode="&#xb0;" 
d="M512 390q-87 0 -157 20t-111.5 53.5t-41.5 73.5q0 31 25 58t68.5 47t99.5 31t117 11q87 0 157.5 -20.5t111.5 -54t41 -72.5t-41 -72.5t-111.5 -54t-157.5 -20.5zM512 497q43 0 81 4.5t61.5 13.5t23.5 23q0 13 -24 22t-62.5 13.5t-81.5 4.5q-44 0 -81 -4.5t-59 -13.5
t-22 -23q0 -13 22.5 -22t60 -13.5t81.5 -4.5z" />
    <glyph glyph-name="plusminus" unicode="&#xb1;" 
d="M430 153v156h-340v123h340v140h154v-140h328v-123h-328v-156h-154zM67 -13v123h867v-123h-867z" />
    <glyph glyph-name="uni00B2" unicode="&#xb2;" 
d="M254 301q90 42 164 71.5t126.5 51t81 38.5t28.5 35q0 20 -13 31.5t-44 16.5t-84 5q-61 0 -106.5 -6t-77.5 -20q-14 -8 -19.5 -13.5t-7.5 -13.5l-6 -4l-5 9l-58 60q45 31 111 51.5t167 20.5q71 0 127.5 -13t89 -39t32.5 -66q0 -32 -16.5 -57.5t-47.5 -46.5t-75.5 -41
t-100.5 -41h200q17 0 24 2t13 8h7v-10v-84h-510v55z" />
    <glyph glyph-name="uni00B3" unicode="&#xb3;" 
d="M488 239q-87 0 -140.5 11t-97.5 32l65 57l8 7l3 -4q-1 -7 4 -7.5t16 -3.5q24 -4 57.5 -6t80.5 -2q85 0 121.5 10.5t36.5 31.5q0 14 -28.5 24.5t-81 15.5t-124.5 2v80q67 0 106.5 2t58.5 5t24.5 8t5.5 12t-11.5 15t-35 14.5t-60.5 6.5q-40 0 -81 -5t-79 -21l-57 73
q46 20 103.5 28.5t111.5 8.5q101 0 162 -23.5t61 -71.5q0 -35 -18 -56.5t-64 -32.5q33 -7 58.5 -19t39.5 -31t14 -49q0 -33 -25.5 -58.5t-82 -39.5t-151.5 -14v0z" />
    <glyph glyph-name="acute" unicode="&#xb4;" 
d="M453 477l-136 69l238 136l160 -88z" />
    <glyph glyph-name="uni00B5" unicode="&#xb5;" 
d="M29 -167q0 17 4 53t10 81t12 91t10 84t4 60v269h152v-245q0 -34 14.5 -56.5t40.5 -35t61.5 -17.5t77.5 -5q54 0 95 15t64 40t23 55v249h148v-271q0 -31 11 -49.5t28 -26.5t36 -8q29 0 51.5 7.5t33.5 14.5l24 16l50 -109q-37 -28 -83 -41.5t-93 -13.5q-37 0 -66 8.5
t-49 25t-32 41.5q-20 -26 -57 -42.5t-86.5 -24.5t-109.5 -8q-44 0 -84.5 7.5t-72.5 23.5t-51 39q-1 -29 -3 -57t-3.5 -55.5t-3 -56t-2.5 -58.5h-154z" />
    <glyph glyph-name="paragraph" unicode="&#xb6;" 
d="M468 -68v390q-75 2 -137.5 15.5t-107.5 37t-70 55.5t-25 72q0 48 47 84.5t155 57.5t292 21h268v-733h-152v610h-118v-610h-152z" />
    <glyph glyph-name="periodcentered" unicode="&#xb7;" 
d="M483 237q-40 0 -69 28t-29 69q0 40 29 68.5t69 28.5t68.5 -28.5t28.5 -68.5t-28 -68.5t-69 -28.5z" />
    <glyph glyph-name="cedilla" unicode="&#xb8;" 
d="M536 -197q-52 0 -101.5 7.5t-96.5 23.5l42 68q38 -15 85.5 -20.5t96.5 -5.5q33 0 56.5 2.5t23.5 12.5q0 12 -25.5 15t-52.5 3h-80l18 91h128l-6 -31q54 -2 85.5 -14.5t45 -29.5t13.5 -34q0 -37 -56.5 -62.5t-175.5 -25.5z" />
    <glyph glyph-name="uni00B9" unicode="&#xb9;" 
d="M469 246v291l-158 -31l-28 75l204 52h85v-387h-103z" />
    <glyph glyph-name="ordmasculine" unicode="&#xba;" 
d="M498 260q-99 -1 -171 23.5t-110.5 68t-38.5 96.5t38.5 96.5t110.5 69.5t171 26q100 0 169.5 -26t106.5 -69.5t37 -96.5t-37 -96t-106.5 -67.5t-169.5 -24.5zM498 363q56 0 95.5 10.5t60.5 29.5t21 46q0 28 -21 47.5t-60.5 30.5t-95.5 11q-55 0 -96.5 -11t-64.5 -30.5
t-23 -47.5q0 -27 23 -46t64.5 -29.5t96.5 -10.5zM165 229h673v-113h-673v113z" />
    <glyph glyph-name="guillemotright" unicode="&#xbb;" 
d="M582 38l-100 65l244 140l-226 119l84 68l344 -165v-40zM268 38l-110 66l256 139l-242 114l100 73l342 -165v-40z" />
    <glyph glyph-name="onequarter" unicode="&#xbc;" 
d="M193 380v224l-121 -24l-23 65l159 41h72v-306h-87zM811 -70v52h-297v44l316 210h69v-185h86v-69h-86v-52h-88zM664 52h146v96zM246 -44l-88 58l556 661l90 -60z" />
    <glyph glyph-name="onehalf" unicode="&#xbd;" 
d="M193 380v224l-121 -24l-23 65l159 41h72v-306h-87zM565 -70v46q71 33 128.5 56t98.5 39t63 28.5t22 24.5q0 16 -8.5 24.5t-31 12.5t-66.5 4t-76.5 -3.5t-56 -11t-41.5 -21.5l-48 50q36 25 87 41t133 16q56 0 101 -10.5t71 -31t26 -51.5q0 -25 -11.5 -45t-33.5 -36
t-54.5 -30.5t-75.5 -29.5h178v-72h-405zM246 -44l-88 58l556 661l90 -60z" />
    <glyph glyph-name="threequarters" unicode="&#xbe;" 
d="M210 375q-71 0 -112 9t-76 25l52 52l7 7l4 -3q-1 -7 3.5 -8.5t15.5 -4.5q18 -4 43.5 -5t60.5 -1q68 0 93.5 8t25.5 21q0 9 -21 16.5t-61 11.5t-97 2v68q53 0 83 1t43.5 2.5t17 4.5t3.5 7t-7.5 10t-24.5 11.5t-46 5.5q-31 0 -64 -4t-63 -16l-45 62q36 17 82 23t88 6
q80 0 128.5 -18.5t48.5 -56.5q0 -27 -13 -44.5t-48 -25.5q38 -9 61.5 -26t23.5 -52q0 -40 -45.5 -64t-160.5 -24v0zM811 -18h-297v44l316 210h69v-185h86v-69h-86v-52h-88v52zM810 52v96l-146 -96h146zM246 -44l-88 58l556 661l90 -60z" />
    <glyph glyph-name="questiondown" unicode="&#xbf;" 
d="M564 261q0 -29 -21.5 -53t-55 -43.5t-71 -36.5t-71 -31.5t-55 -27t-21.5 -24.5q0 -14 14 -24t42.5 -17t71.5 -10t100 -3q90 0 154 10.5t112 32.5q14 8 19.5 13t7.5 13l6 4l5 -9l76 -84q-43 -30 -94.5 -51t-122 -32t-169.5 -11q-106 0 -191 19t-135 54t-50 83
q0 34 21.5 60t55 46.5t71 37t71 31.5t55 30t21.5 33v31h154v-41zM484 553q41 0 69.5 -28.5t28.5 -68.5t-28.5 -68.5t-69.5 -28.5q-40 0 -68.5 28.5t-28.5 68.5t28.5 68.5t68.5 28.5v0z" />
    <glyph glyph-name="Agrave" unicode="&#xc0;" 
d="M762 153h-532l60 112h428zM498 424l-298 -424h-178l450 634h56l450 -634h-184zM644 636l-331 58l43 133l321 -86z" />
    <glyph glyph-name="Aacute" unicode="&#xc1;" 
d="M762 153h-532l60 112h428zM498 424l-298 -424h-178l450 634h56l450 -634h-184zM352 636l-33 105l321 86l43 -133z" />
    <glyph glyph-name="Acircumflex" unicode="&#xc2;" 
d="M762 153h-532l60 112h428zM498 424l-298 -424h-178l450 634h56l450 -634h-184zM184 635l-46 81l326 90h74l304 -91l-46 -81l-296 64z" />
    <glyph glyph-name="Atilde" unicode="&#xc3;" 
d="M762 153h-532l60 112h428zM498 424l-298 -424h-178l450 634h56l450 -634h-184zM773 806l77 -88q-35 -37 -80.5 -58.5t-105.5 -21.5q-45 0 -79.5 8t-64 19t-58 19t-62.5 8t-69 -15t-58 -37l-77 87q29 31 75.5 55.5t124.5 24.5q44 0 77 -8t61 -19t57 -19t65 -8
q32 0 62.5 15.5t54.5 37.5z" />
    <glyph glyph-name="Adieresis" unicode="&#xc4;" 
d="M762 153h-532l60 112h428zM498 424l-298 -424h-178l450 634h56l450 -634h-184zM309 677q-31 0 -54 23t-23 55q0 31 22 54t55 23q32 0 55 -23t23 -55q0 -31 -23 -54t-55 -23zM687 677q-31 0 -54 23t-23 54q0 32 22 55t55 23q32 0 55 -23t23 -55q0 -31 -23 -54t-55 -23z
" />
    <glyph glyph-name="Aring" unicode="&#xc5;" 
d="M762 153h-532l60 112h428zM498 424l-298 -424h-178l450 634h56l450 -634h-184zM494 614q-60 0 -110 14.5t-80.5 39t-30.5 54.5q0 29 30 53t80.5 38.5t111.5 14.5q62 0 113.5 -14.5t83 -38.5t31.5 -52q0 -30 -31.5 -55t-83.5 -39.5t-114 -14.5zM497 700q40 0 65 6t25 18
q0 11 -25 17.5t-65 6.5q-41 0 -65.5 -6.5t-24.5 -17.5q0 -12 24.5 -18t65.5 -6z" />
    <glyph glyph-name="AE" unicode="&#xc6;" 
d="M30 0l392 624h568v-122h-327v-115h275v-124h-275v-141h323v-122h-475v139h-220l-88 -139h-173zM356 257h155v245h-4z" />
    <glyph glyph-name="Ccedilla" unicode="&#xc7;" 
d="M569 -10q-106 0 -195.5 21t-155 62t-101.5 100t-36 135q0 71 28 124t76.5 90.5t110 60.5t130 34t135.5 11q135 0 231.5 -29.5t144.5 -85.5l-78 -92l-7 -8l-5 5q-1 8 -5.5 13.5t-18.5 15.5q-47 31 -115 43.5t-151 12.5q-67 0 -125.5 -11.5t-103 -35.5t-69 -59.5
t-24.5 -83.5t24 -85t68 -62t104 -38t132 -13q50 0 105.5 7.5t103.5 23.5t76 39l71 -102q-60 -50 -144 -71.5t-206 -21.5v0zM553 -197q-52 0 -101.5 7.5t-96.5 23.5l42 68q38 -15 85.5 -20.5t96.5 -5.5q33 0 56.5 2.5t23.5 12.5q0 12 -25.5 15t-52.5 3h-80l18 91h128l-6 -31
q54 -2 85.5 -14.5t45 -29.5t13.5 -34q0 -37 -56.5 -62.5t-175.5 -25.5z" />
    <glyph glyph-name="Egrave" unicode="&#xc8;" 
d="M88 0v624h824v-120h-670v-119h560v-120h-560v-145h664v-120h-818zM684 636l-331 58l43 133l321 -86z" />
    <glyph glyph-name="Eacute" unicode="&#xc9;" 
d="M88 0v624h824v-120h-670v-119h560v-120h-560v-145h664v-120h-818zM392 636l-33 105l321 86l43 -133z" />
    <glyph glyph-name="Ecircumflex" unicode="&#xca;" 
d="M88 0v624h824v-120h-670v-119h560v-120h-560v-145h664v-120h-818zM224 635l-46 81l326 90h74l304 -91l-46 -81l-296 64z" />
    <glyph glyph-name="Edieresis" unicode="&#xcb;" 
d="M88 0v624h824v-120h-670v-119h560v-120h-560v-145h664v-120h-818zM349 677q-31 0 -54 23t-23 55q0 31 22 54t55 23q32 0 55 -23t23 -55q0 -31 -23 -54t-55 -23zM727 677q-31 0 -54 23t-23 54q0 32 22 55t55 23q32 0 55 -23t23 -55q0 -31 -23 -54t-55 -23z" />
    <glyph glyph-name="Igrave" unicode="&#xcc;" 
d="M141 0v124h260v375h-246v124h648v-124h-249v-376h261v-123h-674zM621 636l-331 58l43 133l321 -86z" />
    <glyph glyph-name="Iacute" unicode="&#xcd;" 
d="M141 0v124h260v375h-246v124h648v-124h-249v-376h261v-123h-674zM329 636l-33 105l321 86l43 -133z" />
    <glyph glyph-name="Icircumflex" unicode="&#xce;" 
d="M141 0v124h260v375h-246v124h648v-124h-249v-376h261v-123h-674zM161 635l-46 81l326 90h74l304 -91l-46 -81l-296 64z" />
    <glyph glyph-name="Idieresis" unicode="&#xcf;" 
d="M141 0v124h260v375h-246v124h648v-124h-249v-376h261v-123h-674zM286 677q-31 0 -54 23t-23 55q0 31 22 54t55 23q32 0 55 -23t23 -55q0 -31 -23 -54t-55 -23zM664 677q-31 0 -54 23t-23 54q0 32 22 55t55 23q32 0 55 -23t23 -55q0 -31 -23 -54t-55 -23z" />
    <glyph glyph-name="Eth" unicode="&#xd0;" 
d="M146 -1v271h-96v120h96v233h290q93 0 159 -9t112.5 -25t78 -36t55.5 -42q18 -16 42 -43.5t41.5 -66.5t17.5 -92q0 -72 -36.5 -129t-105.5 -97.5t-167.5 -62t-222.5 -21.5h-264zM298 118h108q118 0 204 21.5t133 63.5t47 103q0 68 -41.5 111.5t-122 64.5t-198.5 21h-130
v-113h198v-120h-198v-152z" />
    <glyph glyph-name="Ntilde" unicode="&#xd1;" 
d="M86 623h154l516 -430v430h151h10v-7q-6 -6 -7.5 -13t-1.5 -24v-579h-128l-542 452v-452h-152v623zM773 806l77 -88q-35 -37 -80.5 -58.5t-105.5 -21.5q-45 0 -79.5 8t-64 19t-58 19t-62.5 8t-69 -15t-58 -37l-77 87q29 31 75.5 55.5t124.5 24.5q44 0 77 -8t61 -19t57 -19
t65 -8q32 0 62.5 15.5t54.5 37.5z" />
    <glyph glyph-name="Ograve" unicode="&#xd2;" 
d="M500 -11q-138 0 -240.5 39.5t-159 111t-56.5 168.5q0 94 56.5 165.5t159 112.5t240.5 41t240.5 -41t159 -112.5t56.5 -165.5q0 -97 -56.5 -168.5t-159 -111t-240.5 -39.5zM500 113q100 0 167 22.5t101 66t34 106.5q0 59 -34 102.5t-101 68t-167 24.5t-167 -24.5t-101 -68
t-34 -102.5q0 -63 34 -106.5t101 -66t167 -22.5zM644 636l-331 58l43 133l321 -86z" />
    <glyph glyph-name="Oacute" unicode="&#xd3;" 
d="M500 -11q-138 0 -240.5 39.5t-159 111t-56.5 168.5q0 94 56.5 165.5t159 112.5t240.5 41t240.5 -41t159 -112.5t56.5 -165.5q0 -97 -56.5 -168.5t-159 -111t-240.5 -39.5zM500 113q100 0 167 22.5t101 66t34 106.5q0 59 -34 102.5t-101 68t-167 24.5t-167 -24.5t-101 -68
t-34 -102.5q0 -63 34 -106.5t101 -66t167 -22.5zM352 636l-33 105l321 86l43 -133z" />
    <glyph glyph-name="Ocircumflex" unicode="&#xd4;" 
d="M500 -11q-138 0 -240.5 39.5t-159 111t-56.5 168.5q0 94 56.5 165.5t159 112.5t240.5 41t240.5 -41t159 -112.5t56.5 -165.5q0 -97 -56.5 -168.5t-159 -111t-240.5 -39.5zM500 113q100 0 167 22.5t101 66t34 106.5q0 59 -34 102.5t-101 68t-167 24.5t-167 -24.5t-101 -68
t-34 -102.5q0 -63 34 -106.5t101 -66t167 -22.5zM184 635l-46 81l326 90h74l304 -91l-46 -81l-296 64z" />
    <glyph glyph-name="Otilde" unicode="&#xd5;" 
d="M500 -11q-138 0 -240.5 39.5t-159 111t-56.5 168.5q0 94 56.5 165.5t159 112.5t240.5 41t240.5 -41t159 -112.5t56.5 -165.5q0 -97 -56.5 -168.5t-159 -111t-240.5 -39.5zM500 113q100 0 167 22.5t101 66t34 106.5q0 59 -34 102.5t-101 68t-167 24.5t-167 -24.5t-101 -68
t-34 -102.5q0 -63 34 -106.5t101 -66t167 -22.5zM773 806l77 -88q-35 -37 -80.5 -58.5t-105.5 -21.5q-45 0 -79.5 8t-64 19t-58 19t-62.5 8t-69 -15t-58 -37l-77 87q29 31 75.5 55.5t124.5 24.5q44 0 77 -8t61 -19t57 -19t65 -8q32 0 62.5 15.5t54.5 37.5z" />
    <glyph glyph-name="Odieresis" unicode="&#xd6;" 
d="M500 -11q-138 0 -240.5 39.5t-159 111t-56.5 168.5q0 94 56.5 165.5t159 112.5t240.5 41t240.5 -41t159 -112.5t56.5 -165.5q0 -97 -56.5 -168.5t-159 -111t-240.5 -39.5zM500 113q100 0 167 22.5t101 66t34 106.5q0 59 -34 102.5t-101 68t-167 24.5t-167 -24.5t-101 -68
t-34 -102.5q0 -63 34 -106.5t101 -66t167 -22.5zM309 677q-31 0 -54 23t-23 55q0 31 22 54t55 23q32 0 55 -23t23 -55q0 -31 -23 -54t-55 -23zM687 677q-31 0 -54 23t-23 54q0 32 22 55t55 23q32 0 55 -23t23 -55q0 -31 -23 -54t-55 -23z" />
    <glyph glyph-name="multiply" unicode="&#xd7;" 
d="M816 138l-306 127l-308 -121l-86 107l230 93l-230 96l92 108l302 -123l304 121l96 -104l-234 -97l228 -96z" />
    <glyph glyph-name="Oslash" unicode="&#xd8;" 
d="M170 -42l-78 80l740 644l74 -82zM500 -11q-138 0 -240.5 39.5t-159 111t-56.5 168.5q0 94 56.5 165.5t159 112.5t240.5 41t240.5 -41t159 -112.5t56.5 -165.5q0 -97 -56.5 -168.5t-159 -111t-240.5 -39.5zM500 113q100 0 167 22.5t101 66t34 106.5q0 59 -34 102.5
t-101 68t-167 24.5t-167 -24.5t-101 -68t-34 -102.5q0 -63 34 -106.5t101 -66t167 -22.5z" />
    <glyph glyph-name="Ugrave" unicode="&#xd9;" 
d="M502 -11q-199 0 -305.5 68t-106.5 198v368h152h10v-7q-6 -6 -7.5 -13t-1.5 -24v-325q0 -64 65.5 -104.5t195.5 -40.5q143 0 204 41t61 107v366h149v-365q0 -94 -52.5 -153.5t-146.5 -87.5t-217 -28v0zM644 636l-331 58l43 133l321 -86z" />
    <glyph glyph-name="Uacute" unicode="&#xda;" 
d="M502 -11q-199 0 -305.5 68t-106.5 198v368h152h10v-7q-6 -6 -7.5 -13t-1.5 -24v-325q0 -64 65.5 -104.5t195.5 -40.5q143 0 204 41t61 107v366h149v-365q0 -94 -52.5 -153.5t-146.5 -87.5t-217 -28v0zM352 636l-33 105l321 86l43 -133z" />
    <glyph glyph-name="Ucircumflex" unicode="&#xdb;" 
d="M502 -11q-199 0 -305.5 68t-106.5 198v368h152h10v-7q-6 -6 -7.5 -13t-1.5 -24v-325q0 -64 65.5 -104.5t195.5 -40.5q143 0 204 41t61 107v366h149v-365q0 -94 -52.5 -153.5t-146.5 -87.5t-217 -28v0zM184 635l-46 81l326 90h74l304 -91l-46 -81l-296 64z" />
    <glyph glyph-name="Udieresis" unicode="&#xdc;" 
d="M502 -11q-199 0 -305.5 68t-106.5 198v368h152h10v-7q-6 -6 -7.5 -13t-1.5 -24v-325q0 -64 65.5 -104.5t195.5 -40.5q143 0 204 41t61 107v366h149v-365q0 -94 -52.5 -153.5t-146.5 -87.5t-217 -28v0zM309 677q-31 0 -54 23t-23 55q0 31 22 54t55 23q32 0 55 -23t23 -55
q0 -31 -23 -54t-55 -23zM687 677q-31 0 -54 23t-23 54q0 32 22 55t55 23q32 0 55 -23t23 -55q0 -31 -23 -54t-55 -23z" />
    <glyph glyph-name="Yacute" unicode="&#xdd;" 
d="M440 0v226l-404 397h186l301 -275l265 275h178l-373 -397v-226h-153zM352 636l-33 105l321 86l43 -133z" />
    <glyph glyph-name="Thorn" unicode="&#xde;" 
d="M100 0v623h163q2 -1 2 -1.5v-1.5q0 -3 -6 -9.5t-6 -15.5v-62h258q139 0 228.5 -27.5t132.5 -73.5t43 -101q0 -65 -42 -110t-129.5 -67.5t-222.5 -22.5h-268v-131h-153zM253 246h268q86 0 138.5 8t76.5 26.5t24 48.5q0 27 -24.5 45.5t-79.5 28.5t-149 10h-254v-167z" />
    <glyph glyph-name="germandbls" unicode="&#xdf;" 
d="M562 -10q-58 0 -109.5 7.5t-98.5 23.5l41 120q38 -13 85 -18t90 -5q47 0 87 5.5t70.5 15.5t47.5 24.5t17 33.5q0 23 -17.5 41t-54.5 30t-94.5 18t-137.5 6h-60v119h72q29 0 58 2.5t54.5 7t45.5 12.5t31 19t11 25q0 13 -16 25t-45.5 22t-69.5 16t-87 6q-74 0 -125 -14.5
t-77.5 -41.5t-26.5 -65v-425h-153v423q0 75 47 130t129 85.5t186 30.5q119 0 206 -24.5t134.5 -65.5t47.5 -91q0 -25 -15.5 -48.5t-43.5 -41.5t-65 -29q56 -11 96 -28t65.5 -40t38 -52t12.5 -64q0 -56 -47.5 -100t-132 -69.5t-196.5 -25.5z" />
    <glyph glyph-name="agrave" unicode="&#xe0;" 
d="M425 -11q-166 0 -253 33t-87 106q0 39 26.5 70.5t83 53.5t147 33.5t219.5 11.5q33 0 73 -2.5t82.5 -6.5t84.5 -7l-3 -101q-36 3 -75.5 4t-78 1h-71.5q-97 0 -163 -4t-106 -11t-57.5 -15.5t-17.5 -18.5q0 -8 10.5 -14.5t35 -11t64.5 -7t99 -2.5q78 0 137.5 5.5t100.5 19.5
t61.5 40t20.5 66q0 58 -28 87.5t-82.5 40t-135.5 10.5q-103 0 -172.5 -14t-122.5 -38l-82 85q65 32 154 55.5t223 23.5q87 0 159 -9.5t124 -35t80.5 -72.5t28.5 -122v-243h-152v50q-31 -15 -70.5 -26.5t-84 -19t-88.5 -11.5t-84 -4zM546 491l-262 117l160 88l238 -136z" />
    <glyph glyph-name="aacute" unicode="&#xe1;" 
d="M425 -11q-166 0 -253 33t-87 106q0 39 26.5 70.5t83 53.5t147 33.5t219.5 11.5q33 0 73 -2.5t82.5 -6.5t84.5 -7l-3 -101q-36 3 -75.5 4t-78 1h-71.5q-97 0 -163 -4t-106 -11t-57.5 -15.5t-17.5 -18.5q0 -8 10.5 -14.5t35 -11t64.5 -7t99 -2.5q78 0 137.5 5.5t100.5 19.5
t61.5 40t20.5 66q0 58 -28 87.5t-82.5 40t-135.5 10.5q-103 0 -172.5 -14t-122.5 -38l-82 85q65 32 154 55.5t223 23.5q87 0 159 -9.5t124 -35t80.5 -72.5t28.5 -122v-243h-152v50q-31 -15 -70.5 -26.5t-84 -19t-88.5 -11.5t-84 -4zM454 491l-136 69l238 136l160 -88z" />
    <glyph glyph-name="acircumflex" unicode="&#xe2;" 
d="M425 -11q-166 0 -253 33t-87 106q0 39 26.5 70.5t83 53.5t147 33.5t219.5 11.5q33 0 73 -2.5t82.5 -6.5t84.5 -7l-3 -101q-36 3 -75.5 4t-78 1h-71.5q-97 0 -163 -4t-106 -11t-57.5 -15.5t-17.5 -18.5q0 -8 10.5 -14.5t35 -11t64.5 -7t99 -2.5q78 0 137.5 5.5t100.5 19.5
t61.5 40t20.5 66q0 58 -28 87.5t-82.5 40t-135.5 10.5q-103 0 -172.5 -14t-122.5 -38l-82 85q65 32 154 55.5t223 23.5q87 0 159 -9.5t124 -35t80.5 -72.5t28.5 -122v-243h-152v50q-31 -15 -70.5 -26.5t-84 -19t-88.5 -11.5t-84 -4zM280 511l-70 84l268 90h68l268 -90
l-70 -84l-232 74z" />
    <glyph glyph-name="atilde" unicode="&#xe3;" 
d="M425 -11q-166 0 -253 33t-87 106q0 39 26.5 70.5t83 53.5t147 33.5t219.5 11.5q33 0 73 -2.5t82.5 -6.5t84.5 -7l-3 -101q-36 3 -75.5 4t-78 1h-71.5q-97 0 -163 -4t-106 -11t-57.5 -15.5t-17.5 -18.5q0 -8 10.5 -14.5t35 -11t64.5 -7t99 -2.5q78 0 137.5 5.5t100.5 19.5
t61.5 40t20.5 66q0 58 -28 87.5t-82.5 40t-135.5 10.5q-103 0 -172.5 -14t-122.5 -38l-82 85q65 32 154 55.5t223 23.5q87 0 159 -9.5t124 -35t80.5 -72.5t28.5 -122v-243h-152v50q-31 -15 -70.5 -26.5t-84 -19t-88.5 -11.5t-84 -4zM777 726l77 -88q-35 -37 -80.5 -58.5
t-105.5 -21.5q-45 0 -79.5 8t-64 19t-58 19t-62.5 8t-69 -15t-58 -37l-77 87q29 31 75.5 55.5t124.5 24.5q44 0 77 -8t61 -19t57 -19t65 -8q32 0 62.5 15.5t54.5 37.5z" />
    <glyph glyph-name="adieresis" unicode="&#xe4;" 
d="M425 -11q-166 0 -253 33t-87 106q0 39 26.5 70.5t83 53.5t147 33.5t219.5 11.5q33 0 73 -2.5t82.5 -6.5t84.5 -7l-3 -101q-36 3 -75.5 4t-78 1h-71.5q-97 0 -163 -4t-106 -11t-57.5 -15.5t-17.5 -18.5q0 -8 10.5 -14.5t35 -11t64.5 -7t99 -2.5q78 0 137.5 5.5t100.5 19.5
t61.5 40t20.5 66q0 58 -28 87.5t-82.5 40t-135.5 10.5q-103 0 -172.5 -14t-122.5 -38l-82 85q65 32 154 55.5t223 23.5q87 0 159 -9.5t124 -35t80.5 -72.5t28.5 -122v-243h-152v50q-31 -15 -70.5 -26.5t-84 -19t-88.5 -11.5t-84 -4zM321 548q-31 0 -54 23t-23 55q0 31 22 54
t55 23q32 0 55 -23t23 -55q0 -31 -23 -54t-55 -23zM699 548q-31 0 -54 23t-23 54q0 32 22 55t55 23q32 0 55 -23t23 -55q0 -31 -23 -54t-55 -23z" />
    <glyph glyph-name="aring" unicode="&#xe5;" 
d="M425 -11q-166 0 -253 33t-87 106q0 39 26.5 70.5t83 53.5t147 33.5t219.5 11.5q33 0 73 -2.5t82.5 -6.5t84.5 -7l-3 -101q-36 3 -75.5 4t-78 1h-71.5q-97 0 -163 -4t-106 -11t-57.5 -15.5t-17.5 -18.5q0 -8 10.5 -14.5t35 -11t64.5 -7t99 -2.5q78 0 137.5 5.5t100.5 19.5
t61.5 40t20.5 66q0 58 -28 87.5t-82.5 40t-135.5 10.5q-103 0 -172.5 -14t-122.5 -38l-82 85q65 32 154 55.5t223 23.5q87 0 159 -9.5t124 -35t80.5 -72.5t28.5 -122v-243h-152v50q-31 -15 -70.5 -26.5t-84 -19t-88.5 -11.5t-84 -4zM486 524q-60 0 -110.5 14.5t-81 39
t-30.5 54.5q0 29 30 53t80.5 38.5t111.5 14.5q62 0 114 -14.5t83 -38.5t31 -52q0 -30 -31.5 -55t-83.5 -39.5t-113 -14.5zM488 610q40 0 65 6t25 18q0 11 -25 17.5t-65 6.5q-41 0 -65.5 -6.5t-24.5 -17.5q0 -12 24.5 -18t65.5 -6z" />
    <glyph glyph-name="ae" unicode="&#xe6;" 
d="M274 -11q-89 0 -145.5 16.5t-82.5 47.5t-26 73q0 38 18.5 67.5t64.5 50.5t126.5 33.5t204.5 15.5q0 18 -14 32.5t-47 23t-89 8.5q-45 0 -88 -8.5t-72 -25.5l-62 89q44 28 101.5 41.5t130.5 13.5q48 0 86 -5.5t68 -17.5t53 -32q25 23 62 35t79 16t82 4q91 0 147.5 -26.5
t82.5 -73.5t26 -109v-62l-412 -7v-14q0 -19 13.5 -33.5t38 -24.5t58.5 -15t74 -5q41 0 76 5t63 13.5t48 19.5l49 -93q-43 -26 -105 -39.5t-143 -13.5q-41 0 -88.5 8t-89.5 24t-65 41q-22 -23 -56 -39.5t-76.5 -25t-90.5 -8.5zM268 97q55 0 92 9.5t55.5 29t18.5 49.5
q-107 0 -168 -7.5t-86.5 -18.5t-25.5 -25q0 -12 12 -20.5t37.5 -12.5t64.5 -4zM572 293l276 5q0 16 -11.5 29t-39.5 21.5t-78 8.5t-82.5 -8.5t-48.5 -23t-16 -32.5z" />
    <glyph glyph-name="ccedilla" unicode="&#xe7;" 
d="M569 -11q-100 0 -186 17.5t-151 50.5t-101.5 78.5t-36.5 100.5q0 61 36.5 107t101 77t150.5 46.5t185 15.5q111 0 201 -21t145 -61l-74 -107l-6 -8l-6 4q-1 8 -7 13t-20 13q-49 24 -112 33.5t-137 9.5q-58 0 -110 -7t-92.5 -21.5t-63.5 -36.5t-23 -52q0 -28 23 -51.5
t65 -40.5t99.5 -26.5t126.5 -9.5q46 0 93.5 5.5t90 16.5t71.5 27l69 -108q-67 -37 -151 -51t-180 -14v0zM565 -197q-52 0 -101.5 7.5t-96.5 23.5l42 68q38 -15 85.5 -20.5t96.5 -5.5q33 0 56.5 2.5t23.5 12.5q0 12 -25.5 15t-52.5 3h-80l18 91h128l-6 -31q54 -2 85.5 -14.5
t45 -29.5t13.5 -34q0 -37 -56.5 -62.5t-175.5 -25.5z" />
    <glyph glyph-name="egrave" unicode="&#xe8;" 
d="M547 -10q-100 0 -187 15.5t-152.5 45.5t-102 74.5t-36.5 101.5q0 58 32 105t91.5 80t143 51t185.5 18q98 0 173 -20t126.5 -55.5t78 -83t26.5 -103.5q0 -8 -1 -16.5t-3 -16.5h-710q9 -18 35.5 -33t69 -25.5t101.5 -16t134 -5.5q47 0 101 3t98.5 10t64.5 18l80 -77
q-34 -22 -90 -38t-123 -24t-135 -8zM211 293h574q-6 18 -29.5 32t-60.5 23.5t-84 14.5t-100 5q-67 0 -118.5 -5t-88.5 -14.5t-59.5 -23.5t-33.5 -32zM555 477l-262 117l160 88l238 -136z" />
    <glyph glyph-name="eacute" unicode="&#xe9;" 
d="M547 -10q-100 0 -187 15.5t-152.5 45.5t-102 74.5t-36.5 101.5q0 58 32 105t91.5 80t143 51t185.5 18q98 0 173 -20t126.5 -55.5t78 -83t26.5 -103.5q0 -8 -1 -16.5t-3 -16.5h-710q9 -18 35.5 -33t69 -25.5t101.5 -16t134 -5.5q47 0 101 3t98.5 10t64.5 18l80 -77
q-34 -22 -90 -38t-123 -24t-135 -8zM211 293h574q-6 18 -29.5 32t-60.5 23.5t-84 14.5t-100 5q-67 0 -118.5 -5t-88.5 -14.5t-59.5 -23.5t-33.5 -32zM463 477l-136 69l238 136l160 -88z" />
    <glyph glyph-name="ecircumflex" unicode="&#xea;" 
d="M547 -10q-100 0 -187 15.5t-152.5 45.5t-102 74.5t-36.5 101.5q0 58 32 105t91.5 80t143 51t185.5 18q98 0 173 -20t126.5 -55.5t78 -83t26.5 -103.5q0 -8 -1 -16.5t-3 -16.5h-710q9 -18 35.5 -33t69 -25.5t101.5 -16t134 -5.5q47 0 101 3t98.5 10t64.5 18l80 -77
q-34 -22 -90 -38t-123 -24t-135 -8zM211 293h574q-6 18 -29.5 32t-60.5 23.5t-84 14.5t-100 5q-67 0 -118.5 -5t-88.5 -14.5t-59.5 -23.5t-33.5 -32zM289 497l-70 84l268 90h68l268 -90l-70 -84l-232 74z" />
    <glyph glyph-name="edieresis" unicode="&#xeb;" 
d="M547 -10q-100 0 -187 15.5t-152.5 45.5t-102 74.5t-36.5 101.5q0 58 32 105t91.5 80t143 51t185.5 18q98 0 173 -20t126.5 -55.5t78 -83t26.5 -103.5q0 -8 -1 -16.5t-3 -16.5h-710q9 -18 35.5 -33t69 -25.5t101.5 -16t134 -5.5q47 0 101 3t98.5 10t64.5 18l80 -77
q-34 -22 -90 -38t-123 -24t-135 -8zM211 293h574q-6 18 -29.5 32t-60.5 23.5t-84 14.5t-100 5q-67 0 -118.5 -5t-88.5 -14.5t-59.5 -23.5t-33.5 -32zM330 534q-31 0 -54 23t-23 55q0 31 22 54t55 23q32 0 55 -23t23 -55q0 -31 -23 -54t-55 -23zM708 534q-31 0 -54 23t-23 54
q0 32 22 55t55 23q32 0 55 -23t23 -55q0 -31 -23 -54t-55 -23z" />
    <glyph glyph-name="igrave" unicode="&#xec;" 
d="M175 0v124h259v223h-247v124h401v-347h239v-124h-652zM539 491l-262 117l160 88l238 -136z" />
    <glyph glyph-name="iacute" unicode="&#xed;" 
d="M175 0v124h259v223h-247v124h401v-347h239v-124h-652zM437 477l-136 69l238 136l160 -88z" />
    <glyph glyph-name="icircumflex" unicode="&#xee;" 
d="M175 0v124h259v223h-247v124h401v-347h239v-124h-652zM273 511l-70 84l268 90h68l268 -90l-70 -84l-232 74z" />
    <glyph glyph-name="idieresis" unicode="&#xef;" 
d="M175 0v124h259v223h-247v124h401v-347h239v-124h-652zM295 534q-31 0 -54 23t-23 55q0 31 22 54t55 23q32 0 55 -23t23 -55q0 -31 -23 -54t-55 -23zM673 534q-31 0 -54 23t-23 54q0 32 22 55t55 23q32 0 55 -23t23 -55q0 -31 -23 -54t-55 -23z" />
    <glyph glyph-name="eth" unicode="&#xf0;" 
d="M512 -12q-87 0 -166.5 16.5t-141.5 47.5t-98 74.5t-36 96.5q0 58 35.5 103t95 76.5t133.5 48t150 16.5q52 0 92.5 -3.5t71 -10.5t53.5 -16q-41 36 -74 53t-77 31l-232 -28l-28 102l133 13q-20 9 -39 16.5t-43.5 15.5t-62.5 16l222 15q32 -7 57.5 -16.5t52.5 -20.5l235 19
l30 -107l-117 -9q47 -27 80 -59.5t53.5 -69t29.5 -76t9 -79.5q0 -60 -28 -109t-82 -83.5t-131.5 -53.5t-176.5 -19zM512 112q59 0 108.5 8.5t86.5 24.5t57.5 38t20.5 49q0 24 -16 43.5t-43.5 34t-63.5 24.5t-76 15t-80 5q-58 0 -110.5 -8t-93.5 -23t-65 -38t-24 -53
q0 -27 22.5 -49t63 -38t95 -24.5t118.5 -8.5z" />
    <glyph glyph-name="ntilde" unicode="&#xf1;" 
d="M102 0v471h154v-86q27 34 76 55.5t116 32t146 9.5q96 0 165.5 -29t107 -83.5t37.5 -132.5v-237h-154v231q0 30 -20.5 57t-63.5 44.5t-112 17.5q-49 0 -101.5 -6t-97 -19.5t-72 -35.5t-27.5 -55v-234h-154zM795 712l77 -88q-35 -37 -80.5 -58.5t-105.5 -21.5
q-45 0 -79.5 8t-64 19t-58 19t-62.5 8t-69 -15t-58 -37l-77 87q29 31 75.5 55.5t124.5 24.5q44 0 77 -8t61 -19t57 -19t65 -8q32 0 62.5 15.5t54.5 37.5z" />
    <glyph glyph-name="ograve" unicode="&#xf2;" 
d="M497 -8q-135 -2 -232 29.5t-149.5 87.5t-52.5 125q0 70 52.5 126t149.5 89t232 33t230 -33t144.5 -89t49.5 -126q0 -69 -49.5 -124t-144.5 -86.5t-230 -31.5zM497 116q80 0 138 14t89 40.5t31 64.5q0 39 -31 66.5t-89 42t-138 14.5t-140.5 -14.5t-94 -42t-33.5 -66.5
q0 -38 33.5 -64.5t94 -40.5t140.5 -14zM531 491l-262 117l160 88l238 -136z" />
    <glyph glyph-name="oacute" unicode="&#xf3;" 
d="M497 -8q-135 -2 -232 29.5t-149.5 87.5t-52.5 125q0 70 52.5 126t149.5 89t232 33t230 -33t144.5 -89t49.5 -126q0 -69 -49.5 -124t-144.5 -86.5t-230 -31.5zM497 116q80 0 138 14t89 40.5t31 64.5q0 39 -31 66.5t-89 42t-138 14.5t-140.5 -14.5t-94 -42t-33.5 -66.5
q0 -38 33.5 -64.5t94 -40.5t140.5 -14zM439 491l-136 69l238 136l160 -88z" />
    <glyph glyph-name="ocircumflex" unicode="&#xf4;" 
d="M497 -8q-135 -2 -232 29.5t-149.5 87.5t-52.5 125q0 70 52.5 126t149.5 89t232 33t230 -33t144.5 -89t49.5 -126q0 -69 -49.5 -124t-144.5 -86.5t-230 -31.5zM497 116q80 0 138 14t89 40.5t31 64.5q0 39 -31 66.5t-89 42t-138 14.5t-140.5 -14.5t-94 -42t-33.5 -66.5
q0 -38 33.5 -64.5t94 -40.5t140.5 -14zM265 511l-70 84l268 90h68l268 -90l-70 -84l-232 74z" />
    <glyph glyph-name="otilde" unicode="&#xf5;" 
d="M497 -8q-135 -2 -232 29.5t-149.5 87.5t-52.5 125q0 70 52.5 126t149.5 89t232 33t230 -33t144.5 -89t49.5 -126q0 -69 -49.5 -124t-144.5 -86.5t-230 -31.5zM497 116q80 0 138 14t89 40.5t31 64.5q0 39 -31 66.5t-89 42t-138 14.5t-140.5 -14.5t-94 -42t-33.5 -66.5
q0 -38 33.5 -64.5t94 -40.5t140.5 -14zM762 726l77 -88q-35 -37 -80.5 -58.5t-105.5 -21.5q-45 0 -79.5 8t-64 19t-58 19t-62.5 8t-69 -15t-58 -37l-77 87q29 31 75.5 55.5t124.5 24.5q44 0 77 -8t61 -19t57 -19t65 -8q32 0 62.5 15.5t54.5 37.5z" />
    <glyph glyph-name="odieresis" unicode="&#xf6;" 
d="M497 -8q-135 -2 -232 29.5t-149.5 87.5t-52.5 125q0 70 52.5 126t149.5 89t232 33t230 -33t144.5 -89t49.5 -126q0 -69 -49.5 -124t-144.5 -86.5t-230 -31.5zM497 116q80 0 138 14t89 40.5t31 64.5q0 39 -31 66.5t-89 42t-138 14.5t-140.5 -14.5t-94 -42t-33.5 -66.5
q0 -38 33.5 -64.5t94 -40.5t140.5 -14zM306 548q-31 0 -54 23t-23 55q0 31 22 54t55 23q32 0 55 -23t23 -55q0 -31 -23 -54t-55 -23zM684 548q-31 0 -54 23t-23 54q0 32 22 55t55 23q32 0 55 -23t23 -55q0 -31 -23 -54t-55 -23z" />
    <glyph glyph-name="divide" unicode="&#xf7;" 
d="M142 253v124h720v-124h-720zM511 401q-31 0 -53 22t-22 52q0 32 23 55t52 23q32 0 54 -24t22 -54t-22 -52t-54 -22zM512 73q-32 0 -54 22t-22 52q0 32 23 55t52 23q32 0 54 -24t22 -54t-22 -52t-53 -22z" />
    <glyph glyph-name="oslash" unicode="&#xf8;" 
d="M232 -70l-108 52l614 539l108 -52zM497 -8q-135 -2 -232 29.5t-149.5 87.5t-52.5 125q0 70 52.5 126t149.5 89t232 33t230 -33t144.5 -89t49.5 -126q0 -69 -49.5 -124t-144.5 -86.5t-230 -31.5zM497 116q80 0 138 14t89 40.5t31 64.5q0 39 -31 66.5t-89 42t-138 14.5
t-140.5 -14.5t-94 -42t-33.5 -66.5q0 -38 33.5 -64.5t94 -40.5t140.5 -14z" />
    <glyph glyph-name="ugrave" unicode="&#xf9;" 
d="M439 -11q-87 0 -147.5 16t-99.5 42.5t-60.5 58t-30 63t-8.5 57.5l2 245h154v-232q0 -24 11.5 -46.5t37 -40.5t69.5 -28.5t108 -10.5q60 0 108.5 6.5t83 20.5t53.5 36.5t19 55.5v239h154v-400q0 -18 2.5 -35.5t17.5 -35.5h-142q-8 8 -12.5 16.5t-6 19t-1.5 24.5
q-22 -19 -56 -32.5t-76.5 -22t-88.5 -12.5t-91 -4zM534 477l-262 117l160 88l238 -136z" />
    <glyph glyph-name="uacute" unicode="&#xfa;" 
d="M439 -11q-87 0 -147.5 16t-99.5 42.5t-60.5 58t-30 63t-8.5 57.5l2 245h154v-232q0 -24 11.5 -46.5t37 -40.5t69.5 -28.5t108 -10.5q60 0 108.5 6.5t83 20.5t53.5 36.5t19 55.5v239h154v-400q0 -18 2.5 -35.5t17.5 -35.5h-142q-8 8 -12.5 16.5t-6 19t-1.5 24.5
q-22 -19 -56 -32.5t-76.5 -22t-88.5 -12.5t-91 -4zM442 477l-136 69l238 136l160 -88z" />
    <glyph glyph-name="ucircumflex" unicode="&#xfb;" 
d="M439 -11q-87 0 -147.5 16t-99.5 42.5t-60.5 58t-30 63t-8.5 57.5l2 245h154v-232q0 -24 11.5 -46.5t37 -40.5t69.5 -28.5t108 -10.5q60 0 108.5 6.5t83 20.5t53.5 36.5t19 55.5v239h154v-400q0 -18 2.5 -35.5t17.5 -35.5h-142q-8 8 -12.5 16.5t-6 19t-1.5 24.5
q-22 -19 -56 -32.5t-76.5 -22t-88.5 -12.5t-91 -4zM268 497l-70 84l268 90h68l268 -90l-70 -84l-232 74z" />
    <glyph glyph-name="udieresis" unicode="&#xfc;" 
d="M439 -11q-87 0 -147.5 16t-99.5 42.5t-60.5 58t-30 63t-8.5 57.5l2 245h154v-232q0 -24 11.5 -46.5t37 -40.5t69.5 -28.5t108 -10.5q60 0 108.5 6.5t83 20.5t53.5 36.5t19 55.5v239h154v-400q0 -18 2.5 -35.5t17.5 -35.5h-142q-8 8 -12.5 16.5t-6 19t-1.5 24.5
q-22 -19 -56 -32.5t-76.5 -22t-88.5 -12.5t-91 -4zM309 534q-31 0 -54 23t-23 55q0 31 22 54t55 23q32 0 55 -23t23 -55q0 -31 -23 -54t-55 -23zM687 534q-31 0 -54 23t-23 54q0 32 22 55t55 23q32 0 55 -23t23 -55q0 -31 -23 -54t-55 -23z" />
    <glyph glyph-name="yacute" unicode="&#xfd;" 
d="M299 -174q-72 0 -131 14.5t-100 42.5l68 113l6 9l6 -4q2 -8 7.5 -13.5t19.5 -13.5q27 -13 61 -18.5t76 -5.5q49 0 82 9.5t57 29t44 48.5l164 238q31 45 58.5 97.5t37.5 98.5h164q-13 -46 -44 -100t-64 -101l-228 -322q-48 -67 -117 -94.5t-167 -27.5v0zM85 471h206
l299 -381l-85 -125zM461 491l-136 69l238 136l160 -88z" />
    <glyph glyph-name="thorn" unicode="&#xfe;" 
d="M78 665h152h10v-7q-6 -6 -7.5 -13t-1.5 -24v-224q26 27 74.5 45.5t113 28.5t138.5 10q76 0 147 -14.5t128 -44t90.5 -76t33.5 -109.5q0 -64 -35 -111t-93.5 -77.5t-130 -45.5t-144.5 -15q-80 0 -143 9t-107.5 26.5t-70.5 41.5v-232h-154v832zM529 112q64 0 114 7.5t85 22
t53.5 38t18.5 54.5q0 40 -30.5 66.5t-86.5 41t-132 15.5q-67 2 -125 -4.5t-102 -21t-69 -38t-25 -55.5q0 -31 15 -53.5t42 -36.5t64.5 -22t82.5 -11t95 -3v0z" />
    <glyph glyph-name="ydieresis" unicode="&#xff;" 
d="M299 -174q-72 0 -131 14.5t-100 42.5l68 113l6 9l6 -4q2 -8 7.5 -13.5t19.5 -13.5q27 -13 61 -18.5t76 -5.5q49 0 82 9.5t57 29t44 48.5l164 238q31 45 58.5 97.5t37.5 98.5h164q-13 -46 -44 -100t-64 -101l-228 -322q-48 -67 -117 -94.5t-167 -27.5v0zM85 471h206
l299 -381l-85 -125zM328 548q-31 0 -54 23t-23 55q0 31 22 54t55 23q32 0 55 -23t23 -55q0 -31 -23 -54t-55 -23zM706 548q-31 0 -54 23t-23 54q0 32 22 55t55 23q32 0 55 -23t23 -55q0 -31 -23 -54t-55 -23z" />
    <glyph glyph-name="Amacron" unicode="&#x100;" 
d="M762 153h-532l60 112h428zM498 424l-298 -424h-178l450 634h56l450 -634h-184zM196 723v99h594v-99h-594z" />
    <glyph glyph-name="amacron" unicode="&#x101;" 
d="M425 -11q-166 0 -253 33t-87 106q0 39 26.5 70.5t83 53.5t147 33.5t219.5 11.5q33 0 73 -2.5t82.5 -6.5t84.5 -7l-3 -101q-36 3 -75.5 4t-78 1h-71.5q-97 0 -163 -4t-106 -11t-57.5 -15.5t-17.5 -18.5q0 -8 10.5 -14.5t35 -11t64.5 -7t99 -2.5q78 0 137.5 5.5t100.5 19.5
t61.5 40t20.5 66q0 58 -28 87.5t-82.5 40t-135.5 10.5q-103 0 -172.5 -14t-122.5 -38l-82 85q65 32 154 55.5t223 23.5q87 0 159 -9.5t124 -35t80.5 -72.5t28.5 -122v-243h-152v50q-31 -15 -70.5 -26.5t-84 -19t-88.5 -11.5t-84 -4zM208 571v99h594v-99h-594z" />
    <glyph glyph-name="Abreve" unicode="&#x102;" 
d="M762 153h-532l60 112h428zM498 424l-298 -424h-178l450 634h56l450 -634h-184zM712 797l66 -68q-51 -39 -125.5 -64.5t-152.5 -25.5t-152.5 27t-125.5 74l66 68q44 -40 98 -61.5t114 -21.5q40 0 77.5 7t71.5 23t63 42z" />
    <glyph glyph-name="abreve" unicode="&#x103;" 
d="M425 -11q-166 0 -253 33t-87 106q0 39 26.5 70.5t83 53.5t147 33.5t219.5 11.5q33 0 73 -2.5t82.5 -6.5t84.5 -7l-3 -101q-36 3 -75.5 4t-78 1h-71.5q-97 0 -163 -4t-106 -11t-57.5 -15.5t-17.5 -18.5q0 -8 10.5 -14.5t35 -11t64.5 -7t99 -2.5q78 0 137.5 5.5t100.5 19.5
t61.5 40t20.5 66q0 58 -28 87.5t-82.5 40t-135.5 10.5q-103 0 -172.5 -14t-122.5 -38l-82 85q65 32 154 55.5t223 23.5q87 0 159 -9.5t124 -35t80.5 -72.5t28.5 -122v-243h-152v50q-31 -15 -70.5 -26.5t-84 -19t-88.5 -11.5t-84 -4zM724 678l66 -68q-51 -39 -125.5 -64.5
t-152.5 -25.5t-152.5 27t-125.5 74l66 68q44 -40 98 -61.5t114 -21.5q40 0 77.5 7t71.5 23t63 42z" />
    <glyph glyph-name="Aogonek" unicode="&#x104;" 
d="M762 153h-532l60 112h428zM498 424l-298 -424h-178l450 634h56l450 -634h-184zM877 -133l-19 -94q-79 4 -128.5 18t-72.5 35.5t-23 46.5q0 27 30.5 54t85.5 54t126 53l98 -34q-52 -18 -95 -35t-68 -33.5t-25 -34.5q0 -15 28.5 -21.5t62.5 -8.5z" />
    <glyph glyph-name="aogonek" unicode="&#x105;" 
d="M425 -11q-166 0 -253 33t-87 106q0 39 26.5 70.5t83 53.5t147 33.5t219.5 11.5q33 0 73 -2.5t82.5 -6.5t84.5 -7l-3 -101q-36 3 -75.5 4t-78 1h-71.5q-97 0 -163 -4t-106 -11t-57.5 -15.5t-17.5 -18.5q0 -8 10.5 -14.5t35 -11t64.5 -7t99 -2.5q78 0 137.5 5.5t100.5 19.5
t61.5 40t20.5 66q0 58 -28 87.5t-82.5 40t-135.5 10.5q-103 0 -172.5 -14t-122.5 -38l-82 85q65 32 154 55.5t223 23.5q87 0 159 -9.5t124 -35t80.5 -72.5t28.5 -122v-243h-152v50q-31 -15 -70.5 -26.5t-84 -19t-88.5 -11.5t-84 -4zM761 -133l-19 -94q-79 4 -128.5 18
t-72.5 35.5t-23 46.5q0 27 30.5 54t85.5 54t126 53l98 -34q-52 -18 -95 -35t-68 -33.5t-25 -34.5q0 -15 28.5 -21.5t62.5 -8.5z" />
    <glyph glyph-name="Cacute" unicode="&#x106;" 
d="M569 -10q-106 0 -195.5 21t-155 62t-101.5 100t-36 135q0 71 28 124t76.5 90.5t110 60.5t130 34t135.5 11q135 0 231.5 -29.5t144.5 -85.5l-78 -92l-7 -8l-5 5q-1 8 -5.5 13.5t-18.5 15.5q-47 31 -115 43.5t-151 12.5q-67 0 -125.5 -11.5t-103 -35.5t-69 -59.5
t-24.5 -83.5t24 -85t68 -62t104 -38t132 -13q50 0 105.5 7.5t103.5 23.5t76 39l71 -102q-60 -50 -144 -71.5t-206 -21.5v0zM391 636l-33 105l321 86l43 -133z" />
    <glyph glyph-name="cacute" unicode="&#x107;" 
d="M569 -11q-100 0 -186 17.5t-151 50.5t-101.5 78.5t-36.5 100.5q0 61 36.5 107t101 77t150.5 46.5t185 15.5q111 0 201 -21t145 -61l-74 -107l-6 -8l-6 4q-1 8 -7 13t-20 13q-49 24 -112 33.5t-137 9.5q-58 0 -110 -7t-92.5 -21.5t-63.5 -36.5t-23 -52q0 -28 23 -51.5
t65 -40.5t99.5 -26.5t126.5 -9.5q46 0 93.5 5.5t90 16.5t71.5 27l69 -108q-67 -37 -151 -51t-180 -14v0zM513 493l-136 69l238 136l160 -88z" />
    <glyph glyph-name="Ccircumflex" unicode="&#x108;" 
d="M569 -10q-106 0 -195.5 21t-155 62t-101.5 100t-36 135q0 71 28 124t76.5 90.5t110 60.5t130 34t135.5 11q135 0 231.5 -29.5t144.5 -85.5l-78 -92l-7 -8l-5 5q-1 8 -5.5 13.5t-18.5 15.5q-47 31 -115 43.5t-151 12.5q-67 0 -125.5 -11.5t-103 -35.5t-69 -59.5
t-24.5 -83.5t24 -85t68 -62t104 -38t132 -13q50 0 105.5 7.5t103.5 23.5t76 39l71 -102q-60 -50 -144 -71.5t-206 -21.5v0zM223 635l-46 81l326 90h74l304 -91l-46 -81l-296 64z" />
    <glyph glyph-name="ccircumflex" unicode="&#x109;" 
d="M569 -11q-100 0 -186 17.5t-151 50.5t-101.5 78.5t-36.5 100.5q0 61 36.5 107t101 77t150.5 46.5t185 15.5q111 0 201 -21t145 -61l-74 -107l-6 -8l-6 4q-1 8 -7 13t-20 13q-49 24 -112 33.5t-137 9.5q-58 0 -110 -7t-92.5 -21.5t-63.5 -36.5t-23 -52q0 -28 23 -51.5
t65 -40.5t99.5 -26.5t126.5 -9.5q46 0 93.5 5.5t90 16.5t71.5 27l69 -108q-67 -37 -151 -51t-180 -14v0zM339 513l-70 84l268 90h68l268 -90l-70 -84l-232 74z" />
    <glyph glyph-name="Cdotaccent" unicode="&#x10a;" 
d="M569 -10q-106 0 -195.5 21t-155 62t-101.5 100t-36 135q0 71 28 124t76.5 90.5t110 60.5t130 34t135.5 11q135 0 231.5 -29.5t144.5 -85.5l-78 -92l-7 -8l-5 5q-1 8 -5.5 13.5t-18.5 15.5q-47 31 -115 43.5t-151 12.5q-67 0 -125.5 -11.5t-103 -35.5t-69 -59.5
t-24.5 -83.5t24 -85t68 -62t104 -38t132 -13q50 0 105.5 7.5t103.5 23.5t76 39l71 -102q-60 -50 -144 -71.5t-206 -21.5v0zM537 667q-36 0 -61.5 25.5t-25.5 61.5q0 37 25 62.5t62 25.5q35 0 61.5 -26.5t26.5 -61.5q0 -36 -26.5 -61.5t-61.5 -25.5z" />
    <glyph glyph-name="cdotaccent" unicode="&#x10b;" 
d="M569 -11q-100 0 -186 17.5t-151 50.5t-101.5 78.5t-36.5 100.5q0 61 36.5 107t101 77t150.5 46.5t185 15.5q111 0 201 -21t145 -61l-74 -107l-6 -8l-6 4q-1 8 -7 13t-20 13q-49 24 -112 33.5t-137 9.5q-58 0 -110 -7t-92.5 -21.5t-63.5 -36.5t-23 -52q0 -28 23 -51.5
t65 -40.5t99.5 -26.5t126.5 -9.5q46 0 93.5 5.5t90 16.5t71.5 27l69 -108q-67 -37 -151 -51t-180 -14v0zM570 533q-36 0 -61.5 25.5t-25.5 61.5q0 37 25 62.5t62 25.5q35 0 61.5 -26.5t26.5 -61.5q0 -36 -26.5 -61.5t-61.5 -25.5z" />
    <glyph glyph-name="Ccaron" unicode="&#x10c;" 
d="M569 -10q-106 0 -195.5 21t-155 62t-101.5 100t-36 135q0 71 28 124t76.5 90.5t110 60.5t130 34t135.5 11q135 0 231.5 -29.5t144.5 -85.5l-78 -92l-7 -8l-5 5q-1 8 -5.5 13.5t-18.5 15.5q-47 31 -115 43.5t-151 12.5q-67 0 -125.5 -11.5t-103 -35.5t-69 -59.5
t-24.5 -83.5t24 -85t68 -62t104 -38t132 -13q50 0 105.5 7.5t103.5 23.5t76 39l71 -102q-60 -50 -144 -71.5t-206 -21.5v0zM843 816l46 -81l-326 -90h-74l-304 91l46 81l296 -64z" />
    <glyph glyph-name="ccaron" unicode="&#x10d;" 
d="M569 -11q-100 0 -186 17.5t-151 50.5t-101.5 78.5t-36.5 100.5q0 61 36.5 107t101 77t150.5 46.5t185 15.5q111 0 201 -21t145 -61l-74 -107l-6 -8l-6 4q-1 8 -7 13t-20 13q-49 24 -112 33.5t-137 9.5q-58 0 -110 -7t-92.5 -21.5t-63.5 -36.5t-23 -52q0 -28 23 -51.5
t65 -40.5t99.5 -26.5t126.5 -9.5q46 0 93.5 5.5t90 16.5t71.5 27l69 -108q-67 -37 -151 -51t-180 -14v0zM337 704l232 -74l232 74l70 -84l-268 -90h-68l-268 90z" />
    <glyph glyph-name="Dcaron" unicode="&#x10e;" 
d="M88 -1v624h310q107 0 182 -11t127.5 -31t93.5 -48t72.5 -61.5t49 -74t17.5 -89.5q-3 -73 -37.5 -130.5t-103 -97t-174 -60.5t-251.5 -21h-286zM242 123h126q151 0 243.5 22t134.5 63t42 96q0 58 -41 102t-129 68.5t-228 24.5h-148v-376zM690 816l46 -81l-326 -90h-74
l-304 91l46 81l296 -64z" />
    <glyph glyph-name="dcaron" unicode="&#x10f;" 
d="M361 -11q-72 2 -131.5 18.5t-102.5 47t-66.5 76.5t-23.5 106q0 62 25.5 108.5t70.5 77t104.5 45.5t127.5 15q82 0 136.5 -17t78.5 -48v251h154h10v-7q-6 -6 -7.5 -13t-1.5 -24v-561q0 -16 2.5 -31.5t11.5 -32.5h-159l-5.5 16.5t-4 16t-1.5 19.5q-16 -20 -51 -34.5
t-79 -22t-88 -6.5v0zM384 112q67 0 110 13t64.5 40.5t21.5 70.5q0 45 -24 72.5t-69.5 40t-109.5 12.5q-45 0 -80 -8t-58.5 -23.5t-36 -39.5t-12.5 -56q0 -30 13 -53t38 -38t61 -23t82 -8v0zM877 678q43 0 71.5 -20t28.5 -57q0 -33 -19.5 -63t-52 -56t-72.5 -49l-75 66
q20 12 38 22t29.5 21t11.5 25q0 10 -13 15t-26 12.5t-13 24.5q0 28 27.5 43.5t64.5 15.5z" />
    <glyph glyph-name="Dcroat" unicode="&#x110;" 
d="M146 -1v271h-96v120h96v233h290q93 0 159 -9t112.5 -25t78 -36t55.5 -42q18 -16 42 -43.5t41.5 -66.5t17.5 -92q0 -72 -36.5 -129t-105.5 -97.5t-167.5 -62t-222.5 -21.5h-264zM298 118h108q118 0 204 21.5t133 63.5t47 103q0 68 -41.5 111.5t-122 64.5t-198.5 21h-130
v-113h198v-120h-198v-152z" />
    <glyph glyph-name="dcroat" unicode="&#x111;" 
d="M457 -10q-91 3 -165.5 19.5t-129 47t-84 75.5t-29.5 104q0 65 34 111.5t92 76.5t133.5 44t157.5 14q80 0 138.5 -11.5t98 -31t58.5 -42.5v268h153h10v-7q-6 -6 -7.5 -13t-1.5 -24v-550q0 -18 3 -35.5t13 -35.5h-162l-6.5 19.5t-5.5 22t-2 23.5q-18 -22 -65 -39.5
t-108.5 -27.5t-124.5 -8v0zM479 114q72 0 125.5 8t88 23.5t51.5 38t17 52.5q0 41 -35.5 68t-101 40.5t-157.5 13.5q-63 0 -112 -6.5t-83 -21.5t-51.5 -38t-17.5 -56q0 -40 31 -67.5t92.5 -41t152.5 -13.5v0zM435 488v121h558v-121h-558z" />
    <glyph glyph-name="Emacron" unicode="&#x112;" 
d="M88 0v624h824v-120h-670v-119h560v-120h-560v-145h664v-120h-818zM236 723v99h594v-99h-594z" />
    <glyph glyph-name="emacron" unicode="&#x113;" 
d="M547 -10q-100 0 -187 15.5t-152.5 45.5t-102 74.5t-36.5 101.5q0 58 32 105t91.5 80t143 51t185.5 18q98 0 173 -20t126.5 -55.5t78 -83t26.5 -103.5q0 -8 -1 -16.5t-3 -16.5h-710q9 -18 35.5 -33t69 -25.5t101.5 -16t134 -5.5q47 0 101 3t98.5 10t64.5 18l80 -77
q-34 -22 -90 -38t-123 -24t-135 -8zM211 293h574q-6 18 -29.5 32t-60.5 23.5t-84 14.5t-100 5q-67 0 -118.5 -5t-88.5 -14.5t-59.5 -23.5t-33.5 -32zM217 557v99h594v-99h-594z" />
    <glyph glyph-name="Ebreve" unicode="&#x114;" 
d="M88 0v624h824v-120h-670v-119h560v-120h-560v-145h664v-120h-818zM752 797l66 -68q-51 -39 -125.5 -64.5t-152.5 -25.5t-152.5 27t-125.5 74l66 68q44 -40 98 -61.5t114 -21.5q40 0 77.5 7t71.5 23t63 42z" />
    <glyph glyph-name="ebreve" unicode="&#x115;" 
d="M547 -10q-100 0 -187 15.5t-152.5 45.5t-102 74.5t-36.5 101.5q0 58 32 105t91.5 80t143 51t185.5 18q98 0 173 -20t126.5 -55.5t78 -83t26.5 -103.5q0 -8 -1 -16.5t-3 -16.5h-710q9 -18 35.5 -33t69 -25.5t101.5 -16t134 -5.5q47 0 101 3t98.5 10t64.5 18l80 -77
q-34 -22 -90 -38t-123 -24t-135 -8zM211 293h574q-6 18 -29.5 32t-60.5 23.5t-84 14.5t-100 5q-67 0 -118.5 -5t-88.5 -14.5t-59.5 -23.5t-33.5 -32zM733 664l66 -68q-51 -39 -125.5 -64.5t-152.5 -25.5t-152.5 27t-125.5 74l66 68q44 -40 98 -61.5t114 -21.5q40 0 77.5 7
t71.5 23t63 42z" />
    <glyph glyph-name="Edotaccent" unicode="&#x116;" 
d="M88 0v624h824v-120h-670v-119h560v-120h-560v-145h664v-120h-818zM538 667q-36 0 -61.5 25.5t-25.5 61.5q0 37 25 62.5t62 25.5q35 0 61.5 -26.5t26.5 -61.5q0 -36 -26.5 -61.5t-61.5 -25.5z" />
    <glyph glyph-name="edotaccent" unicode="&#x117;" 
d="M547 -10q-100 0 -187 15.5t-152.5 45.5t-102 74.5t-36.5 101.5q0 58 32 105t91.5 80t143 51t185.5 18q98 0 173 -20t126.5 -55.5t78 -83t26.5 -103.5q0 -8 -1 -16.5t-3 -16.5h-710q9 -18 35.5 -33t69 -25.5t101.5 -16t134 -5.5q47 0 101 3t98.5 10t64.5 18l80 -77
q-34 -22 -90 -38t-123 -24t-135 -8zM211 293h574q-6 18 -29.5 32t-60.5 23.5t-84 14.5t-100 5q-67 0 -118.5 -5t-88.5 -14.5t-59.5 -23.5t-33.5 -32zM520 517q-36 0 -61.5 25.5t-25.5 61.5q0 37 25 62.5t62 25.5q35 0 61.5 -26.5t26.5 -61.5q0 -36 -26.5 -61.5t-61.5 -25.5z
" />
    <glyph glyph-name="Eogonek" unicode="&#x118;" 
d="M88 0v624h824v-120h-670v-119h560v-120h-560v-145h664v-120h-818zM761 -133l-19 -94q-79 4 -128.5 18t-72.5 35.5t-23 46.5q0 27 30.5 54t85.5 54t126 53l98 -34q-52 -18 -95 -35t-68 -33.5t-25 -34.5q0 -15 28.5 -21.5t62.5 -8.5z" />
    <glyph glyph-name="eogonek" unicode="&#x119;" 
d="M547 -10q-100 0 -187 15.5t-152.5 45.5t-102 74.5t-36.5 101.5q0 58 32 105t91.5 80t143 51t185.5 18q98 0 173 -20t126.5 -55.5t78 -83t26.5 -103.5q0 -8 -1 -16.5t-3 -16.5h-710q9 -18 35.5 -33t69 -25.5t101.5 -16t134 -5.5q47 0 101 3t98.5 10t64.5 18l80 -77
q-34 -22 -90 -38t-123 -24t-135 -8zM211 293h574q-6 18 -29.5 32t-60.5 23.5t-84 14.5t-100 5q-67 0 -118.5 -5t-88.5 -14.5t-59.5 -23.5t-33.5 -32zM597 -133l-19 -94q-79 4 -128.5 18t-72.5 35.5t-23 46.5q0 27 30.5 54t85.5 54t126 53l98 -34q-52 -18 -95 -35t-68 -33.5
t-25 -34.5q0 -15 28.5 -21.5t62.5 -8.5z" />
    <glyph glyph-name="Ecaron" unicode="&#x11a;" 
d="M88 0v624h824v-120h-670v-119h560v-120h-560v-145h664v-120h-818zM844 816l46 -81l-326 -90h-74l-304 91l46 81l296 -64z" />
    <glyph glyph-name="ecaron" unicode="&#x11b;" 
d="M547 -10q-100 0 -187 15.5t-152.5 45.5t-102 74.5t-36.5 101.5q0 58 32 105t91.5 80t143 51t185.5 18q98 0 173 -20t126.5 -55.5t78 -83t26.5 -103.5q0 -8 -1 -16.5t-3 -16.5h-710q9 -18 35.5 -33t69 -25.5t101.5 -16t134 -5.5q47 0 101 3t98.5 10t64.5 18l80 -77
q-34 -22 -90 -38t-123 -24t-135 -8zM211 293h574q-6 18 -29.5 32t-60.5 23.5t-84 14.5t-100 5q-67 0 -118.5 -5t-88.5 -14.5t-59.5 -23.5t-33.5 -32zM287 688l232 -74l232 74l70 -84l-268 -90h-68l-268 90z" />
    <glyph glyph-name="Gcircumflex" unicode="&#x11c;" 
d="M544 -10q-149 0 -259.5 39t-171.5 110t-61 165q-2 81 30 137.5t86 93.5t119 58t130.5 29t120.5 8q74 0 147.5 -13.5t134.5 -36.5t96 -55l-78 -102l-6 -8l-6 4q-1 8 -6 13.5t-19 15.5q-32 20 -75 32.5t-91.5 18.5t-98.5 6q-54 0 -103.5 -6t-91 -19.5t-72.5 -35.5t-48 -53
t-17 -72q0 -48 23 -85.5t67.5 -64.5t107.5 -41t142 -14q27 0 56.5 2t58.5 6.5t57 12t52 17.5v65h-214v123h366v-285q-88 -32 -184.5 -48.5t-191.5 -16.5v0zM232 635l-46 81l326 90h74l304 -91l-46 -81l-296 64z" />
    <glyph glyph-name="gcircumflex" unicode="&#x11d;" 
d="M488 -172q-96 -1 -178 6t-143 22t-95 37.5t-34 52.5q0 32 23.5 52t63 33t87.5 23l132 -29q-42 -4 -78.5 -11t-59 -17t-22.5 -23q0 -10 15.5 -17.5t50.5 -13t94 -8t146 -2.5q91 0 153.5 4.5t94.5 13t32 21.5q0 10 -20.5 18t-73 13t-148.5 4q-75 -1 -138 2t-112 10.5
t-83.5 19t-52.5 28t-18 37.5q0 26 36.5 53t93.5 49l119 -27q-21 -5 -47.5 -11.5t-46 -15.5t-19.5 -21q0 -11 27.5 -16t90.5 -6t170 -1q105 0 176 -9.5t113 -27t60.5 -41t18.5 -52.5q0 -27 -22 -52.5t-71.5 -47t-131.5 -35t-203 -15.5zM446 168q-114 0 -192.5 22.5t-119 58.5
t-40.5 76q0 44 40.5 79.5t119 56.5t192.5 21q110 0 189 -15.5t121.5 -50t41.5 -91.5q0 -51 -42.5 -86t-121 -53t-188.5 -18zM446 273q66 0 114 5t73.5 17t25.5 31q0 20 -25.5 31t-73.5 16t-114 5q-56 0 -104.5 -5t-78.5 -16t-30 -31q0 -19 31 -31t79.5 -17t102.5 -5z
M739 342l-73 74q59 29 121 42.5t149 10.5l24 -84q-66 3 -122 -6t-99 -37zM244 497l-70 84l268 90h68l268 -90l-70 -84l-232 74z" />
    <glyph glyph-name="Gbreve" unicode="&#x11e;" 
d="M544 -10q-149 0 -259.5 39t-171.5 110t-61 165q-2 81 30 137.5t86 93.5t119 58t130.5 29t120.5 8q74 0 147.5 -13.5t134.5 -36.5t96 -55l-78 -102l-6 -8l-6 4q-1 8 -6 13.5t-19 15.5q-32 20 -75 32.5t-91.5 18.5t-98.5 6q-54 0 -103.5 -6t-91 -19.5t-72.5 -35.5t-48 -53
t-17 -72q0 -48 23 -85.5t67.5 -64.5t107.5 -41t142 -14q27 0 56.5 2t58.5 6.5t57 12t52 17.5v65h-214v123h366v-285q-88 -32 -184.5 -48.5t-191.5 -16.5v0zM760 797l66 -68q-51 -39 -125.5 -64.5t-152.5 -25.5t-152.5 27t-125.5 74l66 68q44 -40 98 -61.5t114 -21.5
q40 0 77.5 7t71.5 23t63 42z" />
    <glyph glyph-name="gbreve" unicode="&#x11f;" 
d="M488 -172q-96 -1 -178 6t-143 22t-95 37.5t-34 52.5q0 32 23.5 52t63 33t87.5 23l132 -29q-42 -4 -78.5 -11t-59 -17t-22.5 -23q0 -10 15.5 -17.5t50.5 -13t94 -8t146 -2.5q91 0 153.5 4.5t94.5 13t32 21.5q0 10 -20.5 18t-73 13t-148.5 4q-75 -1 -138 2t-112 10.5
t-83.5 19t-52.5 28t-18 37.5q0 26 36.5 53t93.5 49l119 -27q-21 -5 -47.5 -11.5t-46 -15.5t-19.5 -21q0 -11 27.5 -16t90.5 -6t170 -1q105 0 176 -9.5t113 -27t60.5 -41t18.5 -52.5q0 -27 -22 -52.5t-71.5 -47t-131.5 -35t-203 -15.5zM446 168q-114 0 -192.5 22.5t-119 58.5
t-40.5 76q0 44 40.5 79.5t119 56.5t192.5 21q110 0 189 -15.5t121.5 -50t41.5 -91.5q0 -51 -42.5 -86t-121 -53t-188.5 -18zM446 273q66 0 114 5t73.5 17t25.5 31q0 20 -25.5 31t-73.5 16t-114 5q-56 0 -104.5 -5t-78.5 -16t-30 -31q0 -19 31 -31t79.5 -17t102.5 -5z
M739 342l-73 74q59 29 121 42.5t149 10.5l24 -84q-66 3 -122 -6t-99 -37zM516 514q-72 0 -162 19.5t-188 67.5l156 93q45 -41 101.5 -56t104.5 -15q45 0 101 14t108 57l121 -92q-49 -29 -107.5 -48.5t-119 -29.5t-115.5 -10z" />
    <glyph glyph-name="Gdotaccent" unicode="&#x120;" 
d="M544 -10q-149 0 -259.5 39t-171.5 110t-61 165q-2 81 30 137.5t86 93.5t119 58t130.5 29t120.5 8q74 0 147.5 -13.5t134.5 -36.5t96 -55l-78 -102l-6 -8l-6 4q-1 8 -6 13.5t-19 15.5q-32 20 -75 32.5t-91.5 18.5t-98.5 6q-54 0 -103.5 -6t-91 -19.5t-72.5 -35.5t-48 -53
t-17 -72q0 -48 23 -85.5t67.5 -64.5t107.5 -41t142 -14q27 0 56.5 2t58.5 6.5t57 12t52 17.5v65h-214v123h366v-285q-88 -32 -184.5 -48.5t-191.5 -16.5v0zM546 667q-36 0 -61.5 25.5t-25.5 61.5q0 37 25 62.5t62 25.5q35 0 61.5 -26.5t26.5 -61.5q0 -36 -26.5 -61.5
t-61.5 -25.5z" />
    <glyph glyph-name="gdotaccent" unicode="&#x121;" 
d="M488 -172q-96 -1 -178 6t-143 22t-95 37.5t-34 52.5q0 32 23.5 52t63 33t87.5 23l132 -29q-42 -4 -78.5 -11t-59 -17t-22.5 -23q0 -10 15.5 -17.5t50.5 -13t94 -8t146 -2.5q91 0 153.5 4.5t94.5 13t32 21.5q0 10 -20.5 18t-73 13t-148.5 4q-75 -1 -138 2t-112 10.5
t-83.5 19t-52.5 28t-18 37.5q0 26 36.5 53t93.5 49l119 -27q-21 -5 -47.5 -11.5t-46 -15.5t-19.5 -21q0 -11 27.5 -16t90.5 -6t170 -1q105 0 176 -9.5t113 -27t60.5 -41t18.5 -52.5q0 -27 -22 -52.5t-71.5 -47t-131.5 -35t-203 -15.5zM446 168q-114 0 -192.5 22.5t-119 58.5
t-40.5 76q0 44 40.5 79.5t119 56.5t192.5 21q110 0 189 -15.5t121.5 -50t41.5 -91.5q0 -51 -42.5 -86t-121 -53t-188.5 -18zM446 273q66 0 114 5t73.5 17t25.5 31q0 20 -25.5 31t-73.5 16t-114 5q-56 0 -104.5 -5t-78.5 -16t-30 -31q0 -19 31 -31t79.5 -17t102.5 -5z
M739 342l-73 74q59 29 121 42.5t149 10.5l24 -84q-66 3 -122 -6t-99 -37zM475 517q-36 0 -61.5 25.5t-25.5 61.5q0 37 25 62.5t62 25.5q35 0 61.5 -26.5t26.5 -61.5q0 -36 -26.5 -61.5t-61.5 -25.5z" />
    <glyph glyph-name="uni0122" unicode="&#x122;" 
d="M544 -10q-149 0 -259.5 39t-171.5 110t-61 165q-2 81 30 137.5t86 93.5t119 58t130.5 29t120.5 8q74 0 147.5 -13.5t134.5 -36.5t96 -55l-78 -102l-6 -8l-6 4q-1 8 -6 13.5t-19 15.5q-32 20 -75 32.5t-91.5 18.5t-98.5 6q-54 0 -103.5 -6t-91 -19.5t-72.5 -35.5t-48 -53
t-17 -72q0 -48 23 -85.5t67.5 -64.5t107.5 -41t142 -14q27 0 56.5 2t58.5 6.5t57 12t52 17.5v65h-214v123h366v-285q-88 -32 -184.5 -48.5t-191.5 -16.5v0zM484 -275l-63 73q42 27 62.5 48.5t20.5 35.5q0 15 -10.5 24.5t-21 22t-10.5 34.5q0 29 26.5 53.5t66.5 24.5
q47 0 74.5 -22t27.5 -62q0 -34 -24.5 -77.5t-64 -84.5t-84.5 -70z" />
    <glyph glyph-name="uni0123" unicode="&#x123;" 
d="M488 -172q-96 -1 -178 6t-143 22t-95 37.5t-34 52.5q0 32 23.5 52t63 33t87.5 23l132 -29q-42 -4 -78.5 -11t-59 -17t-22.5 -23q0 -10 15.5 -17.5t50.5 -13t94 -8t146 -2.5q91 0 153.5 4.5t94.5 13t32 21.5q0 10 -20.5 18t-73 13t-148.5 4q-75 -1 -138 2t-112 10.5
t-83.5 19t-52.5 28t-18 37.5q0 26 36.5 53t93.5 49l119 -27q-21 -5 -47.5 -11.5t-46 -15.5t-19.5 -21q0 -11 27.5 -16t90.5 -6t170 -1q105 0 176 -9.5t113 -27t60.5 -41t18.5 -52.5q0 -27 -22 -52.5t-71.5 -47t-131.5 -35t-203 -15.5zM446 168q-114 0 -192.5 22.5t-119 58.5
t-40.5 76q0 44 40.5 79.5t119 56.5t192.5 21q110 0 189 -15.5t121.5 -50t41.5 -91.5q0 -51 -42.5 -86t-121 -53t-188.5 -18zM446 273q66 0 114 5t73.5 17t25.5 31q0 20 -25.5 31t-73.5 16t-114 5q-56 0 -104.5 -5t-78.5 -16t-30 -31q0 -19 31 -31t79.5 -17t102.5 -5z
M739 342l-73 74q59 29 121 42.5t149 10.5l24 -84q-66 3 -122 -6t-99 -37zM539 811l70 -81q-46 -31 -69 -54.5t-23 -39.5q0 -12 7 -21t16.5 -17.5t16.5 -20.5t7 -31q0 -32 -29.5 -59t-74.5 -27q-52 0 -82.5 24.5t-30.5 68.5q0 29 16 63.5t43 70t61.5 68t71.5 56.5z" />
    <glyph glyph-name="Hcircumflex" unicode="&#x124;" 
d="M56 623h152h10v-7q-6 -6 -7.5 -13t-1.5 -24v-192h563v236h153h10v-7q-6 -6 -7.5 -13t-1.5 -24v-579h-153v267h-564v-267h-153v623zM183 635l-46 81l326 90h74l304 -91l-46 -81l-296 64z" />
    <glyph glyph-name="hcircumflex" unicode="&#x125;" 
d="M106 665h153h10v-7q-6 -6 -7.5 -13t-1.5 -24v-236q36 35 80 56t103 30.5t140 9.5q95 0 168.5 -30t115 -85t41.5 -129v-237h-154v231q0 42 -26.5 68t-71.5 38.5t-103 12.5q-35 0 -75 -3.5t-78.5 -11.5t-70 -21.5t-50.5 -33t-19 -46.5v-234h-154v665zM-127 677l-46 81
l326 90h74l304 -91l-46 -81l-296 64z" />
    <glyph glyph-name="Hbar" unicode="&#x126;" 
d="M10 460v121h980v-121h-980zM56 623h152h10v-7q-6 -6 -7.5 -13t-1.5 -24v-192h563v236h153h10v-7q-6 -6 -7.5 -13t-1.5 -24v-579h-153v267h-564v-267h-153v623z" />
    <glyph glyph-name="hbar" unicode="&#x127;" 
d="M106 665h153h10v-7q-6 -6 -7.5 -13t-1.5 -24v-236q36 35 80 56t103 30.5t140 9.5q95 0 168.5 -30t115 -85t41.5 -129v-237h-154v231q0 42 -26.5 68t-71.5 38.5t-103 12.5q-35 0 -75 -3.5t-78.5 -11.5t-70 -21.5t-50.5 -33t-19 -46.5v-234h-154v665zM-80 488v121h558v-121
h-558z" />
    <glyph glyph-name="Itilde" unicode="&#x128;" 
d="M141 0v124h260v375h-246v124h648v-124h-249v-376h261v-123h-674zM742 878l77 -88q-35 -37 -80.5 -58.5t-105.5 -21.5q-45 0 -79.5 8t-64 19t-58 19t-62.5 8t-69 -15t-58 -37l-77 87q29 31 75.5 55.5t124.5 24.5q44 0 77 -8t61 -19t57 -19t65 -8q32 0 62.5 15.5t54.5 37.5
z" />
    <glyph glyph-name="itilde" unicode="&#x129;" 
d="M175 0v124h259v223h-247v124h401v-347h239v-124h-652zM713 708l65 -72q-30 -37 -69.5 -56t-85.5 -19q-37 0 -66 9t-53.5 20t-48.5 20t-52 9q-29 0 -58 -14.5t-48 -36.5l-65 71q24 31 65 53t102 22q37 0 64.5 -9t51 -20t47.5 -20t54 -9q26 0 52 15t45 37z" />
    <glyph glyph-name="Imacron" unicode="&#x12a;" 
d="M141 0v124h260v375h-246v124h648v-124h-249v-376h261v-123h-674zM173 723v99h594v-99h-594z" />
    <glyph glyph-name="imacron" unicode="&#x12b;" 
d="M175 0v124h259v223h-247v124h401v-347h239v-124h-652zM201 571v99h594v-99h-594z" />
    <glyph glyph-name="Ibreve" unicode="&#x12c;" 
d="M141 0v124h260v375h-246v124h648v-124h-249v-376h261v-123h-674zM689 797l66 -68q-51 -39 -125.5 -64.5t-152.5 -25.5t-152.5 27t-125.5 74l66 68q44 -40 98 -61.5t114 -21.5q40 0 77.5 7t71.5 23t63 42z" />
    <glyph glyph-name="ibreve" unicode="&#x12d;" 
d="M175 0v124h259v223h-247v124h401v-347h239v-124h-652zM717 678l66 -68q-51 -39 -125.5 -64.5t-152.5 -25.5t-152.5 27t-125.5 74l66 68q44 -40 98 -61.5t114 -21.5q40 0 77.5 7t71.5 23t63 42z" />
    <glyph glyph-name="Iogonek" unicode="&#x12e;" 
d="M141 0v124h260v375h-246v124h648v-124h-249v-376h261v-123h-674zM768 -133l-19 -94q-79 4 -128.5 18t-72.5 35.5t-23 46.5q0 27 30.5 54t85.5 54t126 53l98 -34q-52 -18 -95 -35t-68 -33.5t-25 -34.5q0 -15 28.5 -21.5t62.5 -8.5z" />
    <glyph glyph-name="iogonek" unicode="&#x12f;" 
d="M175 0v124h259v223h-247v124h401v-347h239v-124h-652zM504 531q-36 0 -61.5 25.5t-25.5 61.5q0 37 25 62.5t62 25.5q35 0 61.5 -26.5t26.5 -61.5q0 -36 -26.5 -61.5t-61.5 -25.5zM760 -133l-19 -94q-79 4 -128.5 18t-72.5 35.5t-23 46.5q0 27 30.5 54t85.5 54t126 53
l98 -34q-52 -18 -95 -35t-68 -33.5t-25 -34.5q0 -15 28.5 -21.5t62.5 -8.5z" />
    <glyph glyph-name="Idotaccent" unicode="&#x130;" 
d="M141 0v124h260v375h-246v124h648v-124h-249v-376h261v-123h-674zM475 667q-36 0 -61.5 25.5t-25.5 61.5q0 37 25 62.5t62 25.5q35 0 61.5 -26.5t26.5 -61.5q0 -36 -26.5 -61.5t-61.5 -25.5z" />
    <glyph glyph-name="dotlessi" unicode="&#x131;" 
d="M175 0v124h259v223h-247v124h401v-347h239v-124h-652z" />
    <glyph glyph-name="Jcircumflex" unicode="&#x134;" 
d="M382 -11q-88 0 -161.5 17.5t-132.5 51.5l64 113l4 9l7 -4q2 -7 7.5 -12t19.5 -13q44 -22 92 -32t100 -10q67 0 110 11t64 33t21 55v295h-243v120h590v-120h-195v-294q2 -60 -27.5 -102t-79.5 -68t-112.5 -38t-127.5 -12v0zM322 635l-46 81l326 90h74l304 -91l-46 -81
l-296 64z" />
    <glyph glyph-name="jcircumflex" unicode="&#x135;" 
d="M400 -174q-87 1 -163.5 20t-123.5 53l84 107l7 8l5 -4q1 -8 6 -14t18 -16q30 -19 68.5 -29.5t96.5 -10.5q60 0 105.5 10.5t71 36.5t25.5 71v289h-336v124h490v-409q0 -89 -45 -141t-124.5 -74t-184.5 -21v0zM436 511l-70 84l268 90h68l268 -90l-70 -84l-232 74z" />
    <glyph glyph-name="uni0136" unicode="&#x136;" 
d="M337 280l-99 -61v-219h-154v623h153h10v-7q-6 -6 -7.5 -13t-1.5 -24v-227l476 276q11 -1 35 -2t51 -1.5t49 -1t29 -0.5h52l-476 -277l508 -346l-198 -7zM424 -275l-63 73q42 27 62.5 48.5t20.5 35.5q0 15 -10.5 24.5t-21 22t-10.5 34.5q0 29 26.5 53.5t66.5 24.5
q47 0 74.5 -22t27.5 -62q0 -34 -24.5 -77.5t-64 -84.5t-84.5 -70z" />
    <glyph glyph-name="uni0137" unicode="&#x137;" 
d="M384 216l-108 -57v-159h-154v665h153h10v-7q-6 -6 -7.5 -13t-1.5 -24v-335l386 186q15 -1 41 -2t55.5 -1.5t54.5 -1t38 -0.5h43l-385 -193l443 -274l-221 -4zM446 -275l-63 73q42 27 62.5 48.5t20.5 35.5q0 15 -10.5 24.5t-21 22t-10.5 34.5q0 29 26.5 53.5t66.5 24.5
q47 0 74.5 -22t27.5 -62q0 -34 -24.5 -77.5t-64 -84.5t-84.5 -70z" />
    <glyph glyph-name="kgreenlandic" unicode="&#x138;" 
d="M384 216l-108 -57v-159h-154v471h153h10v-7q-6 -6 -7.5 -13t-1.5 -24v-141l386 186q15 -1 41 -2t55.5 -1.5t54.5 -1t38 -0.5h43l-385 -193l443 -274l-221 -4z" />
    <glyph glyph-name="Lacute" unicode="&#x139;" 
d="M102 623h162h10v-7q-6 -6 -7.5 -13t-1.5 -24v-459h643v-120h-806v623zM252 636l-33 105l321 86l43 -133z" />
    <glyph glyph-name="lacute" unicode="&#x13a;" 
d="M128 0v124h296v417h-284v124h438v-541h295v-124h-745zM352 678l-33 105l321 86l43 -133z" />
    <glyph glyph-name="uni013B" unicode="&#x13b;" 
d="M102 623h162h10v-7q-6 -6 -7.5 -13t-1.5 -24v-459h643v-120h-806v623zM452 -275l-63 73q42 27 62.5 48.5t20.5 35.5q0 15 -10.5 24.5t-21 22t-10.5 34.5q0 29 26.5 53.5t66.5 24.5q47 0 74.5 -22t27.5 -62q0 -34 -24.5 -77.5t-64 -84.5t-84.5 -70z" />
    <glyph glyph-name="uni013C" unicode="&#x13c;" 
d="M128 0v124h296v417h-284v124h438v-541h295v-124h-745zM452 -275l-63 73q42 27 62.5 48.5t20.5 35.5q0 15 -10.5 24.5t-21 22t-10.5 34.5q0 29 26.5 53.5t66.5 24.5q47 0 74.5 -22t27.5 -62q0 -34 -24.5 -77.5t-64 -84.5t-84.5 -70z" />
    <glyph glyph-name="Lcaron" unicode="&#x13d;" 
d="M681 382l-56 65q38 25 56 43.5t18 31.5q0 14 -9.5 22.5t-19 19t-9.5 30.5q0 26 23.5 47.5t59.5 21.5q42 0 66.5 -19.5t24.5 -54.5q0 -30 -22 -69t-57 -75.5t-75 -62.5zM102 623h162h10v-7q-6 -6 -7.5 -13t-1.5 -24v-459h643v-120h-806v623z" />
    <glyph glyph-name="lcaron" unicode="&#x13e;" 
d="M128 0v124h296v417h-284v124h438v-541h295v-124h-745zM804 427l-83 65q34 17 52.5 31.5t25.5 26t7 18.5q0 12 -8 18.5t-18 11t-18 12t-8 22.5q0 23 28.5 42t74.5 19q53 0 85 -24.5t32 -63.5q0 -23 -11.5 -50t-48 -59t-110.5 -69z" />
    <glyph glyph-name="Ldot" unicode="&#x13f;" 
d="M102 623h162h10v-7q-6 -6 -7.5 -13t-1.5 -24v-459h643v-120h-806v623zM603 237q-40 0 -69 28t-29 69q0 40 29 68.5t69 28.5t68.5 -28.5t28.5 -68.5t-28 -68.5t-69 -28.5z" />
    <glyph glyph-name="ldot" unicode="&#x140;" 
d="M98 0v124h278v417h-266v124h420v-541h338v-124h-770zM783 237q-40 0 -69 28t-29 69q0 40 29 68.5t69 28.5t68.5 -28.5t28.5 -68.5t-28 -68.5t-69 -28.5z" />
    <glyph glyph-name="Lslash" unicode="&#x141;" 
d="M142 0v218l-122 -17v108l122 18v296h159q2 0 3 -0.5t1 -1.5q0 -4 -4 -11.5t-6 -20.5v-239l349 54q17 2 30 5t20 5v-111l-399 -61v-123h617v-119h-770z" />
    <glyph glyph-name="lslash" unicode="&#x142;" 
d="M118 0v124h306v120l-200 -31v126l200 30v172h-294v124h448v-261l222 31v-125l-222 -35v-151h310v-124h-770z" />
    <glyph glyph-name="Nacute" unicode="&#x143;" 
d="M86 623h154l516 -430v430h151h10v-7q-6 -6 -7.5 -13t-1.5 -24v-579h-128l-542 452v-452h-152v623zM352 636l-33 105l321 86l43 -133z" />
    <glyph glyph-name="nacute" unicode="&#x144;" 
d="M102 0v471h154v-86q27 34 76 55.5t116 32t146 9.5q96 0 165.5 -29t107 -83.5t37.5 -132.5v-237h-154v231q0 30 -20.5 57t-63.5 44.5t-112 17.5q-49 0 -101.5 -6t-97 -19.5t-72 -35.5t-27.5 -55v-234h-154zM472 477l-136 69l238 136l160 -88z" />
    <glyph glyph-name="uni0145" unicode="&#x145;" 
d="M86 623h154l516 -430v430h151h10v-7q-6 -6 -7.5 -13t-1.5 -24v-579h-128l-542 452v-452h-152v623zM452 -275l-63 73q42 27 62.5 48.5t20.5 35.5q0 15 -10.5 24.5t-21 22t-10.5 34.5q0 29 26.5 53.5t66.5 24.5q47 0 74.5 -22t27.5 -62q0 -34 -24.5 -77.5t-64 -84.5
t-84.5 -70z" />
    <glyph glyph-name="uni0146" unicode="&#x146;" 
d="M102 0v471h154v-86q27 34 76 55.5t116 32t146 9.5q96 0 165.5 -29t107 -83.5t37.5 -132.5v-237h-154v231q0 30 -20.5 57t-63.5 44.5t-112 17.5q-49 0 -101.5 -6t-97 -19.5t-72 -35.5t-27.5 -55v-234h-154zM472 -275l-63 73q42 27 62.5 48.5t20.5 35.5q0 15 -10.5 24.5
t-21 22t-10.5 34.5q0 29 26.5 53.5t66.5 24.5q47 0 74.5 -22t27.5 -62q0 -34 -24.5 -77.5t-64 -84.5t-84.5 -70z" />
    <glyph glyph-name="Ncaron" unicode="&#x147;" 
d="M86 623h154l516 -430v430h151h10v-7q-6 -6 -7.5 -13t-1.5 -24v-579h-128l-542 452v-452h-152v623zM804 816l46 -81l-326 -90h-74l-304 91l46 81l296 -64z" />
    <glyph glyph-name="ncaron" unicode="&#x148;" 
d="M102 0v471h154v-86q27 34 76 55.5t116 32t146 9.5q96 0 165.5 -29t107 -83.5t37.5 -132.5v-237h-154v231q0 30 -20.5 57t-63.5 44.5t-112 17.5q-49 0 -101.5 -6t-97 -19.5t-72 -35.5t-27.5 -55v-234h-154zM296 688l232 -74l232 74l70 -84l-268 -90h-68l-268 90z" />
    <glyph glyph-name="Eng" unicode="&#x14a;" 
d="M742 623h170q0 -10 -4 -12.5t-4 -14.5v-596q0 -62 -40 -103t-110.5 -61.5t-163.5 -20.5q-46 0 -88.5 7t-81.5 22l52 111q10 -2 14 -6.5t13 -9t30.5 -8t66.5 -3.5q57 0 89 10.5t44.5 31.5t12.5 52l-500 430v-452h-152v623h154l498 -430v430z" />
    <glyph glyph-name="eng" unicode="&#x14b;" 
d="M524 -176q-52 0 -104.5 9.5t-89.5 28.5l45 121q10 1 14 -3t14.5 -9.5t38.5 -10t86 -4.5q65 0 115 10t78.5 39.5t28.5 89.5v138q0 32 -15 54.5t-43 36.5t-66.5 20t-85.5 6q-38 0 -77.5 -2.5t-76.5 -9.5t-66.5 -20t-46.5 -33.5t-17 -50.5v-234h-154v471h154v-86
q22 26 53.5 44.5t71.5 30t87 17t100 5.5q61 0 120.5 -13t108.5 -42t78 -76t29 -116v-139q0 -81 -33 -134t-88 -83t-122.5 -42.5t-136.5 -12.5z" />
    <glyph glyph-name="Omacron" unicode="&#x14c;" 
d="M500 -11q-138 0 -240.5 39.5t-159 111t-56.5 168.5q0 94 56.5 165.5t159 112.5t240.5 41t240.5 -41t159 -112.5t56.5 -165.5q0 -97 -56.5 -168.5t-159 -111t-240.5 -39.5zM500 113q100 0 167 22.5t101 66t34 106.5q0 59 -34 102.5t-101 68t-167 24.5t-167 -24.5t-101 -68
t-34 -102.5q0 -63 34 -106.5t101 -66t167 -22.5zM196 723v99h594v-99h-594z" />
    <glyph glyph-name="omacron" unicode="&#x14d;" 
d="M497 -8q-135 -2 -232 29.5t-149.5 87.5t-52.5 125q0 70 52.5 126t149.5 89t232 33t230 -33t144.5 -89t49.5 -126q0 -69 -49.5 -124t-144.5 -86.5t-230 -31.5zM497 116q80 0 138 14t89 40.5t31 64.5q0 39 -31 66.5t-89 42t-138 14.5t-140.5 -14.5t-94 -42t-33.5 -66.5
q0 -38 33.5 -64.5t94 -40.5t140.5 -14zM193 571v99h594v-99h-594z" />
    <glyph glyph-name="Obreve" unicode="&#x14e;" 
d="M500 -11q-138 0 -240.5 39.5t-159 111t-56.5 168.5q0 94 56.5 165.5t159 112.5t240.5 41t240.5 -41t159 -112.5t56.5 -165.5q0 -97 -56.5 -168.5t-159 -111t-240.5 -39.5zM500 113q100 0 167 22.5t101 66t34 106.5q0 59 -34 102.5t-101 68t-167 24.5t-167 -24.5t-101 -68
t-34 -102.5q0 -63 34 -106.5t101 -66t167 -22.5zM712 797l66 -68q-51 -39 -125.5 -64.5t-152.5 -25.5t-152.5 27t-125.5 74l66 68q44 -40 98 -61.5t114 -21.5q40 0 77.5 7t71.5 23t63 42z" />
    <glyph glyph-name="obreve" unicode="&#x14f;" 
d="M497 -8q-135 -2 -232 29.5t-149.5 87.5t-52.5 125q0 70 52.5 126t149.5 89t232 33t230 -33t144.5 -89t49.5 -126q0 -69 -49.5 -124t-144.5 -86.5t-230 -31.5zM497 116q80 0 138 14t89 40.5t31 64.5q0 39 -31 66.5t-89 42t-138 14.5t-140.5 -14.5t-94 -42t-33.5 -66.5
q0 -38 33.5 -64.5t94 -40.5t140.5 -14zM709 678l66 -68q-51 -39 -125.5 -64.5t-152.5 -25.5t-152.5 27t-125.5 74l66 68q44 -40 98 -61.5t114 -21.5q40 0 77.5 7t71.5 23t63 42z" />
    <glyph glyph-name="Ohungarumlaut" unicode="&#x150;" 
d="M500 -11q-138 0 -240.5 39.5t-159 111t-56.5 168.5q0 94 56.5 165.5t159 112.5t240.5 41t240.5 -41t159 -112.5t56.5 -165.5q0 -97 -56.5 -168.5t-159 -111t-240.5 -39.5zM500 113q100 0 167 22.5t101 66t34 106.5q0 59 -34 102.5t-101 68t-167 24.5t-167 -24.5t-101 -68
t-34 -102.5q0 -63 34 -106.5t101 -66t167 -22.5zM574 635l-67 87l282 124l75 -110zM218 635l-67 87l282 124l77 -110z" />
    <glyph glyph-name="ohungarumlaut" unicode="&#x151;" 
d="M497 -8q-135 -2 -232 29.5t-149.5 87.5t-52.5 125q0 70 52.5 126t149.5 89t232 33t230 -33t144.5 -89t49.5 -126q0 -69 -49.5 -124t-144.5 -86.5t-230 -31.5zM497 116q80 0 138 14t89 40.5t31 64.5q0 39 -31 66.5t-89 42t-138 14.5t-140.5 -14.5t-94 -42t-33.5 -66.5
q0 -38 33.5 -64.5t94 -40.5t140.5 -14zM641 536l-130 50l176 127l166 -62zM331 536l-130 50l176 127l166 -62z" />
    <glyph glyph-name="OE" unicode="&#x152;" 
d="M334 -7q-66 0 -123.5 20.5t-101 60.5t-67.5 100t-24 138q0 101 42.5 172.5t117 109.5t168.5 38q49 0 80 -8.5t67 -28.5v29h475v-121h-325v-118h273v-119h-273v-146h321v-120h-473v31q-34 -20 -72 -29t-85 -9zM358 113q44 0 75.5 12t57.5 40v290q-22 28 -56.5 44.5
t-82.5 16.5q-39 0 -72 -12.5t-58 -38t-38.5 -63.5t-13.5 -89q0 -62 22 -107t64 -69t102 -24z" />
    <glyph glyph-name="oe" unicode="&#x153;" 
d="M734 -12q-75 0 -133 12t-99 38q-41 -25 -95 -37t-110 -12q-49 0 -99 14t-91.5 42.5t-66.5 74t-25 108.5q0 78 41 129t108.5 75.5t147.5 24.5q60 0 109 -11t83 -34q39 23 93 34t115 11q84 0 145.5 -21.5t95 -64t33.5 -107.5v-78h-462q3 -38 26.5 -58t67.5 -27t108 -7
q62 0 116.5 10t88.5 29l48 -93q-52 -27 -116.5 -39.5t-128.5 -12.5zM318 97q20 0 37.5 2.5t30.5 8t20 12.5t7 16q0 2 -2.5 7.5t-5.5 15.5t-5 21.5t-3.5 26t-1.5 31.5q0 24 3.5 39.5t6.5 25t3 13.5q0 8 -7.5 14t-20.5 10.5t-30.5 6.5t-37.5 2q-47 0 -83 -10t-56.5 -35
t-20.5 -71q0 -44 16.5 -74.5t53 -46t96.5 -15.5zM526 283h340q-1 25 -17 42t-52 25.5t-97 8.5q-52 0 -90 -7.5t-59.5 -24.5t-24.5 -44z" />
    <glyph glyph-name="Racute" unicode="&#x154;" 
d="M102 0v623h458q108 0 185 -25t118 -67.5t41 -95.5q0 -60 -34.5 -98.5t-94.5 -58t-135 -23.5l298 -255h-186l-286 246h-211v-246h-153zM255 366h311q103 0 143.5 19.5t40.5 49.5q0 20 -18 35t-60 24t-116 9h-301v-137zM352 636l-33 105l321 86l43 -133z" />
    <glyph glyph-name="racute" unicode="&#x155;" 
d="M185 471h159l-6 -121l-18 15q12 24 43.5 45t77 37.5t98.5 25.5t106 9q93 0 163 -21t110 -53l-80 -92l-7 -8l-5 5q-1 8 -7 12t-21 11q-39 17 -83.5 23.5t-92.5 6.5q-50 0 -100 -7t-91 -24t-66 -45.5t-25 -71.5v-219h-155v472zM534 491l-136 69l238 136l160 -88z" />
    <glyph glyph-name="uni0156" unicode="&#x156;" 
d="M102 0v623h458q108 0 185 -25t118 -67.5t41 -95.5q0 -60 -34.5 -98.5t-94.5 -58t-135 -23.5l298 -255h-186l-286 246h-211v-246h-153zM255 366h311q103 0 143.5 19.5t40.5 49.5q0 20 -18 35t-60 24t-116 9h-301v-137zM452 -275l-63 73q42 27 62.5 48.5t20.5 35.5
q0 15 -10.5 24.5t-21 22t-10.5 34.5q0 29 26.5 53.5t66.5 24.5q47 0 74.5 -22t27.5 -62q0 -34 -24.5 -77.5t-64 -84.5t-84.5 -70z" />
    <glyph glyph-name="uni0157" unicode="&#x157;" 
d="M185 471h159l-6 -121l-18 15q12 24 43.5 45t77 37.5t98.5 25.5t106 9q93 0 163 -21t110 -53l-80 -92l-7 -8l-5 5q-1 8 -7 12t-21 11q-39 17 -83.5 23.5t-92.5 6.5q-50 0 -100 -7t-91 -24t-66 -45.5t-25 -71.5v-219h-155v472zM504 -275l-63 73q42 27 62.5 48.5t20.5 35.5
q0 15 -10.5 24.5t-21 22t-10.5 34.5q0 29 26.5 53.5t66.5 24.5q47 0 74.5 -22t27.5 -62q0 -34 -24.5 -77.5t-64 -84.5t-84.5 -70z" />
    <glyph glyph-name="Rcaron" unicode="&#x158;" 
d="M102 0v623h458q108 0 185 -25t118 -67.5t41 -95.5q0 -60 -34.5 -98.5t-94.5 -58t-135 -23.5l298 -255h-186l-286 246h-211v-246h-153zM255 366h311q103 0 143.5 19.5t40.5 49.5q0 20 -18 35t-60 24t-116 9h-301v-137zM804 816l46 -81l-326 -90h-74l-304 91l46 81l296 -64
z" />
    <glyph glyph-name="rcaron" unicode="&#x159;" 
d="M185 471h159l-6 -121l-18 15q12 24 43.5 45t77 37.5t98.5 25.5t106 9q93 0 163 -21t110 -53l-80 -92l-7 -8l-5 5q-1 8 -7 12t-21 11q-39 17 -83.5 23.5t-92.5 6.5q-50 0 -100 -7t-91 -24t-66 -45.5t-25 -71.5v-219h-155v472zM358 702l232 -74l232 74l70 -84l-268 -90h-68
l-268 90z" />
    <glyph glyph-name="Sacute" unicode="&#x15a;" 
d="M494 -10q-121 0 -223.5 20t-176.5 59l78 106l6 8l6 -4q2 -8 7.5 -12t20.5 -12q52 -23 127.5 -34t174.5 -11q56 0 102 4t80 11.5t52.5 19t18.5 25.5q0 11 -8.5 19t-28 16t-53.5 16.5t-84.5 19.5t-120.5 26q-131 26 -205 54t-103.5 64.5t-29.5 85.5q0 54 47.5 89.5t134 53
t204.5 17.5q68 0 134.5 -9t124.5 -26t101 -43l-67 -96l-6 -8l-6 4q-1 8 -7.5 11.5t-21.5 10.5q-53 21 -123.5 28.5t-150.5 7.5q-49 0 -88 -2.5t-66.5 -8.5t-41.5 -15.5t-14 -23.5q0 -8 8 -16t28 -16t55 -17.5t88 -21t129 -26.5q93 -19 155.5 -40.5t99.5 -45t53 -50.5t16 -58
q0 -50 -45.5 -91t-140 -65t-240.5 -24v0zM374 636l-33 105l321 86l43 -133z" />
    <glyph glyph-name="sacute" unicode="&#x15b;" 
d="M524 -10q-82 0 -154 7.5t-133.5 24t-114.5 42.5l88 97l7 8l5 -5q1 -8 7.5 -10.5t22.5 -8.5q50 -17 122.5 -27t153.5 -10q68 0 116.5 3.5t74.5 11t26 17.5q0 7 -7 12t-29 9t-67 8.5t-122 10.5q-132 10 -212.5 25t-117 44.5t-36.5 81.5q0 46 42.5 80t123 52.5t192.5 18.5
q55 0 105 -3.5t95 -12.5t86 -23t78 -35l-73 -86l-7 -8l-5 5q-1 8 -7.5 10.5t-22.5 8.5q-46 14 -109.5 20t-135.5 6q-94 0 -152 -6.5t-58 -20.5q0 -8 24 -13.5t83 -11t163 -14.5q115 -9 185 -28t102.5 -51t32.5 -82q0 -47 -42.5 -80t-125.5 -50t-204 -17v0zM453 477l-136 69
l238 136l160 -88z" />
    <glyph glyph-name="Scircumflex" unicode="&#x15c;" 
d="M494 -10q-121 0 -223.5 20t-176.5 59l78 106l6 8l6 -4q2 -8 7.5 -12t20.5 -12q52 -23 127.5 -34t174.5 -11q56 0 102 4t80 11.5t52.5 19t18.5 25.5q0 11 -8.5 19t-28 16t-53.5 16.5t-84.5 19.5t-120.5 26q-131 26 -205 54t-103.5 64.5t-29.5 85.5q0 54 47.5 89.5t134 53
t204.5 17.5q68 0 134.5 -9t124.5 -26t101 -43l-67 -96l-6 -8l-6 4q-1 8 -7.5 11.5t-21.5 10.5q-53 21 -123.5 28.5t-150.5 7.5q-49 0 -88 -2.5t-66.5 -8.5t-41.5 -15.5t-14 -23.5q0 -8 8 -16t28 -16t55 -17.5t88 -21t129 -26.5q93 -19 155.5 -40.5t99.5 -45t53 -50.5t16 -58
q0 -50 -45.5 -91t-140 -65t-240.5 -24v0zM206 635l-46 81l326 90h74l304 -91l-46 -81l-296 64z" />
    <glyph glyph-name="scircumflex" unicode="&#x15d;" 
d="M524 -10q-82 0 -154 7.5t-133.5 24t-114.5 42.5l88 97l7 8l5 -5q1 -8 7.5 -10.5t22.5 -8.5q50 -17 122.5 -27t153.5 -10q68 0 116.5 3.5t74.5 11t26 17.5q0 7 -7 12t-29 9t-67 8.5t-122 10.5q-132 10 -212.5 25t-117 44.5t-36.5 81.5q0 46 42.5 80t123 52.5t192.5 18.5
q55 0 105 -3.5t95 -12.5t86 -23t78 -35l-73 -86l-7 -8l-5 5q-1 8 -7.5 10.5t-22.5 8.5q-46 14 -109.5 20t-135.5 6q-94 0 -152 -6.5t-58 -20.5q0 -8 24 -13.5t83 -11t163 -14.5q115 -9 185 -28t102.5 -51t32.5 -82q0 -47 -42.5 -80t-125.5 -50t-204 -17v0zM268 511l-70 84
l268 90h68l268 -90l-70 -84l-232 74z" />
    <glyph glyph-name="Scedilla" unicode="&#x15e;" 
d="M494 -10q-121 0 -223.5 20t-176.5 59l78 106l6 8l6 -4q2 -8 7.5 -12t20.5 -12q52 -23 127.5 -34t174.5 -11q56 0 102 4t80 11.5t52.5 19t18.5 25.5q0 11 -8.5 19t-28 16t-53.5 16.5t-84.5 19.5t-120.5 26q-131 26 -205 54t-103.5 64.5t-29.5 85.5q0 54 47.5 89.5t134 53
t204.5 17.5q68 0 134.5 -9t124.5 -26t101 -43l-67 -96l-6 -8l-6 4q-1 8 -7.5 11.5t-21.5 10.5q-53 21 -123.5 28.5t-150.5 7.5q-49 0 -88 -2.5t-66.5 -8.5t-41.5 -15.5t-14 -23.5q0 -8 8 -16t28 -16t55 -17.5t88 -21t129 -26.5q93 -19 155.5 -40.5t99.5 -45t53 -50.5t16 -58
q0 -50 -45.5 -91t-140 -65t-240.5 -24v0zM488 -197q-52 0 -101.5 7.5t-96.5 23.5l42 68q38 -15 85.5 -20.5t96.5 -5.5q33 0 56.5 2.5t23.5 12.5q0 12 -25.5 15t-52.5 3h-80l18 91h128l-6 -31q54 -2 85.5 -14.5t45 -29.5t13.5 -34q0 -37 -56.5 -62.5t-175.5 -25.5z" />
    <glyph glyph-name="scedilla" unicode="&#x15f;" 
d="M524 -10q-82 0 -154 7.5t-133.5 24t-114.5 42.5l88 97l7 8l5 -5q1 -8 7.5 -10.5t22.5 -8.5q50 -17 122.5 -27t153.5 -10q68 0 116.5 3.5t74.5 11t26 17.5q0 7 -7 12t-29 9t-67 8.5t-122 10.5q-132 10 -212.5 25t-117 44.5t-36.5 81.5q0 46 42.5 80t123 52.5t192.5 18.5
q55 0 105 -3.5t95 -12.5t86 -23t78 -35l-73 -86l-7 -8l-5 5q-1 8 -7.5 10.5t-22.5 8.5q-46 14 -109.5 20t-135.5 6q-94 0 -152 -6.5t-58 -20.5q0 -8 24 -13.5t83 -11t163 -14.5q115 -9 185 -28t102.5 -51t32.5 -82q0 -47 -42.5 -80t-125.5 -50t-204 -17v0zM536 -197
q-52 0 -101.5 7.5t-96.5 23.5l42 68q38 -15 85.5 -20.5t96.5 -5.5q33 0 56.5 2.5t23.5 12.5q0 12 -25.5 15t-52.5 3h-80l18 91h128l-6 -31q54 -2 85.5 -14.5t45 -29.5t13.5 -34q0 -37 -56.5 -62.5t-175.5 -25.5z" />
    <glyph glyph-name="Scaron" unicode="&#x160;" 
d="M494 -10q-121 0 -223.5 20t-176.5 59l78 106l6 8l6 -4q2 -8 7.5 -12t20.5 -12q52 -23 127.5 -34t174.5 -11q56 0 102 4t80 11.5t52.5 19t18.5 25.5q0 11 -8.5 19t-28 16t-53.5 16.5t-84.5 19.5t-120.5 26q-131 26 -205 54t-103.5 64.5t-29.5 85.5q0 54 47.5 89.5t134 53
t204.5 17.5q68 0 134.5 -9t124.5 -26t101 -43l-67 -96l-6 -8l-6 4q-1 8 -7.5 11.5t-21.5 10.5q-53 21 -123.5 28.5t-150.5 7.5q-49 0 -88 -2.5t-66.5 -8.5t-41.5 -15.5t-14 -23.5q0 -8 8 -16t28 -16t55 -17.5t88 -21t129 -26.5q93 -19 155.5 -40.5t99.5 -45t53 -50.5t16 -58
q0 -50 -45.5 -91t-140 -65t-240.5 -24v0zM826 816l46 -81l-326 -90h-74l-304 91l46 81l296 -64z" />
    <glyph glyph-name="scaron" unicode="&#x161;" 
d="M524 -10q-82 0 -154 7.5t-133.5 24t-114.5 42.5l88 97l7 8l5 -5q1 -8 7.5 -10.5t22.5 -8.5q50 -17 122.5 -27t153.5 -10q68 0 116.5 3.5t74.5 11t26 17.5q0 7 -7 12t-29 9t-67 8.5t-122 10.5q-132 10 -212.5 25t-117 44.5t-36.5 81.5q0 46 42.5 80t123 52.5t192.5 18.5
q55 0 105 -3.5t95 -12.5t86 -23t78 -35l-73 -86l-7 -8l-5 5q-1 8 -7.5 10.5t-22.5 8.5q-46 14 -109.5 20t-135.5 6q-94 0 -152 -6.5t-58 -20.5q0 -8 24 -13.5t83 -11t163 -14.5q115 -9 185 -28t102.5 -51t32.5 -82q0 -47 -42.5 -80t-125.5 -50t-204 -17v0zM278 688l232 -74
l232 74l70 -84l-268 -90h-68l-268 90z" />
    <glyph glyph-name="uni0162" unicode="&#x162;" 
d="M410 0v504h-364v120h896v-120h-379v-504h-153zM494 -197q-52 0 -101.5 7.5t-96.5 23.5l42 68q38 -15 85.5 -20.5t96.5 -5.5q33 0 56.5 2.5t23.5 12.5q0 12 -25.5 15t-52.5 3h-80l18 91h128l-6 -31q54 -2 85.5 -14.5t45 -29.5t13.5 -34q0 -37 -56.5 -62.5t-175.5 -25.5z
" />
    <glyph glyph-name="uni0163" unicode="&#x163;" 
d="M580 -12q-88 0 -146 16t-89.5 48t-42.5 81t-6 115l24 326l161 9h10v-6q-5 -7 -9.5 -14t-6.5 -23l-17 -100l4 -32l-14 -165q-4 -50 8.5 -82t47 -47.5t95.5 -15.5q66 0 124.5 14t113.5 36l33 -106q-69 -25 -140.5 -39.5t-149.5 -14.5v0zM132 471h638v-110h-638v110z
M525 -197q-52 0 -101.5 7.5t-96.5 23.5l42 68q38 -15 85.5 -20.5t96.5 -5.5q33 0 56.5 2.5t23.5 12.5q0 12 -25.5 15t-52.5 3h-80l18 91h128l-6 -31q54 -2 85.5 -14.5t45 -29.5t13.5 -34q0 -37 -56.5 -62.5t-175.5 -25.5z" />
    <glyph glyph-name="Tcaron" unicode="&#x164;" 
d="M410 0v504h-364v120h896v-120h-379v-504h-153zM804 816l46 -81l-326 -90h-74l-304 91l46 81l296 -64z" />
    <glyph glyph-name="tcaron" unicode="&#x165;" 
d="M580 -12q-88 0 -146 16t-89.5 48t-42.5 81t-6 115l24 326l161 9h10v-6q-5 -7 -9.5 -14t-6.5 -23l-17 -100l4 -32l-14 -165q-4 -50 8.5 -82t47 -47.5t95.5 -15.5q66 0 124.5 14t113.5 36l33 -106q-69 -25 -140.5 -39.5t-149.5 -14.5v0zM132 471h638v-110h-638v110z
M824 462l-83 65q34 17 52.5 31.5t25.5 26t7 18.5q0 12 -8 18.5t-18 11t-18 12t-8 22.5q0 23 28.5 42t74.5 19q53 0 85 -24.5t32 -63.5q0 -23 -11.5 -50t-48 -59t-110.5 -69z" />
    <glyph glyph-name="Tbar" unicode="&#x166;" 
d="M410 0v504h-364v120h896v-120h-379v-504h-153zM148 251v121h669v-121h-669z" />
    <glyph glyph-name="tbar" unicode="&#x167;" 
d="M127 197v110h637v-110h-637zM580 -12q-88 0 -146 16t-89.5 48t-42.5 81t-6 115l24 326l161 9h10v-6q-5 -7 -9.5 -14t-6.5 -23l-17 -100l4 -32l-14 -165q-4 -50 8.5 -82t47 -47.5t95.5 -15.5q66 0 124.5 14t113.5 36l33 -106q-69 -25 -140.5 -39.5t-149.5 -14.5v0z
M132 471h638v-110h-638v110z" />
    <glyph glyph-name="Utilde" unicode="&#x168;" 
d="M502 -11q-199 0 -305.5 68t-106.5 198v368h152h10v-7q-6 -6 -7.5 -13t-1.5 -24v-325q0 -64 65.5 -104.5t195.5 -40.5q143 0 204 41t61 107v366h149v-365q0 -94 -52.5 -153.5t-146.5 -87.5t-217 -28v0zM773 806l77 -88q-35 -37 -80.5 -58.5t-105.5 -21.5q-45 0 -79.5 8
t-64 19t-58 19t-62.5 8t-69 -15t-58 -37l-77 87q29 31 75.5 55.5t124.5 24.5q44 0 77 -8t61 -19t57 -19t65 -8q32 0 62.5 15.5t54.5 37.5z" />
    <glyph glyph-name="utilde" unicode="&#x169;" 
d="M439 -11q-87 0 -147.5 16t-99.5 42.5t-60.5 58t-30 63t-8.5 57.5l2 245h154v-232q0 -24 11.5 -46.5t37 -40.5t69.5 -28.5t108 -10.5q60 0 108.5 6.5t83 20.5t53.5 36.5t19 55.5v239h154v-400q0 -18 2.5 -35.5t17.5 -35.5h-142q-8 8 -12.5 16.5t-6 19t-1.5 24.5
q-22 -19 -56 -32.5t-76.5 -22t-88.5 -12.5t-91 -4zM765 712l77 -88q-35 -37 -80.5 -58.5t-105.5 -21.5q-45 0 -79.5 8t-64 19t-58 19t-62.5 8t-69 -15t-58 -37l-77 87q29 31 75.5 55.5t124.5 24.5q44 0 77 -8t61 -19t57 -19t65 -8q32 0 62.5 15.5t54.5 37.5z" />
    <glyph glyph-name="Umacron" unicode="&#x16a;" 
d="M502 -11q-199 0 -305.5 68t-106.5 198v368h152h10v-7q-6 -6 -7.5 -13t-1.5 -24v-325q0 -64 65.5 -104.5t195.5 -40.5q143 0 204 41t61 107v366h149v-365q0 -94 -52.5 -153.5t-146.5 -87.5t-217 -28v0zM196 723v99h594v-99h-594z" />
    <glyph glyph-name="umacron" unicode="&#x16b;" 
d="M439 -11q-87 0 -147.5 16t-99.5 42.5t-60.5 58t-30 63t-8.5 57.5l2 245h154v-232q0 -24 11.5 -46.5t37 -40.5t69.5 -28.5t108 -10.5q60 0 108.5 6.5t83 20.5t53.5 36.5t19 55.5v239h154v-400q0 -18 2.5 -35.5t17.5 -35.5h-142q-8 8 -12.5 16.5t-6 19t-1.5 24.5
q-22 -19 -56 -32.5t-76.5 -22t-88.5 -12.5t-91 -4zM196 557v99h594v-99h-594z" />
    <glyph glyph-name="Ubreve" unicode="&#x16c;" 
d="M502 -11q-199 0 -305.5 68t-106.5 198v368h152h10v-7q-6 -6 -7.5 -13t-1.5 -24v-325q0 -64 65.5 -104.5t195.5 -40.5q143 0 204 41t61 107v366h149v-365q0 -94 -52.5 -153.5t-146.5 -87.5t-217 -28v0zM712 797l66 -68q-51 -39 -125.5 -64.5t-152.5 -25.5t-152.5 27
t-125.5 74l66 68q44 -40 98 -61.5t114 -21.5q40 0 77.5 7t71.5 23t63 42z" />
    <glyph glyph-name="ubreve" unicode="&#x16d;" 
d="M439 -11q-87 0 -147.5 16t-99.5 42.5t-60.5 58t-30 63t-8.5 57.5l2 245h154v-232q0 -24 11.5 -46.5t37 -40.5t69.5 -28.5t108 -10.5q60 0 108.5 6.5t83 20.5t53.5 36.5t19 55.5v239h154v-400q0 -18 2.5 -35.5t17.5 -35.5h-142q-8 8 -12.5 16.5t-6 19t-1.5 24.5
q-22 -19 -56 -32.5t-76.5 -22t-88.5 -12.5t-91 -4zM712 664l66 -68q-51 -39 -125.5 -64.5t-152.5 -25.5t-152.5 27t-125.5 74l66 68q44 -40 98 -61.5t114 -21.5q40 0 77.5 7t71.5 23t63 42z" />
    <glyph glyph-name="Uring" unicode="&#x16e;" 
d="M502 -11q-199 0 -305.5 68t-106.5 198v368h152h10v-7q-6 -6 -7.5 -13t-1.5 -24v-325q0 -64 65.5 -104.5t195.5 -40.5q143 0 204 41t61 107v366h149v-365q0 -94 -52.5 -153.5t-146.5 -87.5t-217 -28v0zM494 614q-60 0 -110 14.5t-80.5 39t-30.5 54.5q0 29 30 53t80.5 38.5
t111.5 14.5q62 0 113.5 -14.5t83 -38.5t31.5 -52q0 -30 -31.5 -55t-83.5 -39.5t-114 -14.5zM497 700q40 0 65 6t25 18q0 11 -25 17.5t-65 6.5q-41 0 -65.5 -6.5t-24.5 -17.5q0 -12 24.5 -18t65.5 -6z" />
    <glyph glyph-name="uring" unicode="&#x16f;" 
d="M439 -11q-87 0 -147.5 16t-99.5 42.5t-60.5 58t-30 63t-8.5 57.5l2 245h154v-232q0 -24 11.5 -46.5t37 -40.5t69.5 -28.5t108 -10.5q60 0 108.5 6.5t83 20.5t53.5 36.5t19 55.5v239h154v-400q0 -18 2.5 -35.5t17.5 -35.5h-142q-8 8 -12.5 16.5t-6 19t-1.5 24.5
q-22 -19 -56 -32.5t-76.5 -22t-88.5 -12.5t-91 -4zM474 510q-60 0 -110.5 14.5t-81 39t-30.5 54.5q0 29 30 53t80.5 38.5t111.5 14.5q62 0 114 -14.5t83 -38.5t31 -52q0 -30 -31.5 -55t-83.5 -39.5t-113 -14.5zM476 596q40 0 65 6t25 18q0 11 -25 17.5t-65 6.5
q-41 0 -65.5 -6.5t-24.5 -17.5q0 -12 24.5 -18t65.5 -6z" />
    <glyph glyph-name="Uhungarumlaut" unicode="&#x170;" 
d="M502 -11q-199 0 -305.5 68t-106.5 198v368h152h10v-7q-6 -6 -7.5 -13t-1.5 -24v-325q0 -64 65.5 -104.5t195.5 -40.5q143 0 204 41t61 107v366h149v-365q0 -94 -52.5 -153.5t-146.5 -87.5t-217 -28v0zM574 635l-67 87l282 124l75 -110zM218 635l-67 87l282 124l77 -110z
" />
    <glyph glyph-name="uhungarumlaut" unicode="&#x171;" 
d="M439 -11q-87 0 -147.5 16t-99.5 42.5t-60.5 58t-30 63t-8.5 57.5l2 245h154v-232q0 -24 11.5 -46.5t37 -40.5t69.5 -28.5t108 -10.5q60 0 108.5 6.5t83 20.5t53.5 36.5t19 55.5v239h154v-400q0 -18 2.5 -35.5t17.5 -35.5h-142q-8 8 -12.5 16.5t-6 19t-1.5 24.5
q-22 -19 -56 -32.5t-76.5 -22t-88.5 -12.5t-91 -4zM644 522l-130 50l176 127l166 -62zM334 522l-130 50l176 127l166 -62z" />
    <glyph glyph-name="Uogonek" unicode="&#x172;" 
d="M502 -11q-199 0 -305.5 68t-106.5 198v368h152h10v-7q-6 -6 -7.5 -13t-1.5 -24v-325q0 -64 65.5 -104.5t195.5 -40.5q143 0 204 41t61 107v366h149v-365q0 -94 -52.5 -153.5t-146.5 -87.5t-217 -28v0zM667 -123l-19 -94q-79 4 -128.5 18t-72.5 35.5t-23 46.5
q0 27 30.5 54t85.5 54t126 53l98 -34q-52 -18 -95 -35t-68 -33.5t-25 -34.5q0 -15 28.5 -21.5t62.5 -8.5z" />
    <glyph glyph-name="uogonek" unicode="&#x173;" 
d="M439 -11q-87 0 -147.5 16t-99.5 42.5t-60.5 58t-30 63t-8.5 57.5l2 245h154v-232q0 -24 11.5 -46.5t37 -40.5t69.5 -28.5t108 -10.5q60 0 108.5 6.5t83 20.5t53.5 36.5t19 55.5v239h154v-400q0 -18 2.5 -35.5t17.5 -35.5h-142q-8 8 -12.5 16.5t-6 19t-1.5 24.5
q-22 -19 -56 -32.5t-76.5 -22t-88.5 -12.5t-91 -4zM817 -133l-19 -94q-79 4 -128.5 18t-72.5 35.5t-23 46.5q0 27 30.5 54t85.5 54t126 53l98 -34q-52 -18 -95 -35t-68 -33.5t-25 -34.5q0 -15 28.5 -21.5t62.5 -8.5z" />
    <glyph glyph-name="Wcircumflex" unicode="&#x174;" 
d="M234 0l-210 623h156l120 -409l182 363h76l163 -363l119 409h146l-208 -623h-84l-177 383l-195 -383h-88zM204 635l-46 81l326 90h74l304 -91l-46 -81l-296 64z" />
    <glyph glyph-name="wcircumflex" unicode="&#x175;" 
d="M236 -1l-211 472h152l143 -335l129 292h124l149 -317q26 77 44.5 130t30.5 89.5t19.5 63t10.5 51.5l3 26h145q-23 -77 -52.5 -157t-63.5 -159.5t-69 -155.5h-146l-138 279l-124 -279h-146zM271 511l-70 84l268 90h68l268 -90l-70 -84l-232 74z" />
    <glyph glyph-name="Ycircumflex" unicode="&#x176;" 
d="M440 0v226l-404 397h186l301 -275l265 275h178l-373 -397v-226h-153zM184 635l-46 81l326 90h74l304 -91l-46 -81l-296 64z" />
    <glyph glyph-name="ycircumflex" unicode="&#x177;" 
d="M299 -174q-72 0 -131 14.5t-100 42.5l68 113l6 9l6 -4q2 -8 7.5 -13.5t19.5 -13.5q27 -13 61 -18.5t76 -5.5q49 0 82 9.5t57 29t44 48.5l164 238q31 45 58.5 97.5t37.5 98.5h164q-13 -46 -44 -100t-64 -101l-228 -322q-48 -67 -117 -94.5t-167 -27.5v0zM85 471h206
l299 -381l-85 -125zM287 511l-70 84l268 90h68l268 -90l-70 -84l-232 74z" />
    <glyph glyph-name="Ydieresis" unicode="&#x178;" 
d="M440 0v226l-404 397h186l301 -275l265 275h178l-373 -397v-226h-153zM309 677q-31 0 -54 23t-23 55q0 31 22 54t55 23q32 0 55 -23t23 -55q0 -31 -23 -54t-55 -23zM687 677q-31 0 -54 23t-23 54q0 32 22 55t55 23q32 0 55 -23t23 -55q0 -31 -23 -54t-55 -23z" />
    <glyph glyph-name="Zacute" unicode="&#x179;" 
d="M90 89l578 414h-554v120h790v-89l-582 -415h570q17 0 24 2t13 8h7v-10v-119h-846v89zM372 636l-33 105l321 86l43 -133z" />
    <glyph glyph-name="zacute" unicode="&#x17a;" 
d="M90 97l491 250h-469v124h775v-97l-481 -250h460q17 0 24 2t13 8h7v-10v-124h-820v97zM442 491l-136 69l238 136l160 -88z" />
    <glyph glyph-name="Zdotaccent" unicode="&#x17b;" 
d="M90 89l578 414h-554v120h790v-89l-582 -415h570q17 0 24 2t13 8h7v-10v-119h-846v89zM518 667q-36 0 -61.5 25.5t-25.5 61.5q0 37 25 62.5t62 25.5q35 0 61.5 -26.5t26.5 -61.5q0 -36 -26.5 -61.5t-61.5 -25.5z" />
    <glyph glyph-name="zdotaccent" unicode="&#x17c;" 
d="M90 97l491 250h-469v124h775v-97l-481 -250h460q17 0 24 2t13 8h7v-10v-124h-820v97zM504 517q-36 0 -61.5 25.5t-25.5 61.5q0 37 25 62.5t62 25.5q35 0 61.5 -26.5t26.5 -61.5q0 -36 -26.5 -61.5t-61.5 -25.5z" />
    <glyph glyph-name="Zcaron" unicode="&#x17d;" 
d="M90 89l578 414h-554v120h790v-89l-582 -415h570q17 0 24 2t13 8h7v-10v-119h-846v89zM824 816l46 -81l-326 -90h-74l-304 91l46 81l296 -64z" />
    <glyph glyph-name="zcaron" unicode="&#x17e;" 
d="M90 97l491 250h-469v124h775v-97l-481 -250h460q17 0 24 2t13 8h7v-10v-124h-820v97zM266 702l232 -74l232 74l70 -84l-268 -90h-68l-268 90z" />
    <glyph glyph-name="uni018F" unicode="&#x18f;" 
d="M500 -11q-138 0 -240.5 39.5t-159 111t-56.5 168.5q0 94 56.5 165.5t159 112.5t240.5 41t240.5 -41t159 -112.5t56.5 -165.5q0 -97 -56.5 -168.5t-159 -111t-240.5 -39.5zM500 113q100 0 167 22.5t101 66t34 106.5q0 59 -34 102.5t-101 68t-167 24.5t-167 -24.5t-101 -68
t-34 -102.5q0 -63 34 -106.5t101 -66t167 -22.5z" />
    <glyph glyph-name="florin" unicode="&#x192;" 
d="M200 -175q-49 0 -90 9t-74 26l60 124q9 -1 12 -6.5t10.5 -13t30 -13t69.5 -5.5q37 0 65.5 11.5t46.5 35t23 59.5l37 243h-230v120h244l10 60q12 68 54.5 111.5t111 65t156.5 21.5q68 0 124.5 -13.5t99.5 -39.5l-52 -124q-7 2 -10 6t-5 9q-4 8 -19.5 15.5t-38.5 13.5
t-48.5 9.5t-48.5 3.5q-49 0 -84.5 -11.5t-56.5 -31t-25 -45.5l-8 -50h232v-120h-248l-46 -271q-13 -73 -56 -117t-107 -63t-139 -19z" />
    <glyph glyph-name="uni0198" unicode="&#x198;" 
d="M74 623h153h10v-7q-6 -6 -7.5 -13t-1.5 -24v-229q105 88 195 142.5t168 83.5t147.5 40t133.5 11q18 0 36 -1t34 -3l-2 -121v-10h-7q-6 6 -13 9.5t-24 4.5q-9 1 -21 1h-29q-29 0 -70 -4t-95 -19.5t-122 -49t-150.5 -92t-180.5 -150.5v-192h-154v623zM258 311l98 79
l606 -390l-208 -7z" />
    <glyph glyph-name="Ohorn" unicode="&#x1a0;" 
d="M500 -11q-138 0 -240.5 39.5t-159 111t-56.5 168.5q0 94 56.5 165.5t159 112.5t240.5 41t240.5 -41t159 -112.5t56.5 -165.5q0 -97 -56.5 -168.5t-159 -111t-240.5 -39.5zM500 113q100 0 167 22.5t101 66t34 106.5q0 59 -34 102.5t-101 68t-167 24.5t-167 -24.5t-101 -68
t-34 -102.5q0 -63 34 -106.5t101 -66t167 -22.5zM758 495l-20 89q32 0 50 9.5t25 30t7 54.5h116q0 -52 -13.5 -93.5t-51.5 -65.5t-113 -24z" />
    <glyph glyph-name="ohorn" unicode="&#x1a1;" 
d="M497 -8q-135 -2 -232 29.5t-149.5 87.5t-52.5 125q0 70 52.5 126t149.5 89t232 33t230 -33t144.5 -89t49.5 -126q0 -69 -49.5 -124t-144.5 -86.5t-230 -31.5zM497 116q80 0 138 14t89 40.5t31 64.5q0 39 -31 66.5t-89 42t-138 14.5t-140.5 -14.5t-94 -42t-33.5 -66.5
q0 -38 33.5 -64.5t94 -40.5t140.5 -14zM893 520q0 -78 -19.5 -120t-59 -57.5t-99.5 -15.5v109q32 0 46 19.5t14 64.5h118z" />
    <glyph glyph-name="Uhorn" unicode="&#x1af;" 
d="M452 -11q-180 0 -275.5 68t-95.5 198v368h137h9v-7q-5 -6 -7 -13t-1 -24v-325q0 -64 58.5 -104.5t176.5 -40.5q129 0 183.5 41t54.5 107v366h134v-365q0 -94 -47.5 -153.5t-131.5 -87.5t-195 -28v0zM816 534l-20 89q32 0 50 9.5t25 30t7 54.5h116q0 -52 -13.5 -93.5
t-51.5 -65.5t-113 -24z" />
    <glyph glyph-name="uhorn" unicode="&#x1b0;" 
d="M375 -11q-82 0 -139.5 16t-94.5 42.5t-57.5 58t-29 63t-8.5 57.5l2 245h147v-232q0 -24 10.5 -46.5t35 -40.5t66 -28.5t102.5 -10.5q57 0 103 6.5t79 20.5t51 36.5t18 55.5v239h146v-400q0 -18 2.5 -35.5t16.5 -35.5h-135q-7 8 -11 16.5t-6 19t-2 24.5
q-20 -19 -52.5 -32.5t-73 -22t-84 -12.5t-86.5 -4zM940 555q0 -78 -19.5 -120t-59 -57.5t-99.5 -15.5v109q32 0 46 19.5t14 64.5h118z" />
    <glyph glyph-name="uni01B8" unicode="&#x1b8;" 
d="M536 -11q-131 0 -223.5 23.5t-141.5 67t-49 103.5q0 49 32 85.5t90 60.5t135 36.5t167 12.5h130v-104q-88 2 -161.5 -1.5t-127 -13.5t-82.5 -28t-29 -44q0 -27 33.5 -44.5t95 -25.5t145.5 -8q70 0 128.5 8t104.5 27q14 8 20 13t8 13l7 3l4 -9l36 -104q-64 -35 -145.5 -53
t-176.5 -18v0zM156 510v113h630v-123h-350l240 -122l-234 -7z" />
    <glyph glyph-name="uni01B9" unicode="&#x1b9;" 
d="M576 -177q-131 0 -223.5 23.5t-141.5 67t-49 103.5q0 49 32 85.5t90 60.5t135 36.5t167 12.5h130v-104q-88 2 -161.5 -1.5t-127 -13.5t-82.5 -28t-29 -44q0 -27 33.5 -44.5t95 -25.5t145.5 -8q70 0 128.5 8t104.5 27q14 8 20 13t8 13l7 3l4 -9l36 -104
q-64 -35 -145.5 -53t-176.5 -18v0zM196 344v113h630v-123h-350l240 -122l-234 -7z" />
    <glyph glyph-name="uni01C7" unicode="&#x1c7;" 
d="M563 -185q-88 0 -158 8t-135 38l57 119q11 -1 12.5 -6t4 -11t15.5 -10q26 -8 57.5 -13t68 -7t76.5 -2q63 0 108 12.5t68.5 42.5t23.5 82v435h-266v120h418v-59v0v-495q4 -60 -25.5 -107t-80.5 -80t-115 -50t-129 -17zM103 0v623h164q0 -7 -2.5 -8.5t-5 -5.5t-2.5 -20
v-467h352v-122h-506z" />
    <glyph glyph-name="uni01C8" unicode="&#x1c8;" 
d="M116 0v623h173q0 -10 -5 -14.5t-5 -21.5v-467h253v-120h-416zM542 -179q-37 0 -71 3.5t-64.5 10.5t-58.5 17l28 122q9 0 9.5 -2.5t4 -7.5t22 -11t63.5 -12q9 -1 21.5 -1.5t26 -1t23.5 -0.5q30 0 63.5 5.5t63.5 18t48.5 32t18.5 46.5v307h-298v124h452v-427
q0 -54 -24 -95.5t-69.5 -70.5t-110.5 -43.5t-148 -13.5zM802 516q-36 0 -61.5 25.5t-25.5 61.5q0 37 25 62.5t62 25.5q35 0 61.5 -26.5t26.5 -61.5q0 -36 -26.5 -61.5t-61.5 -25.5z" />
    <glyph glyph-name="uni01C9" unicode="&#x1c9;" 
d="M496 -174q-88 0 -156.5 8.5t-123.5 35.5l57 112q7 -2 9.5 -5t11 -7.5t34 -9.5t77.5 -10q23 -2 49.5 -4t51.5 -2q60 0 105.5 7t71 29t25.5 68v303h-276v120h430v-419q0 -64 -28.5 -107t-79 -68.5t-116.5 -37t-142 -13.5zM38 0v120h126v425h-114v120h268v-545h244v-120
h-524zM780 517q-36 0 -61.5 25.5t-25.5 61.5q0 37 25 62.5t62 25.5q35 0 61.5 -26.5t26.5 -61.5q0 -36 -26.5 -61.5t-61.5 -25.5z" />
    <glyph glyph-name="Gcaron" unicode="&#x1e6;" 
d="M544 -10q-149 0 -259.5 39t-171.5 110t-61 165q-2 81 30 137.5t86 93.5t119 58t130.5 29t120.5 8q74 0 147.5 -13.5t134.5 -36.5t96 -55l-78 -102l-6 -8l-6 4q-1 8 -6 13.5t-19 15.5q-32 20 -75 32.5t-91.5 18.5t-98.5 6q-54 0 -103.5 -6t-91 -19.5t-72.5 -35.5t-48 -53
t-17 -72q0 -48 23 -85.5t67.5 -64.5t107.5 -41t142 -14q27 0 56.5 2t58.5 6.5t57 12t52 17.5v65h-214v123h366v-285q-88 -32 -184.5 -48.5t-191.5 -16.5v0zM852 816l46 -81l-326 -90h-74l-304 91l46 81l296 -64z" />
    <glyph glyph-name="gcaron" unicode="&#x1e7;" 
d="M488 -172q-96 -1 -178 6t-143 22t-95 37.5t-34 52.5q0 32 23.5 52t63 33t87.5 23l132 -29q-42 -4 -78.5 -11t-59 -17t-22.5 -23q0 -10 15.5 -17.5t50.5 -13t94 -8t146 -2.5q91 0 153.5 4.5t94.5 13t32 21.5q0 10 -20.5 18t-73 13t-148.5 4q-75 -1 -138 2t-112 10.5
t-83.5 19t-52.5 28t-18 37.5q0 26 36.5 53t93.5 49l119 -27q-21 -5 -47.5 -11.5t-46 -15.5t-19.5 -21q0 -11 27.5 -16t90.5 -6t170 -1q105 0 176 -9.5t113 -27t60.5 -41t18.5 -52.5q0 -27 -22 -52.5t-71.5 -47t-131.5 -35t-203 -15.5zM446 168q-114 0 -192.5 22.5t-119 58.5
t-40.5 76q0 44 40.5 79.5t119 56.5t192.5 21q110 0 189 -15.5t121.5 -50t41.5 -91.5q0 -51 -42.5 -86t-121 -53t-188.5 -18zM446 273q66 0 114 5t73.5 17t25.5 31q0 20 -25.5 31t-73.5 16t-114 5q-56 0 -104.5 -5t-78.5 -16t-30 -31q0 -19 31 -31t79.5 -17t102.5 -5z
M739 342l-73 74q59 29 121 42.5t149 10.5l24 -84q-66 3 -122 -6t-99 -37zM242 688l232 -74l232 74l70 -84l-268 -90h-68l-268 90z" />
    <glyph glyph-name="uni01EA" unicode="&#x1ea;" 
d="M500 -11q-138 0 -240.5 39.5t-159 111t-56.5 168.5q0 94 56.5 165.5t159 112.5t240.5 41t240.5 -41t159 -112.5t56.5 -165.5q0 -97 -56.5 -168.5t-159 -111t-240.5 -39.5zM500 113q100 0 167 22.5t101 66t34 106.5q0 59 -34 102.5t-101 68t-167 24.5t-167 -24.5t-101 -68
t-34 -102.5q0 -63 34 -106.5t101 -66t167 -22.5zM619 -113l-19 -94q-79 4 -128.5 18t-72.5 35.5t-23 46.5q0 27 30.5 54t85.5 54t126 53l98 -34q-52 -18 -95 -35t-68 -33.5t-25 -34.5q0 -15 28.5 -21.5t62.5 -8.5z" />
    <glyph glyph-name="uni01EB" unicode="&#x1eb;" 
d="M497 -8q-135 -2 -232 29.5t-149.5 87.5t-52.5 125q0 70 52.5 126t149.5 89t232 33t230 -33t144.5 -89t49.5 -126q0 -69 -49.5 -124t-144.5 -86.5t-230 -31.5zM497 116q80 0 138 14t89 40.5t31 64.5q0 39 -31 66.5t-89 42t-138 14.5t-140.5 -14.5t-94 -42t-33.5 -66.5
q0 -38 33.5 -64.5t94 -40.5t140.5 -14zM625 -110l-19 -94q-79 4 -128.5 18t-72.5 35.5t-23 46.5q0 27 30.5 54t85.5 54t126 53l98 -34q-52 -18 -95 -35t-68 -33.5t-25 -34.5q0 -15 28.5 -21.5t62.5 -8.5z" />
    <glyph glyph-name="Aringacute" unicode="&#x1fa;" 
d="M762 153h-532l60 112h428zM498 424l-298 -424h-178l450 634h56l450 -634h-184zM494 614q-60 0 -110 14.5t-80.5 39t-30.5 54.5q0 29 30 53t80.5 38.5t111.5 14.5q62 0 113.5 -14.5t83 -38.5t31.5 -52q0 -30 -31.5 -55t-83.5 -39.5t-114 -14.5zM497 700q40 0 65 6t25 18
q0 11 -25 17.5t-65 6.5q-41 0 -65.5 -6.5t-24.5 -17.5q0 -12 24.5 -18t65.5 -6zM352 808l-33 105l321 86l43 -133z" />
    <glyph glyph-name="aringacute" unicode="&#x1fb;" 
d="M425 -11q-166 0 -253 33t-87 106q0 39 26.5 70.5t83 53.5t147 33.5t219.5 11.5q33 0 73 -2.5t82.5 -6.5t84.5 -7l-3 -101q-36 3 -75.5 4t-78 1h-71.5q-97 0 -163 -4t-106 -11t-57.5 -15.5t-17.5 -18.5q0 -8 10.5 -14.5t35 -11t64.5 -7t99 -2.5q78 0 137.5 5.5t100.5 19.5
t61.5 40t20.5 66q0 58 -28 87.5t-82.5 40t-135.5 10.5q-103 0 -172.5 -14t-122.5 -38l-82 85q65 32 154 55.5t223 23.5q87 0 159 -9.5t124 -35t80.5 -72.5t28.5 -122v-243h-152v50q-31 -15 -70.5 -26.5t-84 -19t-88.5 -11.5t-84 -4zM486 524q-60 0 -110.5 14.5t-81 39
t-30.5 54.5q0 29 30 53t80.5 38.5t111.5 14.5q62 0 114 -14.5t83 -38.5t31 -52q0 -30 -31.5 -55t-83.5 -39.5t-113 -14.5zM488 610q40 0 65 6t25 18q0 11 -25 17.5t-65 6.5q-41 0 -65.5 -6.5t-24.5 -17.5q0 -12 24.5 -18t65.5 -6zM454 727l-136 69l238 136l160 -88z" />
    <glyph glyph-name="AEacute" unicode="&#x1fc;" 
d="M30 0l392 624h568v-122h-327v-115h275v-124h-275v-141h323v-122h-475v139h-220l-88 -139h-173zM356 257h155v245h-4zM390 636l-33 105l321 86l43 -133z" />
    <glyph glyph-name="aeacute" unicode="&#x1fd;" 
d="M274 -11q-89 0 -145.5 16.5t-82.5 47.5t-26 73q0 38 18.5 67.5t64.5 50.5t126.5 33.5t204.5 15.5q0 18 -14 32.5t-47 23t-89 8.5q-45 0 -88 -8.5t-72 -25.5l-62 89q44 28 101.5 41.5t130.5 13.5q48 0 86 -5.5t68 -17.5t53 -32q25 23 62 35t79 16t82 4q91 0 147.5 -26.5
t82.5 -73.5t26 -109v-62l-412 -7v-14q0 -19 13.5 -33.5t38 -24.5t58.5 -15t74 -5q41 0 76 5t63 13.5t48 19.5l49 -93q-43 -26 -105 -39.5t-143 -13.5q-41 0 -88.5 8t-89.5 24t-65 41q-22 -23 -56 -39.5t-76.5 -25t-90.5 -8.5zM268 97q55 0 92 9.5t55.5 29t18.5 49.5
q-107 0 -168 -7.5t-86.5 -18.5t-25.5 -25q0 -12 12 -20.5t37.5 -12.5t64.5 -4zM572 293l276 5q0 16 -11.5 29t-39.5 21.5t-78 8.5t-82.5 -8.5t-48.5 -23t-16 -32.5zM453 477l-136 69l238 136l160 -88z" />
    <glyph glyph-name="Oslashacute" unicode="&#x1fe;" 
d="M170 -42l-78 80l740 644l74 -82zM500 -11q-138 0 -240.5 39.5t-159 111t-56.5 168.5q0 94 56.5 165.5t159 112.5t240.5 41t240.5 -41t159 -112.5t56.5 -165.5q0 -97 -56.5 -168.5t-159 -111t-240.5 -39.5zM500 113q100 0 167 22.5t101 66t34 106.5q0 59 -34 102.5
t-101 68t-167 24.5t-167 -24.5t-101 -68t-34 -102.5q0 -63 34 -106.5t101 -66t167 -22.5zM352 636l-33 105l321 86l43 -133z" />
    <glyph glyph-name="oslashacute" unicode="&#x1ff;" 
d="M232 -70l-108 52l614 539l108 -52zM497 -8q-135 -2 -232 29.5t-149.5 87.5t-52.5 125q0 70 52.5 126t149.5 89t232 33t230 -33t144.5 -89t49.5 -126q0 -69 -49.5 -124t-144.5 -86.5t-230 -31.5zM497 116q80 0 138 14t89 40.5t31 64.5q0 39 -31 66.5t-89 42t-138 14.5
t-140.5 -14.5t-94 -42t-33.5 -66.5q0 -38 33.5 -64.5t94 -40.5t140.5 -14zM439 491l-136 69l238 136l160 -88z" />
    <glyph glyph-name="uni0200" unicode="&#x200;" 
d="M762 153h-532l60 112h428zM498 424l-298 -424h-178l450 634h56l450 -634h-184zM396 643l-262 117l160 88l238 -136zM716 643l-262 117l160 88l238 -136z" />
    <glyph glyph-name="uni0201" unicode="&#x201;" 
d="M425 -11q-166 0 -253 33t-87 106q0 39 26.5 70.5t83 53.5t147 33.5t219.5 11.5q33 0 73 -2.5t82.5 -6.5t84.5 -7l-3 -101q-36 3 -75.5 4t-78 1h-71.5q-97 0 -163 -4t-106 -11t-57.5 -15.5t-17.5 -18.5q0 -8 10.5 -14.5t35 -11t64.5 -7t99 -2.5q78 0 137.5 5.5t100.5 19.5
t61.5 40t20.5 66q0 58 -28 87.5t-82.5 40t-135.5 10.5q-103 0 -172.5 -14t-122.5 -38l-82 85q65 32 154 55.5t223 23.5q87 0 159 -9.5t124 -35t80.5 -72.5t28.5 -122v-243h-152v50q-31 -15 -70.5 -26.5t-84 -19t-88.5 -11.5t-84 -4zM408 491l-262 117l160 88l238 -136z
M728 491l-262 117l160 88l238 -136z" />
    <glyph glyph-name="uni0202" unicode="&#x202;" 
d="M762 153h-532l60 112h428zM498 424l-298 -424h-178l450 634h56l450 -634h-184zM288 684l-66 68q51 39 125.5 64.5t152.5 25.5t152.5 -27t125.5 -74l-66 -68q-44 40 -98 61.5t-114 21.5q-40 0 -77.5 -7t-71 -22.5t-63.5 -42.5z" />
    <glyph glyph-name="uni0203" unicode="&#x203;" 
d="M425 -11q-166 0 -253 33t-87 106q0 39 26.5 70.5t83 53.5t147 33.5t219.5 11.5q33 0 73 -2.5t82.5 -6.5t84.5 -7l-3 -101q-36 3 -75.5 4t-78 1h-71.5q-97 0 -163 -4t-106 -11t-57.5 -15.5t-17.5 -18.5q0 -8 10.5 -14.5t35 -11t64.5 -7t99 -2.5q78 0 137.5 5.5t100.5 19.5
t61.5 40t20.5 66q0 58 -28 87.5t-82.5 40t-135.5 10.5q-103 0 -172.5 -14t-122.5 -38l-82 85q65 32 154 55.5t223 23.5q87 0 159 -9.5t124 -35t80.5 -72.5t28.5 -122v-243h-152v50q-31 -15 -70.5 -26.5t-84 -19t-88.5 -11.5t-84 -4zM300 532l-66 68q51 39 125.5 64.5
t152.5 25.5t152.5 -27t125.5 -74l-66 -68q-44 40 -98 61.5t-114 21.5q-40 0 -77.5 -7t-71 -22.5t-63.5 -42.5z" />
    <glyph glyph-name="uni0204" unicode="&#x204;" 
d="M88 0v624h824v-120h-670v-119h560v-120h-560v-145h664v-120h-818zM436 643l-262 117l160 88l238 -136zM756 643l-262 117l160 88l238 -136z" />
    <glyph glyph-name="uni0205" unicode="&#x205;" 
d="M547 -10q-100 0 -187 15.5t-152.5 45.5t-102 74.5t-36.5 101.5q0 58 32 105t91.5 80t143 51t185.5 18q98 0 173 -20t126.5 -55.5t78 -83t26.5 -103.5q0 -8 -1 -16.5t-3 -16.5h-710q9 -18 35.5 -33t69 -25.5t101.5 -16t134 -5.5q47 0 101 3t98.5 10t64.5 18l80 -77
q-34 -22 -90 -38t-123 -24t-135 -8zM211 293h574q-6 18 -29.5 32t-60.5 23.5t-84 14.5t-100 5q-67 0 -118.5 -5t-88.5 -14.5t-59.5 -23.5t-33.5 -32zM417 477l-262 117l160 88l238 -136zM737 477l-262 117l160 88l238 -136z" />
    <glyph glyph-name="uni0206" unicode="&#x206;" 
d="M88 0v624h824v-120h-670v-119h560v-120h-560v-145h664v-120h-818zM328 684l-66 68q51 39 125.5 64.5t152.5 25.5t152.5 -27t125.5 -74l-66 -68q-44 40 -98 61.5t-114 21.5q-40 0 -77.5 -7t-71 -22.5t-63.5 -42.5z" />
    <glyph glyph-name="uni0207" unicode="&#x207;" 
d="M547 -10q-100 0 -187 15.5t-152.5 45.5t-102 74.5t-36.5 101.5q0 58 32 105t91.5 80t143 51t185.5 18q98 0 173 -20t126.5 -55.5t78 -83t26.5 -103.5q0 -8 -1 -16.5t-3 -16.5h-710q9 -18 35.5 -33t69 -25.5t101.5 -16t134 -5.5q47 0 101 3t98.5 10t64.5 18l80 -77
q-34 -22 -90 -38t-123 -24t-135 -8zM211 293h574q-6 18 -29.5 32t-60.5 23.5t-84 14.5t-100 5q-67 0 -118.5 -5t-88.5 -14.5t-59.5 -23.5t-33.5 -32zM309 518l-66 68q51 39 125.5 64.5t152.5 25.5t152.5 -27t125.5 -74l-66 -68q-44 40 -98 61.5t-114 21.5q-40 0 -77.5 -7
t-71 -22.5t-63.5 -42.5z" />
    <glyph glyph-name="uni0208" unicode="&#x208;" 
d="M141 0v124h260v375h-246v124h648v-124h-249v-376h261v-123h-674zM373 643l-262 117l160 88l238 -136zM693 643l-262 117l160 88l238 -136z" />
    <glyph glyph-name="uni0209" unicode="&#x209;" 
d="M175 0v124h259v223h-247v124h401v-347h239v-124h-652zM401 491l-262 117l160 88l238 -136zM721 491l-262 117l160 88l238 -136z" />
    <glyph glyph-name="uni020A" unicode="&#x20a;" 
d="M141 0v124h260v375h-246v124h648v-124h-249v-376h261v-123h-674zM265 684l-66 68q51 39 125.5 64.5t152.5 25.5t152.5 -27t125.5 -74l-66 -68q-44 40 -98 61.5t-114 21.5q-40 0 -77.5 -7t-71 -22.5t-63.5 -42.5z" />
    <glyph glyph-name="uni020B" unicode="&#x20b;" 
d="M175 0v124h259v223h-247v124h401v-347h239v-124h-652zM293 532l-66 68q51 39 125.5 64.5t152.5 25.5t152.5 -27t125.5 -74l-66 -68q-44 40 -98 61.5t-114 21.5q-40 0 -77.5 -7t-71 -22.5t-63.5 -42.5z" />
    <glyph glyph-name="uni020C" unicode="&#x20c;" 
d="M500 -11q-138 0 -240.5 39.5t-159 111t-56.5 168.5q0 94 56.5 165.5t159 112.5t240.5 41t240.5 -41t159 -112.5t56.5 -165.5q0 -97 -56.5 -168.5t-159 -111t-240.5 -39.5zM500 113q100 0 167 22.5t101 66t34 106.5q0 59 -34 102.5t-101 68t-167 24.5t-167 -24.5t-101 -68
t-34 -102.5q0 -63 34 -106.5t101 -66t167 -22.5zM396 643l-262 117l160 88l238 -136zM716 643l-262 117l160 88l238 -136z" />
    <glyph glyph-name="uni020D" unicode="&#x20d;" 
d="M497 -8q-135 -2 -232 29.5t-149.5 87.5t-52.5 125q0 70 52.5 126t149.5 89t232 33t230 -33t144.5 -89t49.5 -126q0 -69 -49.5 -124t-144.5 -86.5t-230 -31.5zM497 116q80 0 138 14t89 40.5t31 64.5q0 39 -31 66.5t-89 42t-138 14.5t-140.5 -14.5t-94 -42t-33.5 -66.5
q0 -38 33.5 -64.5t94 -40.5t140.5 -14zM393 491l-262 117l160 88l238 -136zM713 491l-262 117l160 88l238 -136z" />
    <glyph glyph-name="uni020E" unicode="&#x20e;" 
d="M500 -11q-138 0 -240.5 39.5t-159 111t-56.5 168.5q0 94 56.5 165.5t159 112.5t240.5 41t240.5 -41t159 -112.5t56.5 -165.5q0 -97 -56.5 -168.5t-159 -111t-240.5 -39.5zM500 113q100 0 167 22.5t101 66t34 106.5q0 59 -34 102.5t-101 68t-167 24.5t-167 -24.5t-101 -68
t-34 -102.5q0 -63 34 -106.5t101 -66t167 -22.5zM288 684l-66 68q51 39 125.5 64.5t152.5 25.5t152.5 -27t125.5 -74l-66 -68q-44 40 -98 61.5t-114 21.5q-40 0 -77.5 -7t-71 -22.5t-63.5 -42.5z" />
    <glyph glyph-name="uni020F" unicode="&#x20f;" 
d="M497 -8q-135 -2 -232 29.5t-149.5 87.5t-52.5 125q0 70 52.5 126t149.5 89t232 33t230 -33t144.5 -89t49.5 -126q0 -69 -49.5 -124t-144.5 -86.5t-230 -31.5zM497 116q80 0 138 14t89 40.5t31 64.5q0 39 -31 66.5t-89 42t-138 14.5t-140.5 -14.5t-94 -42t-33.5 -66.5
q0 -38 33.5 -64.5t94 -40.5t140.5 -14zM285 532l-66 68q51 39 125.5 64.5t152.5 25.5t152.5 -27t125.5 -74l-66 -68q-44 40 -98 61.5t-114 21.5q-40 0 -77.5 -7t-71 -22.5t-63.5 -42.5z" />
    <glyph glyph-name="uni0210" unicode="&#x210;" 
d="M102 0v623h458q108 0 185 -25t118 -67.5t41 -95.5q0 -60 -34.5 -98.5t-94.5 -58t-135 -23.5l298 -255h-186l-286 246h-211v-246h-153zM255 366h311q103 0 143.5 19.5t40.5 49.5q0 20 -18 35t-60 24t-116 9h-301v-137zM396 643l-262 117l160 88l238 -136zM716 643
l-262 117l160 88l238 -136z" />
    <glyph glyph-name="uni0211" unicode="&#x211;" 
d="M185 471h159l-6 -121l-18 15q12 24 43.5 45t77 37.5t98.5 25.5t106 9q93 0 163 -21t110 -53l-80 -92l-7 -8l-5 5q-1 8 -7 12t-21 11q-39 17 -83.5 23.5t-92.5 6.5q-50 0 -100 -7t-91 -24t-66 -45.5t-25 -71.5v-219h-155v472zM488 491l-262 117l160 88l238 -136zM808 491
l-262 117l160 88l238 -136z" />
    <glyph glyph-name="uni0212" unicode="&#x212;" 
d="M102 0v623h458q108 0 185 -25t118 -67.5t41 -95.5q0 -60 -34.5 -98.5t-94.5 -58t-135 -23.5l298 -255h-186l-286 246h-211v-246h-153zM255 366h311q103 0 143.5 19.5t40.5 49.5q0 20 -18 35t-60 24t-116 9h-301v-137zM288 684l-66 68q51 39 125.5 64.5t152.5 25.5
t152.5 -27t125.5 -74l-66 -68q-44 40 -98 61.5t-114 21.5q-40 0 -77.5 -7t-71 -22.5t-63.5 -42.5z" />
    <glyph glyph-name="uni0213" unicode="&#x213;" 
d="M185 471h159l-6 -121l-18 15q12 24 43.5 45t77 37.5t98.5 25.5t106 9q93 0 163 -21t110 -53l-80 -92l-7 -8l-5 5q-1 8 -7 12t-21 11q-39 17 -83.5 23.5t-92.5 6.5q-50 0 -100 -7t-91 -24t-66 -45.5t-25 -71.5v-219h-155v472zM380 532l-66 68q51 39 125.5 64.5t152.5 25.5
t152.5 -27t125.5 -74l-66 -68q-44 40 -98 61.5t-114 21.5q-40 0 -77.5 -7t-71 -22.5t-63.5 -42.5z" />
    <glyph glyph-name="uni0214" unicode="&#x214;" 
d="M502 -11q-199 0 -305.5 68t-106.5 198v368h152h10v-7q-6 -6 -7.5 -13t-1.5 -24v-325q0 -64 65.5 -104.5t195.5 -40.5q143 0 204 41t61 107v366h149v-365q0 -94 -52.5 -153.5t-146.5 -87.5t-217 -28v0zM396 643l-262 117l160 88l238 -136zM716 643l-262 117l160 88
l238 -136z" />
    <glyph glyph-name="uni0215" unicode="&#x215;" 
d="M439 -11q-87 0 -147.5 16t-99.5 42.5t-60.5 58t-30 63t-8.5 57.5l2 245h154v-232q0 -24 11.5 -46.5t37 -40.5t69.5 -28.5t108 -10.5q60 0 108.5 6.5t83 20.5t53.5 36.5t19 55.5v239h154v-400q0 -18 2.5 -35.5t17.5 -35.5h-142q-8 8 -12.5 16.5t-6 19t-1.5 24.5
q-22 -19 -56 -32.5t-76.5 -22t-88.5 -12.5t-91 -4zM396 477l-262 117l160 88l238 -136zM716 477l-262 117l160 88l238 -136z" />
    <glyph glyph-name="uni0216" unicode="&#x216;" 
d="M502 -11q-199 0 -305.5 68t-106.5 198v368h152h10v-7q-6 -6 -7.5 -13t-1.5 -24v-325q0 -64 65.5 -104.5t195.5 -40.5q143 0 204 41t61 107v366h149v-365q0 -94 -52.5 -153.5t-146.5 -87.5t-217 -28v0zM288 684l-66 68q51 39 125.5 64.5t152.5 25.5t152.5 -27t125.5 -74
l-66 -68q-44 40 -98 61.5t-114 21.5q-40 0 -77.5 -7t-71 -22.5t-63.5 -42.5z" />
    <glyph glyph-name="uni0217" unicode="&#x217;" 
d="M439 -11q-87 0 -147.5 16t-99.5 42.5t-60.5 58t-30 63t-8.5 57.5l2 245h154v-232q0 -24 11.5 -46.5t37 -40.5t69.5 -28.5t108 -10.5q60 0 108.5 6.5t83 20.5t53.5 36.5t19 55.5v239h154v-400q0 -18 2.5 -35.5t17.5 -35.5h-142q-8 8 -12.5 16.5t-6 19t-1.5 24.5
q-22 -19 -56 -32.5t-76.5 -22t-88.5 -12.5t-91 -4zM288 518l-66 68q51 39 125.5 64.5t152.5 25.5t152.5 -27t125.5 -74l-66 -68q-44 40 -98 61.5t-114 21.5q-40 0 -77.5 -7t-71 -22.5t-63.5 -42.5z" />
    <glyph glyph-name="uni0218" unicode="&#x218;" 
d="M494 -10q-121 0 -223.5 20t-176.5 59l78 106l6 8l6 -4q2 -8 7.5 -12t20.5 -12q52 -23 127.5 -34t174.5 -11q56 0 102 4t80 11.5t52.5 19t18.5 25.5q0 11 -8.5 19t-28 16t-53.5 16.5t-84.5 19.5t-120.5 26q-131 26 -205 54t-103.5 64.5t-29.5 85.5q0 54 47.5 89.5t134 53
t204.5 17.5q68 0 134.5 -9t124.5 -26t101 -43l-67 -96l-6 -8l-6 4q-1 8 -7.5 11.5t-21.5 10.5q-53 21 -123.5 28.5t-150.5 7.5q-49 0 -88 -2.5t-66.5 -8.5t-41.5 -15.5t-14 -23.5q0 -8 8 -16t28 -16t55 -17.5t88 -21t129 -26.5q93 -19 155.5 -40.5t99.5 -45t53 -50.5t16 -58
q0 -50 -45.5 -91t-140 -65t-240.5 -24v0zM446 -275l-63 73q42 27 62.5 48.5t20.5 35.5q0 15 -10.5 24.5t-21 22t-10.5 34.5q0 29 26.5 53.5t66.5 24.5q47 0 74.5 -22t27.5 -62q0 -34 -24.5 -77.5t-64 -84.5t-84.5 -70z" />
    <glyph glyph-name="uni0219" unicode="&#x219;" 
d="M524 -10q-82 0 -154 7.5t-133.5 24t-114.5 42.5l88 97l7 8l5 -5q1 -8 7.5 -10.5t22.5 -8.5q50 -17 122.5 -27t153.5 -10q68 0 116.5 3.5t74.5 11t26 17.5q0 7 -7 12t-29 9t-67 8.5t-122 10.5q-132 10 -212.5 25t-117 44.5t-36.5 81.5q0 46 42.5 80t123 52.5t192.5 18.5
q55 0 105 -3.5t95 -12.5t86 -23t78 -35l-73 -86l-7 -8l-5 5q-1 8 -7.5 10.5t-22.5 8.5q-46 14 -109.5 20t-135.5 6q-94 0 -152 -6.5t-58 -20.5q0 -8 24 -13.5t83 -11t163 -14.5q115 -9 185 -28t102.5 -51t32.5 -82q0 -47 -42.5 -80t-125.5 -50t-204 -17v0zM424 -275l-63 73
q42 27 62.5 48.5t20.5 35.5q0 15 -10.5 24.5t-21 22t-10.5 34.5q0 29 26.5 53.5t66.5 24.5q47 0 74.5 -22t27.5 -62q0 -34 -24.5 -77.5t-64 -84.5t-84.5 -70z" />
    <glyph glyph-name="uni021A" unicode="&#x21a;" 
d="M410 0v504h-364v120h896v-120h-379v-504h-153zM452 -275l-63 73q42 27 62.5 48.5t20.5 35.5q0 15 -10.5 24.5t-21 22t-10.5 34.5q0 29 26.5 53.5t66.5 24.5q47 0 74.5 -22t27.5 -62q0 -34 -24.5 -77.5t-64 -84.5t-84.5 -70z" />
    <glyph glyph-name="uni021B" unicode="&#x21b;" 
d="M580 -12q-88 0 -146 16t-89.5 48t-42.5 81t-6 115l24 326l161 9h10v-6q-5 -7 -9.5 -14t-6.5 -23l-17 -100l4 -32l-14 -165q-4 -50 8.5 -82t47 -47.5t95.5 -15.5q66 0 124.5 14t113.5 36l33 -106q-69 -25 -140.5 -39.5t-149.5 -14.5v0zM132 471h638v-110h-638v110z
M483 -275l-63 73q42 27 62.5 48.5t20.5 35.5q0 15 -10.5 24.5t-21 22t-10.5 34.5q0 29 26.5 53.5t66.5 24.5q47 0 74.5 -22t27.5 -62q0 -34 -24.5 -77.5t-64 -84.5t-84.5 -70z" />
    <glyph glyph-name="uni022A" unicode="&#x22a;" 
d="M500 -11q-138 0 -240.5 39.5t-159 111t-56.5 168.5q0 94 56.5 165.5t159 112.5t240.5 41t240.5 -41t159 -112.5t56.5 -165.5q0 -97 -56.5 -168.5t-159 -111t-240.5 -39.5zM500 113q100 0 167 22.5t101 66t34 106.5q0 59 -34 102.5t-101 68t-167 24.5t-167 -24.5t-101 -68
t-34 -102.5q0 -63 34 -106.5t101 -66t167 -22.5zM309 677q-31 0 -54 23t-23 55q0 31 22 54t55 23q32 0 55 -23t23 -55q0 -31 -23 -54t-55 -23zM687 677q-31 0 -54 23t-23 54q0 32 22 55t55 23q32 0 55 -23t23 -55q0 -31 -23 -54t-55 -23zM192 865v99h594v-99h-594z" />
    <glyph glyph-name="uni022B" unicode="&#x22b;" 
d="M497 -8q-135 -2 -232 29.5t-149.5 87.5t-52.5 125q0 70 52.5 126t149.5 89t232 33t230 -33t144.5 -89t49.5 -126q0 -69 -49.5 -124t-144.5 -86.5t-230 -31.5zM497 116q80 0 138 14t89 40.5t31 64.5q0 39 -31 66.5t-89 42t-138 14.5t-140.5 -14.5t-94 -42t-33.5 -66.5
q0 -38 33.5 -64.5t94 -40.5t140.5 -14zM306 548q-31 0 -54 23t-23 55q0 31 22 54t55 23q32 0 55 -23t23 -55q0 -31 -23 -54t-55 -23zM684 548q-31 0 -54 23t-23 54q0 32 22 55t55 23q32 0 55 -23t23 -55q0 -31 -23 -54t-55 -23zM195 719v99h594v-99h-594z" />
    <glyph glyph-name="uni022C" unicode="&#x22c;" 
d="M500 -11q-138 0 -240.5 39.5t-159 111t-56.5 168.5q0 94 56.5 165.5t159 112.5t240.5 41t240.5 -41t159 -112.5t56.5 -165.5q0 -97 -56.5 -168.5t-159 -111t-240.5 -39.5zM500 113q100 0 167 22.5t101 66t34 106.5q0 59 -34 102.5t-101 68t-167 24.5t-167 -24.5t-101 -68
t-34 -102.5q0 -63 34 -106.5t101 -66t167 -22.5zM708 860l65 -72q-30 -37 -69.5 -56t-85.5 -19q-37 0 -66 9t-53.5 20t-48.5 20t-52 9q-29 0 -58 -14.5t-48 -36.5l-65 71q24 31 65 53t102 22q37 0 64.5 -9t51 -20t47.5 -20t54 -9q26 0 52 15t45 37zM191 870v99h594v-99h-594
z" />
    <glyph glyph-name="uni022D" unicode="&#x22d;" 
d="M497 -8q-135 -2 -232 29.5t-149.5 87.5t-52.5 125q0 70 52.5 126t149.5 89t232 33t230 -33t144.5 -89t49.5 -126q0 -69 -49.5 -124t-144.5 -86.5t-230 -31.5zM497 116q80 0 138 14t89 40.5t31 64.5q0 39 -31 66.5t-89 42t-138 14.5t-140.5 -14.5t-94 -42t-33.5 -66.5
q0 -38 33.5 -64.5t94 -40.5t140.5 -14zM762 726l77 -88q-35 -37 -80.5 -58.5t-105.5 -21.5q-45 0 -79.5 8t-64 19t-58 19t-62.5 8t-69 -15t-58 -37l-77 87q29 31 75.5 55.5t124.5 24.5q44 0 77 -8t61 -19t57 -19t65 -8q32 0 62.5 15.5t54.5 37.5zM193 750v99h594v-99h-594z
" />
    <glyph glyph-name="uni0230" unicode="&#x230;" 
d="M500 -11q-138 0 -240.5 39.5t-159 111t-56.5 168.5q0 94 56.5 165.5t159 112.5t240.5 41t240.5 -41t159 -112.5t56.5 -165.5q0 -97 -56.5 -168.5t-159 -111t-240.5 -39.5zM500 113q100 0 167 22.5t101 66t34 106.5q0 59 -34 102.5t-101 68t-167 24.5t-167 -24.5t-101 -68
t-34 -102.5q0 -63 34 -106.5t101 -66t167 -22.5zM498 667q-36 0 -61.5 25.5t-25.5 61.5q0 37 25 62.5t62 25.5q35 0 61.5 -26.5t26.5 -61.5q0 -36 -26.5 -61.5t-61.5 -25.5zM192 835v99h594v-99h-594z" />
    <glyph glyph-name="uni0231" unicode="&#x231;" 
d="M497 -8q-135 -2 -232 29.5t-149.5 87.5t-52.5 125q0 70 52.5 126t149.5 89t232 33t230 -33t144.5 -89t49.5 -126q0 -69 -49.5 -124t-144.5 -86.5t-230 -31.5zM497 116q80 0 138 14t89 40.5t31 64.5q0 39 -31 66.5t-89 42t-138 14.5t-140.5 -14.5t-94 -42t-33.5 -66.5
q0 -38 33.5 -64.5t94 -40.5t140.5 -14zM496 531q-36 0 -61.5 25.5t-25.5 61.5q0 37 25 62.5t62 25.5q35 0 61.5 -26.5t26.5 -61.5q0 -36 -26.5 -61.5t-61.5 -25.5zM193 719v99h594v-99h-594z" />
    <glyph glyph-name="uni0232" unicode="&#x232;" 
d="M440 0v226l-404 397h186l301 -275l265 275h178l-373 -397v-226h-153zM196 723v99h594v-99h-594z" />
    <glyph glyph-name="uni0233" unicode="&#x233;" 
d="M299 -174q-72 0 -131 14.5t-100 42.5l68 113l6 9l6 -4q2 -8 7.5 -13.5t19.5 -13.5q27 -13 61 -18.5t76 -5.5q49 0 82 9.5t57 29t44 48.5l164 238q31 45 58.5 97.5t37.5 98.5h164q-13 -46 -44 -100t-64 -101l-228 -322q-48 -67 -117 -94.5t-167 -27.5v0zM85 471h206
l299 -381l-85 -125zM215 571v99h594v-99h-594z" />
    <glyph glyph-name="uni0237" unicode="&#x237;" 
d="M400 -174q-87 1 -163.5 20t-123.5 53l84 107l7 8l5 -4q1 -8 6 -14t18 -16q30 -19 68.5 -29.5t96.5 -10.5q60 0 105.5 10.5t71 36.5t25.5 71v289h-336v124h490v-409q0 -89 -45 -141t-124.5 -74t-184.5 -21v0z" />
    <glyph glyph-name="uni024D" unicode="&#x24d;" 
d="M46 140v121h624v-121h-624zM185 471h159l-6 -121l-18 15q12 24 43.5 45t77 37.5t98.5 25.5t106 9q93 0 163 -21t110 -53l-80 -92l-7 -8l-5 5q-1 8 -7 12t-21 11q-39 17 -83.5 23.5t-92.5 6.5q-50 0 -100 -7t-91 -24t-66 -45.5t-25 -71.5v-219h-155v472z" />
    <glyph glyph-name="uni0259" unicode="&#x259;" 
d="M453 481q101 0 187.5 -15.5t152 -45.5t102 -74.5t36.5 -101.5q0 -58 -32 -105t-91.5 -80t-143 -51t-185.5 -18q-98 0 -173 20t-126.5 55.5t-78 83t-26.5 103.5q0 8 1.5 16.5t2.5 16.5h710q-9 18 -35.5 33t-69 25.5t-101.5 16t-134 5.5q-47 0 -100.5 -3t-98.5 -10t-65 -18
l-80 77q35 23 90.5 38.5t122.5 23.5t135 8zM789 178h-574q6 -18 29.5 -32t60.5 -23.5t84 -14.5t100 -5q68 0 119 5t88 14.5t60 23.5t33 32z" />
    <glyph glyph-name="uni027B" unicode="&#x27b;" 
d="M786 -177q-63 0 -111.5 10t-81.5 32t-50 57.5t-17 86.5v57q-19 -27 -58 -44t-90.5 -25t-108.5 -8q-65 0 -120 12.5t-106 37.5l69 111l6 9l6 -4q2 -8 7.5 -12.5t20.5 -11.5q30 -13 61 -19t71 -6q47 0 90 6.5t76.5 22.5t53.5 44t20 71v221h155v-452q0 -24 10.5 -43t36 -30
t69.5 -11q13 0 29.5 1t33.5 3.5t32 6.5q10 3 14 6.5t6.5 7.5t9.5 6l50 -105q-33 -18 -78.5 -28t-105.5 -10v0z" />
    <glyph glyph-name="uni0298" unicode="&#x298;" 
d="M500 -11q-138 0 -240.5 39.5t-159 111t-56.5 168.5q0 94 56.5 165.5t159 112.5t240.5 41t240.5 -41t159 -112.5t56.5 -165.5q0 -97 -56.5 -168.5t-159 -111t-240.5 -39.5zM500 113q100 0 167 22.5t101 66t34 106.5q0 59 -34 102.5t-101 68t-167 24.5t-167 -24.5t-101 -68
t-34 -102.5q0 -63 34 -106.5t101 -66t167 -22.5zM468 237q-31 0 -53 22t-22 53t21.5 53.5t53.5 22.5q31 0 53.5 -23t22.5 -53q0 -31 -22.5 -53t-53.5 -22z" />
    <glyph glyph-name="uni029A" unicode="&#x29a;" 
d="M473 -8q-123 1 -213 18t-139.5 49.5t-49.5 78.5q0 31 21.5 51.5t53.5 33.5t63 19q-36 14 -59 35.5t-23 58.5q0 38 44 68.5t125 48.5t193 18q136 0 234 -32.5t151 -87.5t53 -125q0 -69 -55 -122t-157 -82.5t-242 -29.5zM473 118q100 0 164.5 14.5t96 39t31.5 55.5
q0 32 -29 56t-91.5 38t-161.5 14q-77 0 -118.5 -3.5t-57.5 -10t-16 -17.5q0 -10 17.5 -15t59.5 -6.5t115 -1.5h24t24 1v-105q-13 1 -24.5 1.5l-23 1t-24.5 0.5q-53 0 -93.5 -0.5t-67.5 -2.5t-40.5 -7t-13.5 -14q0 -14 24.5 -22.5t75 -12t129.5 -3.5z" />
    <glyph glyph-name="uni02B9" unicode="&#x2b9;" 
d="M566 529h-124l50 200h202z" />
    <glyph glyph-name="uni02BA" unicode="&#x2ba;" 
d="M706 529h-124l50 200h202zM446 529h-124l50 200h202z" />
    <glyph glyph-name="uni02BB" unicode="&#x2bb;" 
d="M538 635l63 -73q-42 -27 -62.5 -48.5t-20.5 -35.5q0 -15 10.5 -24.5t21 -22t10.5 -34.5q0 -29 -26.5 -53.5t-66.5 -24.5q-47 0 -74.5 22t-27.5 62q0 34 24.5 77.5t64 84.5t84.5 70z" />
    <glyph glyph-name="uni02BC" unicode="&#x2bc;" 
d="M476 427l-83 65q34 17 52.5 31.5t25.5 26t7 18.5q0 12 -8 18.5t-18 11t-18 12t-8 22.5q0 23 28.5 42t74.5 19q53 0 85 -24.5t32 -63.5q0 -23 -11.5 -50t-48 -59t-110.5 -69z" />
    <glyph glyph-name="uni02BE" unicode="&#x2be;" 
d="M376 467v88q21 0 35 4t21.5 11t7.5 15q0 13 -16 20.5t-48 7.5v89q76 0 131.5 -15.5t86 -42.5t30.5 -60q0 -32 -28.5 -59t-84 -42.5t-135.5 -15.5z" />
    <glyph glyph-name="uni02BF" unicode="&#x2bf;" 
d="M624 467q-80 0 -135.5 15.5t-84 42.5t-28.5 59q0 33 30.5 60t86 42.5t131.5 15.5v-89q-31 0 -47.5 -7.5t-16.5 -20.5q0 -8 7.5 -15t21.5 -11t35 -4v-88z" />
    <glyph glyph-name="circumflex" unicode="&#x2c6;" 
d="M706 510l-206 86l-234 -84l-51 81l255 112h78l228 -112z" />
    <glyph glyph-name="caron" unicode="&#x2c7;" 
d="M472 510l-228 129l92 68l180 -88l188 87l70 -68l-226 -128h-76z" />
    <glyph glyph-name="uni02C8" unicode="&#x2c8;" 
d="M628 445h-162v220h162v-220z" />
    <glyph glyph-name="uni02C9" unicode="&#x2c9;" 
d="M196 535v119h594v-119h-594z" />
    <glyph glyph-name="uni02CA" unicode="&#x2ca;" 
d="M550 548h-156l172 156h202z" />
    <glyph glyph-name="uni02CB" unicode="&#x2cb;" 
d="M567 502l-251 110l144 110l231 -146z" />
    <glyph glyph-name="uni02CC" unicode="&#x2cc;" 
d="M580 -190h-158v220h158v-220z" />
    <glyph glyph-name="breve" unicode="&#x2d8;" 
d="M498 514q-72 0 -162 19.5t-188 67.5l156 93q45 -41 101.5 -56t104.5 -15q45 0 101 14t108 57l121 -92q-49 -29 -107.5 -48.5t-119 -29.5t-115.5 -10z" />
    <glyph glyph-name="dotaccent" unicode="&#x2d9;" 
d="M504 517q-36 0 -61.5 25.5t-25.5 61.5q0 37 25 62.5t62 25.5q35 0 61.5 -26.5t26.5 -61.5q0 -36 -26.5 -61.5t-61.5 -25.5z" />
    <glyph glyph-name="ring" unicode="&#x2da;" 
d="M488 510q-60 0 -110.5 14.5t-81 39t-30.5 54.5q0 29 30 53t80.5 38.5t111.5 14.5q62 0 114 -14.5t83 -38.5t31 -52q0 -30 -31.5 -55t-83.5 -39.5t-113 -14.5zM490 596q40 0 65 6t25 18q0 11 -25 17.5t-65 6.5q-41 0 -65.5 -6.5t-24.5 -17.5q0 -12 24.5 -18t65.5 -6z" />
    <glyph glyph-name="ogonek" unicode="&#x2db;" 
d="M761 -133l-19 -94q-79 4 -128.5 18t-72.5 35.5t-23 46.5q0 27 30.5 54t85.5 54t126 53l98 -34q-52 -18 -95 -35t-68 -33.5t-25 -34.5q0 -15 28.5 -21.5t62.5 -8.5z" />
    <glyph glyph-name="tilde" unicode="&#x2dc;" 
d="M785 712l77 -88q-35 -37 -80.5 -58.5t-105.5 -21.5q-45 0 -79.5 8t-64 19t-58 19t-62.5 8t-69 -15t-58 -37l-77 87q29 31 75.5 55.5t124.5 24.5q44 0 77 -8t61 -19t57 -19t65 -8q32 0 62.5 15.5t54.5 37.5z" />
    <glyph glyph-name="hungarumlaut" unicode="&#x2dd;" 
d="M622 522l-130 50l176 127l166 -62zM312 522l-130 50l176 127l166 -62z" />
    <glyph glyph-name="gravecomb" unicode="&#x300;" horiz-adv-x="0" 
d="M556 477l-262 117l160 88l238 -136z" />
    <glyph glyph-name="acutecomb" unicode="&#x301;" horiz-adv-x="0" 
d="M453 477l-136 69l238 136l160 -88z" />
    <glyph glyph-name="uni0302" unicode="&#x302;" horiz-adv-x="0" 
d="M268 511l-70 84l268 90h68l268 -90l-70 -84l-232 74z" />
    <glyph glyph-name="tildecomb" unicode="&#x303;" horiz-adv-x="0" 
d="M785 712l77 -88q-35 -37 -80.5 -58.5t-105.5 -21.5q-45 0 -79.5 8t-64 19t-58 19t-62.5 8t-69 -15t-58 -37l-77 87q29 31 75.5 55.5t124.5 24.5q44 0 77 -8t61 -19t57 -19t65 -8q32 0 62.5 15.5t54.5 37.5z" />
    <glyph glyph-name="uni0304" unicode="&#x304;" horiz-adv-x="0" 
d="M196 557v99h594v-99h-594z" />
    <glyph glyph-name="uni0306" unicode="&#x306;" horiz-adv-x="0" 
d="M728 664l66 -68q-51 -39 -125.5 -64.5t-152.5 -25.5t-152.5 27t-125.5 74l66 68q44 -40 98 -61.5t114 -21.5q40 0 77.5 7t71.5 23t63 42z" />
    <glyph glyph-name="uni0307" unicode="&#x307;" horiz-adv-x="0" 
d="M504 517q-36 0 -61.5 25.5t-25.5 61.5q0 37 25 62.5t62 25.5q35 0 61.5 -26.5t26.5 -61.5q0 -36 -26.5 -61.5t-61.5 -25.5z" />
    <glyph glyph-name="uni0308" unicode="&#x308;" horiz-adv-x="0" 
d="M311 534q-31 0 -54 23t-23 55q0 31 22 54t55 23q32 0 55 -23t23 -55q0 -31 -23 -54t-55 -23zM689 534q-31 0 -54 23t-23 54q0 32 22 55t55 23q32 0 55 -23t23 -55q0 -31 -23 -54t-55 -23z" />
    <glyph glyph-name="hookabovecomb" unicode="&#x309;" horiz-adv-x="0" 
d="M658 631q0 -23 -18 -37t-42 -23.5t-42 -18t-18 -22.5v-7h-122v20q0 16 17 28t40 21t40 16.5t17 14.5q0 8 -16.5 13t-44.5 5q-30 0 -61 -12t-51 -32l-59 69q36 23 79 38t101 15q47 0 88 -11.5t66.5 -31.5t25.5 -45z" />
    <glyph glyph-name="uni030A" unicode="&#x30a;" horiz-adv-x="0" 
d="M488 510q-60 0 -110.5 14.5t-81 39t-30.5 54.5q0 29 30 53t80.5 38.5t111.5 14.5q62 0 114 -14.5t83 -38.5t31 -52q0 -30 -31.5 -55t-83.5 -39.5t-113 -14.5zM490 596q40 0 65 6t25 18q0 11 -25 17.5t-65 6.5q-41 0 -65.5 -6.5t-24.5 -17.5q0 -12 24.5 -18t65.5 -6z" />
    <glyph glyph-name="uni030B" unicode="&#x30b;" horiz-adv-x="0" 
d="M622 522l-130 50l176 127l166 -62zM312 522l-130 50l176 127l166 -62z" />
    <glyph glyph-name="uni030C" unicode="&#x30c;" horiz-adv-x="0" 
d="M278 688l232 -74l232 74l70 -84l-268 -90h-68l-268 90z" />
    <glyph glyph-name="uni030F" unicode="&#x30f;" horiz-adv-x="0" 
d="M438 477l-262 117l160 88l238 -136zM758 477l-262 117l160 88l238 -136z" />
    <glyph glyph-name="uni0311" unicode="&#x311;" horiz-adv-x="0" 
d="M304 518l-66 68q51 39 125.5 64.5t152.5 25.5t152.5 -27t125.5 -74l-66 -68q-44 40 -98 61.5t-114 21.5q-40 0 -77.5 -7t-71 -22.5t-63.5 -42.5z" />
    <glyph glyph-name="uni0312" unicode="&#x312;" horiz-adv-x="0" 
d="M535 821l70 -81q-46 -31 -69 -54.5t-23 -39.5q0 -12 7 -21t16.5 -17.5t16.5 -20.5t7 -31q0 -32 -29.5 -59t-74.5 -27q-52 0 -82.5 24.5t-30.5 68.5q0 29 16 63.5t43 70t61.5 68t71.5 56.5z" />
    <glyph glyph-name="uni031B" unicode="&#x31b;" horiz-adv-x="0" 
d="M970 555q0 -78 -19.5 -120t-59 -57.5t-99.5 -15.5v109q32 0 46 19.5t14 64.5h118z" />
    <glyph glyph-name="dotbelowcomb" unicode="&#x323;" horiz-adv-x="0" 
d="M478 -193q-36 0 -61.5 25.5t-25.5 61.5q0 37 25 62.5t62 25.5q35 0 61.5 -26.5t26.5 -61.5q0 -36 -26.5 -61.5t-61.5 -25.5z" />
    <glyph glyph-name="uni0324" unicode="&#x324;" horiz-adv-x="0" 
d="M311 -196q-31 0 -54 23t-23 55q0 31 22 54t55 23q32 0 55 -23t23 -55q0 -31 -23 -54t-55 -23zM689 -196q-31 0 -54 23t-23 54q0 32 22 55t55 23q32 0 55 -23t23 -55q0 -31 -23 -54t-55 -23z" />
    <glyph glyph-name="uni0326" unicode="&#x326;" horiz-adv-x="0" 
d="M424 -275l-63 73q42 27 62.5 48.5t20.5 35.5q0 15 -10.5 24.5t-21 22t-10.5 34.5q0 29 26.5 53.5t66.5 24.5q47 0 74.5 -22t27.5 -62q0 -34 -24.5 -77.5t-64 -84.5t-84.5 -70z" />
    <glyph glyph-name="uni0327" unicode="&#x327;" horiz-adv-x="0" 
d="M536 -197q-52 0 -101.5 7.5t-96.5 23.5l42 68q38 -15 85.5 -20.5t96.5 -5.5q33 0 56.5 2.5t23.5 12.5q0 12 -25.5 15t-52.5 3h-80l18 91h128l-6 -31q54 -2 85.5 -14.5t45 -29.5t13.5 -34q0 -37 -56.5 -62.5t-175.5 -25.5z" />
    <glyph glyph-name="uni0328" unicode="&#x328;" horiz-adv-x="0" 
d="M561 -133l-19 -94q-79 4 -128.5 18t-72.5 35.5t-23 46.5q0 27 30.5 54t85.5 54t126 53l98 -34q-52 -18 -95 -35t-68 -33.5t-25 -34.5q0 -15 28.5 -21.5t62.5 -8.5z" />
    <glyph glyph-name="uni032E" unicode="&#x32e;" horiz-adv-x="0" 
d="M728 -49l66 -68q-51 -39 -125.5 -64.5t-152.5 -25.5t-152.5 27t-125.5 74l66 68q44 -40 98 -61.5t114 -21.5q40 0 77.5 7t71.5 23t63 42z" />
    <glyph glyph-name="uni0331" unicode="&#x331;" horiz-adv-x="0" 
d="M196 -163v99h594v-99h-594z" />
    <glyph glyph-name="uni0335" unicode="&#x335;" horiz-adv-x="0" 
d="M218 254v121h558v-121h-558z" />
    <glyph glyph-name="uni0336" unicode="&#x336;" horiz-adv-x="0" 
d="M212 250v129h580v-129h-580z" />
    <glyph glyph-name="uni0375" unicode="&#x375;" 
d="M494 -76h-134l130 200h202z" />
    <glyph glyph-name="uni1E08" unicode="&#x1e08;" 
d="M569 -10q-106 0 -195.5 21t-155 62t-101.5 100t-36 135q0 71 28 124t76.5 90.5t110 60.5t130 34t135.5 11q135 0 231.5 -29.5t144.5 -85.5l-78 -92l-7 -8l-5 5q-1 8 -5.5 13.5t-18.5 15.5q-47 31 -115 43.5t-151 12.5q-67 0 -125.5 -11.5t-103 -35.5t-69 -59.5
t-24.5 -83.5t24 -85t68 -62t104 -38t132 -13q50 0 105.5 7.5t103.5 23.5t76 39l71 -102q-60 -50 -144 -71.5t-206 -21.5v0zM553 -197q-52 0 -101.5 7.5t-96.5 23.5l42 68q38 -15 85.5 -20.5t96.5 -5.5q33 0 56.5 2.5t23.5 12.5q0 12 -25.5 15t-52.5 3h-80l18 91h128l-6 -31
q54 -2 85.5 -14.5t45 -29.5t13.5 -34q0 -37 -56.5 -62.5t-175.5 -25.5zM391 636l-33 105l321 86l43 -133z" />
    <glyph glyph-name="uni1E09" unicode="&#x1e09;" 
d="M569 -11q-100 0 -186 17.5t-151 50.5t-101.5 78.5t-36.5 100.5q0 61 36.5 107t101 77t150.5 46.5t185 15.5q111 0 201 -21t145 -61l-74 -107l-6 -8l-6 4q-1 8 -7 13t-20 13q-49 24 -112 33.5t-137 9.5q-58 0 -110 -7t-92.5 -21.5t-63.5 -36.5t-23 -52q0 -28 23 -51.5
t65 -40.5t99.5 -26.5t126.5 -9.5q46 0 93.5 5.5t90 16.5t71.5 27l69 -108q-67 -37 -151 -51t-180 -14v0zM565 -197q-52 0 -101.5 7.5t-96.5 23.5l42 68q38 -15 85.5 -20.5t96.5 -5.5q33 0 56.5 2.5t23.5 12.5q0 12 -25.5 15t-52.5 3h-80l18 91h128l-6 -31q54 -2 85.5 -14.5
t45 -29.5t13.5 -34q0 -37 -56.5 -62.5t-175.5 -25.5zM513 493l-136 69l238 136l160 -88z" />
    <glyph glyph-name="uni1E0C" unicode="&#x1e0c;" 
d="M88 -1v624h310q107 0 182 -11t127.5 -31t93.5 -48t72.5 -61.5t49 -74t17.5 -89.5q-3 -73 -37.5 -130.5t-103 -97t-174 -60.5t-251.5 -21h-286zM242 123h126q151 0 243.5 22t134.5 63t42 96q0 58 -41 102t-129 68.5t-228 24.5h-148v-376zM446 -193q-36 0 -61.5 25.5
t-25.5 61.5q0 37 25 62.5t62 25.5q35 0 61.5 -26.5t26.5 -61.5q0 -36 -26.5 -61.5t-61.5 -25.5z" />
    <glyph glyph-name="uni1E0D" unicode="&#x1e0d;" 
d="M457 -10q-91 3 -165.5 19.5t-129 47t-84 75.5t-29.5 104q0 65 34 111.5t92 76.5t133.5 44t157.5 14q80 0 138.5 -11.5t98 -31t58.5 -42.5v268h153h10v-7q-6 -6 -7.5 -13t-1.5 -24v-550q0 -18 3 -35.5t13 -35.5h-162l-6.5 19.5t-5.5 22t-2 23.5q-18 -22 -65 -39.5
t-108.5 -27.5t-124.5 -8v0zM479 114q72 0 125.5 8t88 23.5t51.5 38t17 52.5q0 41 -35.5 68t-101 40.5t-157.5 13.5q-63 0 -112 -6.5t-83 -21.5t-51.5 -38t-17.5 -56q0 -40 31 -67.5t92.5 -41t152.5 -13.5v0zM499 -193q-36 0 -61.5 25.5t-25.5 61.5q0 37 25 62.5t62 25.5
q35 0 61.5 -26.5t26.5 -61.5q0 -36 -26.5 -61.5t-61.5 -25.5z" />
    <glyph glyph-name="uni1E0E" unicode="&#x1e0e;" 
d="M88 -1v624h310q107 0 182 -11t127.5 -31t93.5 -48t72.5 -61.5t49 -74t17.5 -89.5q-3 -73 -37.5 -130.5t-103 -97t-174 -60.5t-251.5 -21h-286zM242 123h126q151 0 243.5 22t134.5 63t42 96q0 58 -41 102t-129 68.5t-228 24.5h-148v-376zM146 -163v99h594v-99h-594z" />
    <glyph glyph-name="uni1E0F" unicode="&#x1e0f;" 
d="M457 -10q-91 3 -165.5 19.5t-129 47t-84 75.5t-29.5 104q0 65 34 111.5t92 76.5t133.5 44t157.5 14q80 0 138.5 -11.5t98 -31t58.5 -42.5v268h153h10v-7q-6 -6 -7.5 -13t-1.5 -24v-550q0 -18 3 -35.5t13 -35.5h-162l-6.5 19.5t-5.5 22t-2 23.5q-18 -22 -65 -39.5
t-108.5 -27.5t-124.5 -8v0zM479 114q72 0 125.5 8t88 23.5t51.5 38t17 52.5q0 41 -35.5 68t-101 40.5t-157.5 13.5q-63 0 -112 -6.5t-83 -21.5t-51.5 -38t-17.5 -56q0 -40 31 -67.5t92.5 -41t152.5 -13.5v0zM199 -163v99h594v-99h-594z" />
    <glyph glyph-name="uni1E14" unicode="&#x1e14;" 
d="M88 0v624h824v-120h-670v-119h560v-120h-560v-145h664v-120h-818zM236 723v99h594v-99h-594zM684 790l-331 58l43 133l321 -86z" />
    <glyph glyph-name="uni1E15" unicode="&#x1e15;" 
d="M547 -10q-100 0 -187 15.5t-152.5 45.5t-102 74.5t-36.5 101.5q0 58 32 105t91.5 80t143 51t185.5 18q98 0 173 -20t126.5 -55.5t78 -83t26.5 -103.5q0 -8 -1 -16.5t-3 -16.5h-710q9 -18 35.5 -33t69 -25.5t101.5 -16t134 -5.5q47 0 101 3t98.5 10t64.5 18l80 -77
q-34 -22 -90 -38t-123 -24t-135 -8zM211 293h574q-6 18 -29.5 32t-60.5 23.5t-84 14.5t-100 5q-67 0 -118.5 -5t-88.5 -14.5t-59.5 -23.5t-33.5 -32zM217 557v99h594v-99h-594zM555 631l-262 117l160 88l238 -136z" />
    <glyph glyph-name="uni1E16" unicode="&#x1e16;" 
d="M88 0v624h824v-120h-670v-119h560v-120h-560v-145h664v-120h-818zM236 723v99h594v-99h-594zM392 790l-33 105l321 86l43 -133z" />
    <glyph glyph-name="uni1E17" unicode="&#x1e17;" 
d="M547 -10q-100 0 -187 15.5t-152.5 45.5t-102 74.5t-36.5 101.5q0 58 32 105t91.5 80t143 51t185.5 18q98 0 173 -20t126.5 -55.5t78 -83t26.5 -103.5q0 -8 -1 -16.5t-3 -16.5h-710q9 -18 35.5 -33t69 -25.5t101.5 -16t134 -5.5q47 0 101 3t98.5 10t64.5 18l80 -77
q-34 -22 -90 -38t-123 -24t-135 -8zM211 293h574q-6 18 -29.5 32t-60.5 23.5t-84 14.5t-100 5q-67 0 -118.5 -5t-88.5 -14.5t-59.5 -23.5t-33.5 -32zM217 557v99h594v-99h-594zM463 631l-136 69l238 136l160 -88z" />
    <glyph glyph-name="uni1E1C" unicode="&#x1e1c;" 
d="M88 0v624h824v-120h-670v-119h560v-120h-560v-145h664v-120h-818zM494 -197q-52 0 -101.5 7.5t-96.5 23.5l42 68q38 -15 85.5 -20.5t96.5 -5.5q33 0 56.5 2.5t23.5 12.5q0 12 -25.5 15t-52.5 3h-80l18 91h128l-6 -31q54 -2 85.5 -14.5t45 -29.5t13.5 -34
q0 -37 -56.5 -62.5t-175.5 -25.5zM752 797l66 -68q-51 -39 -125.5 -64.5t-152.5 -25.5t-152.5 27t-125.5 74l66 68q44 -40 98 -61.5t114 -21.5q40 0 77.5 7t71.5 23t63 42z" />
    <glyph glyph-name="uni1E1D" unicode="&#x1e1d;" 
d="M547 -10q-100 0 -187 15.5t-152.5 45.5t-102 74.5t-36.5 101.5q0 58 32 105t91.5 80t143 51t185.5 18q98 0 173 -20t126.5 -55.5t78 -83t26.5 -103.5q0 -8 -1 -16.5t-3 -16.5h-710q9 -18 35.5 -33t69 -25.5t101.5 -16t134 -5.5q47 0 101 3t98.5 10t64.5 18l80 -77
q-34 -22 -90 -38t-123 -24t-135 -8zM211 293h574q-6 18 -29.5 32t-60.5 23.5t-84 14.5t-100 5q-67 0 -118.5 -5t-88.5 -14.5t-59.5 -23.5t-33.5 -32zM541 -197q-52 0 -101.5 7.5t-96.5 23.5l42 68q38 -15 85.5 -20.5t96.5 -5.5q33 0 56.5 2.5t23.5 12.5q0 12 -25.5 15
t-52.5 3h-80l18 91h128l-6 -31q54 -2 85.5 -14.5t45 -29.5t13.5 -34q0 -37 -56.5 -62.5t-175.5 -25.5zM733 664l66 -68q-51 -39 -125.5 -64.5t-152.5 -25.5t-152.5 27t-125.5 74l66 68q44 -40 98 -61.5t114 -21.5q40 0 77.5 7t71.5 23t63 42z" />
    <glyph glyph-name="uni1E20" unicode="&#x1e20;" 
d="M544 -10q-149 0 -259.5 39t-171.5 110t-61 165q-2 81 30 137.5t86 93.5t119 58t130.5 29t120.5 8q74 0 147.5 -13.5t134.5 -36.5t96 -55l-78 -102l-6 -8l-6 4q-1 8 -6 13.5t-19 15.5q-32 20 -75 32.5t-91.5 18.5t-98.5 6q-54 0 -103.5 -6t-91 -19.5t-72.5 -35.5t-48 -53
t-17 -72q0 -48 23 -85.5t67.5 -64.5t107.5 -41t142 -14q27 0 56.5 2t58.5 6.5t57 12t52 17.5v65h-214v123h366v-285q-88 -32 -184.5 -48.5t-191.5 -16.5v0zM244 723v99h594v-99h-594z" />
    <glyph glyph-name="uni1E21" unicode="&#x1e21;" 
d="M488 -172q-96 -1 -178 6t-143 22t-95 37.5t-34 52.5q0 32 23.5 52t63 33t87.5 23l132 -29q-42 -4 -78.5 -11t-59 -17t-22.5 -23q0 -10 15.5 -17.5t50.5 -13t94 -8t146 -2.5q91 0 153.5 4.5t94.5 13t32 21.5q0 10 -20.5 18t-73 13t-148.5 4q-75 -1 -138 2t-112 10.5
t-83.5 19t-52.5 28t-18 37.5q0 26 36.5 53t93.5 49l119 -27q-21 -5 -47.5 -11.5t-46 -15.5t-19.5 -21q0 -11 27.5 -16t90.5 -6t170 -1q105 0 176 -9.5t113 -27t60.5 -41t18.5 -52.5q0 -27 -22 -52.5t-71.5 -47t-131.5 -35t-203 -15.5zM446 168q-114 0 -192.5 22.5t-119 58.5
t-40.5 76q0 44 40.5 79.5t119 56.5t192.5 21q110 0 189 -15.5t121.5 -50t41.5 -91.5q0 -51 -42.5 -86t-121 -53t-188.5 -18zM446 273q66 0 114 5t73.5 17t25.5 31q0 20 -25.5 31t-73.5 16t-114 5q-56 0 -104.5 -5t-78.5 -16t-30 -31q0 -19 31 -31t79.5 -17t102.5 -5z
M739 342l-73 74q59 29 121 42.5t149 10.5l24 -84q-66 3 -122 -6t-99 -37zM172 557v99h594v-99h-594z" />
    <glyph glyph-name="uni1E24" unicode="&#x1e24;" 
d="M56 623h152h10v-7q-6 -6 -7.5 -13t-1.5 -24v-192h563v236h153h10v-7q-6 -6 -7.5 -13t-1.5 -24v-579h-153v267h-564v-267h-153v623zM499 -193q-36 0 -61.5 25.5t-25.5 61.5q0 37 25 62.5t62 25.5q35 0 61.5 -26.5t26.5 -61.5q0 -36 -26.5 -61.5t-61.5 -25.5z" />
    <glyph glyph-name="uni1E25" unicode="&#x1e25;" 
d="M106 665h153h10v-7q-6 -6 -7.5 -13t-1.5 -24v-236q36 35 80 56t103 30.5t140 9.5q95 0 168.5 -30t115 -85t41.5 -129v-237h-154v231q0 42 -26.5 68t-71.5 38.5t-103 12.5q-35 0 -75 -3.5t-78.5 -11.5t-70 -21.5t-50.5 -33t-19 -46.5v-234h-154v665zM506 -193
q-36 0 -61.5 25.5t-25.5 61.5q0 37 25 62.5t62 25.5q35 0 61.5 -26.5t26.5 -61.5q0 -36 -26.5 -61.5t-61.5 -25.5z" />
    <glyph glyph-name="uni1E2A" unicode="&#x1e2a;" 
d="M56 623h152h10v-7q-6 -6 -7.5 -13t-1.5 -24v-192h563v236h153h10v-7q-6 -6 -7.5 -13t-1.5 -24v-579h-153v267h-564v-267h-153v623zM731 -49l66 -68q-51 -39 -125.5 -64.5t-152.5 -25.5t-152.5 27t-125.5 74l66 68q44 -40 98 -61.5t114 -21.5q40 0 77.5 7t71.5 23t63 42z
" />
    <glyph glyph-name="uni1E2B" unicode="&#x1e2b;" 
d="M106 665h153h10v-7q-6 -6 -7.5 -13t-1.5 -24v-236q36 35 80 56t103 30.5t140 9.5q95 0 168.5 -30t115 -85t41.5 -129v-237h-154v231q0 42 -26.5 68t-71.5 38.5t-103 12.5q-35 0 -75 -3.5t-78.5 -11.5t-70 -21.5t-50.5 -33t-19 -46.5v-234h-154v665zM738 -49l66 -68
q-51 -39 -125.5 -64.5t-152.5 -25.5t-152.5 27t-125.5 74l66 68q44 -40 98 -61.5t114 -21.5q40 0 77.5 7t71.5 23t63 42z" />
    <glyph glyph-name="uni1E2E" unicode="&#x1e2e;" 
d="M141 0v124h260v375h-246v124h648v-124h-249v-376h261v-123h-674zM286 677q-31 0 -54 23t-23 55q0 31 22 54t55 23q32 0 55 -23t23 -55q0 -31 -23 -54t-55 -23zM664 677q-31 0 -54 23t-23 54q0 32 22 55t55 23q32 0 55 -23t23 -55q0 -31 -23 -54t-55 -23zM325 778l-33 105
l321 86l43 -133z" />
    <glyph glyph-name="uni1E2F" unicode="&#x1e2f;" 
d="M175 0v124h259v223h-247v124h401v-347h239v-124h-652zM314 548q-31 0 -54 23t-23 55q0 31 22 54t55 23q32 0 55 -23t23 -55q0 -31 -23 -54t-55 -23zM692 548q-31 0 -54 23t-23 54q0 32 22 55t55 23q32 0 55 -23t23 -55q0 -31 -23 -54t-55 -23zM449 639l-136 69l238 136
l160 -88z" />
    <glyph glyph-name="uni1E36" unicode="&#x1e36;" 
d="M102 623h162h10v-7q-6 -6 -7.5 -13t-1.5 -24v-459h643v-120h-806v623zM500 -193q-36 0 -61.5 25.5t-25.5 61.5q0 37 25 62.5t62 25.5q35 0 61.5 -26.5t26.5 -61.5q0 -36 -26.5 -61.5t-61.5 -25.5z" />
    <glyph glyph-name="uni1E37" unicode="&#x1e37;" 
d="M128 0v124h296v417h-284v124h438v-541h295v-124h-745zM500 -193q-36 0 -61.5 25.5t-25.5 61.5q0 37 25 62.5t62 25.5q35 0 61.5 -26.5t26.5 -61.5q0 -36 -26.5 -61.5t-61.5 -25.5z" />
    <glyph glyph-name="uni1E3A" unicode="&#x1e3a;" 
d="M102 623h162h10v-7q-6 -6 -7.5 -13t-1.5 -24v-459h643v-120h-806v623zM200 -163v99h594v-99h-594z" />
    <glyph glyph-name="uni1E3B" unicode="&#x1e3b;" 
d="M128 0v124h296v417h-284v124h438v-541h295v-124h-745zM200 -163v99h594v-99h-594z" />
    <glyph glyph-name="uni1E42" unicode="&#x1e42;" 
d="M72 0v623h142l286 -275l292 276h138v-624h-154v454l-258 -241h-54l-240 238v-451h-152zM500 -193q-36 0 -61.5 25.5t-25.5 61.5q0 37 25 62.5t62 25.5q35 0 61.5 -26.5t26.5 -61.5q0 -36 -26.5 -61.5t-61.5 -25.5z" />
    <glyph glyph-name="uni1E43" unicode="&#x1e43;" 
d="M51 0v471h154v-69q16 22 41 40t57 29t68 11q40 0 75 -14.5t58 -35.5t27 -41q17 20 47.5 41.5t70.5 36t85 13.5q74 -1 118 -19.5t67 -45.5t30.5 -56.5t7.5 -52.5v-308h-156v281q0 34 -12 53.5t-32.5 28.5t-44.5 9q-38 0 -67 -15.5t-45.5 -41t-16.5 -56.5v-259h-157v275
q0 35 -20.5 65t-68.5 30q-22 0 -44.5 -7.5t-42 -21t-31.5 -33.5t-12 -46v-262h-156zM500 -193q-36 0 -61.5 25.5t-25.5 61.5q0 37 25 62.5t62 25.5q35 0 61.5 -26.5t26.5 -61.5q0 -36 -26.5 -61.5t-61.5 -25.5z" />
    <glyph glyph-name="uni1E44" unicode="&#x1e44;" 
d="M86 623h154l516 -430v430h151h10v-7q-6 -6 -7.5 -13t-1.5 -24v-579h-128l-542 452v-452h-152v623zM498 667q-36 0 -61.5 25.5t-25.5 61.5q0 37 25 62.5t62 25.5q35 0 61.5 -26.5t26.5 -61.5q0 -36 -26.5 -61.5t-61.5 -25.5z" />
    <glyph glyph-name="uni1E45" unicode="&#x1e45;" 
d="M102 0v471h154v-86q27 34 76 55.5t116 32t146 9.5q96 0 165.5 -29t107 -83.5t37.5 -132.5v-237h-154v231q0 30 -20.5 57t-63.5 44.5t-112 17.5q-49 0 -101.5 -6t-97 -19.5t-72 -35.5t-27.5 -55v-234h-154zM529 517q-36 0 -61.5 25.5t-25.5 61.5q0 37 25 62.5t62 25.5
q35 0 61.5 -26.5t26.5 -61.5q0 -36 -26.5 -61.5t-61.5 -25.5z" />
    <glyph glyph-name="uni1E46" unicode="&#x1e46;" 
d="M86 623h154l516 -430v430h151h10v-7q-6 -6 -7.5 -13t-1.5 -24v-579h-128l-542 452v-452h-152v623zM500 -193q-36 0 -61.5 25.5t-25.5 61.5q0 37 25 62.5t62 25.5q35 0 61.5 -26.5t26.5 -61.5q0 -36 -26.5 -61.5t-61.5 -25.5z" />
    <glyph glyph-name="uni1E47" unicode="&#x1e47;" 
d="M102 0v471h154v-86q27 34 76 55.5t116 32t146 9.5q96 0 165.5 -29t107 -83.5t37.5 -132.5v-237h-154v231q0 30 -20.5 57t-63.5 44.5t-112 17.5q-49 0 -101.5 -6t-97 -19.5t-72 -35.5t-27.5 -55v-234h-154zM520 -193q-36 0 -61.5 25.5t-25.5 61.5q0 37 25 62.5t62 25.5
q35 0 61.5 -26.5t26.5 -61.5q0 -36 -26.5 -61.5t-61.5 -25.5z" />
    <glyph glyph-name="uni1E48" unicode="&#x1e48;" 
d="M86 623h154l516 -430v430h151h10v-7q-6 -6 -7.5 -13t-1.5 -24v-579h-128l-542 452v-452h-152v623zM200 -163v99h594v-99h-594z" />
    <glyph glyph-name="uni1E49" unicode="&#x1e49;" 
d="M102 0v471h154v-86q27 34 76 55.5t116 32t146 9.5q96 0 165.5 -29t107 -83.5t37.5 -132.5v-237h-154v231q0 30 -20.5 57t-63.5 44.5t-112 17.5q-49 0 -101.5 -6t-97 -19.5t-72 -35.5t-27.5 -55v-234h-154zM220 -163v99h594v-99h-594z" />
    <glyph glyph-name="uni1E4C" unicode="&#x1e4c;" 
d="M500 -11q-138 0 -240.5 39.5t-159 111t-56.5 168.5q0 94 56.5 165.5t159 112.5t240.5 41t240.5 -41t159 -112.5t56.5 -165.5q0 -97 -56.5 -168.5t-159 -111t-240.5 -39.5zM500 113q100 0 167 22.5t101 66t34 106.5q0 59 -34 102.5t-101 68t-167 24.5t-167 -24.5t-101 -68
t-34 -102.5q0 -63 34 -106.5t101 -66t167 -22.5zM773 806l77 -88q-35 -37 -80.5 -58.5t-105.5 -21.5q-45 0 -79.5 8t-64 19t-58 19t-62.5 8t-69 -15t-58 -37l-77 87q29 31 75.5 55.5t124.5 24.5q44 0 77 -8t61 -19t57 -19t65 -8q32 0 62.5 15.5t54.5 37.5zM352 771l-33 105
l321 86l43 -133z" />
    <glyph glyph-name="uni1E4D" unicode="&#x1e4d;" 
d="M497 -8q-135 -2 -232 29.5t-149.5 87.5t-52.5 125q0 70 52.5 126t149.5 89t232 33t230 -33t144.5 -89t49.5 -126q0 -69 -49.5 -124t-144.5 -86.5t-230 -31.5zM497 116q80 0 138 14t89 40.5t31 64.5q0 39 -31 66.5t-89 42t-138 14.5t-140.5 -14.5t-94 -42t-33.5 -66.5
q0 -38 33.5 -64.5t94 -40.5t140.5 -14zM762 726l77 -88q-35 -37 -80.5 -58.5t-105.5 -21.5q-45 0 -79.5 8t-64 19t-58 19t-62.5 8t-69 -15t-58 -37l-77 87q29 31 75.5 55.5t124.5 24.5q44 0 77 -8t61 -19t57 -19t65 -8q32 0 62.5 15.5t54.5 37.5zM439 670l-136 69l238 136
l160 -88z" />
    <glyph glyph-name="uni1E4E" unicode="&#x1e4e;" 
d="M500 -11q-138 0 -240.5 39.5t-159 111t-56.5 168.5q0 94 56.5 165.5t159 112.5t240.5 41t240.5 -41t159 -112.5t56.5 -165.5q0 -97 -56.5 -168.5t-159 -111t-240.5 -39.5zM500 113q100 0 167 22.5t101 66t34 106.5q0 59 -34 102.5t-101 68t-167 24.5t-167 -24.5t-101 -68
t-34 -102.5q0 -63 34 -106.5t101 -66t167 -22.5zM773 806l77 -88q-35 -37 -80.5 -58.5t-105.5 -21.5q-45 0 -79.5 8t-64 19t-58 19t-62.5 8t-69 -15t-58 -37l-77 87q29 31 75.5 55.5t124.5 24.5q44 0 77 -8t61 -19t57 -19t65 -8q32 0 62.5 15.5t54.5 37.5zM309 812
q-31 0 -54 23t-23 55q0 31 22 54t55 23q32 0 55 -23t23 -55q0 -31 -23 -54t-55 -23zM687 812q-31 0 -54 23t-23 54q0 32 22 55t55 23q32 0 55 -23t23 -55q0 -31 -23 -54t-55 -23z" />
    <glyph glyph-name="uni1E4F" unicode="&#x1e4f;" 
d="M497 -8q-135 -2 -232 29.5t-149.5 87.5t-52.5 125q0 70 52.5 126t149.5 89t232 33t230 -33t144.5 -89t49.5 -126q0 -69 -49.5 -124t-144.5 -86.5t-230 -31.5zM497 116q80 0 138 14t89 40.5t31 64.5q0 39 -31 66.5t-89 42t-138 14.5t-140.5 -14.5t-94 -42t-33.5 -66.5
q0 -38 33.5 -64.5t94 -40.5t140.5 -14zM762 726l77 -88q-35 -37 -80.5 -58.5t-105.5 -21.5q-45 0 -79.5 8t-64 19t-58 19t-62.5 8t-69 -15t-58 -37l-77 87q29 31 75.5 55.5t124.5 24.5q44 0 77 -8t61 -19t57 -19t65 -8q32 0 62.5 15.5t54.5 37.5zM306 727q-31 0 -54 23
t-23 55q0 31 22 54t55 23q32 0 55 -23t23 -55q0 -31 -23 -54t-55 -23zM684 727q-31 0 -54 23t-23 54q0 32 22 55t55 23q32 0 55 -23t23 -55q0 -31 -23 -54t-55 -23z" />
    <glyph glyph-name="uni1E50" unicode="&#x1e50;" 
d="M500 -11q-138 0 -240.5 39.5t-159 111t-56.5 168.5q0 94 56.5 165.5t159 112.5t240.5 41t240.5 -41t159 -112.5t56.5 -165.5q0 -97 -56.5 -168.5t-159 -111t-240.5 -39.5zM500 113q100 0 167 22.5t101 66t34 106.5q0 59 -34 102.5t-101 68t-167 24.5t-167 -24.5t-101 -68
t-34 -102.5q0 -63 34 -106.5t101 -66t167 -22.5zM196 723v99h594v-99h-594zM644 790l-331 58l43 133l321 -86z" />
    <glyph glyph-name="uni1E51" unicode="&#x1e51;" 
d="M497 -8q-135 -2 -232 29.5t-149.5 87.5t-52.5 125q0 70 52.5 126t149.5 89t232 33t230 -33t144.5 -89t49.5 -126q0 -69 -49.5 -124t-144.5 -86.5t-230 -31.5zM497 116q80 0 138 14t89 40.5t31 64.5q0 39 -31 66.5t-89 42t-138 14.5t-140.5 -14.5t-94 -42t-33.5 -66.5
q0 -38 33.5 -64.5t94 -40.5t140.5 -14zM193 571v99h594v-99h-594zM531 645l-262 117l160 88l238 -136z" />
    <glyph glyph-name="uni1E52" unicode="&#x1e52;" 
d="M500 -11q-138 0 -240.5 39.5t-159 111t-56.5 168.5q0 94 56.5 165.5t159 112.5t240.5 41t240.5 -41t159 -112.5t56.5 -165.5q0 -97 -56.5 -168.5t-159 -111t-240.5 -39.5zM500 113q100 0 167 22.5t101 66t34 106.5q0 59 -34 102.5t-101 68t-167 24.5t-167 -24.5t-101 -68
t-34 -102.5q0 -63 34 -106.5t101 -66t167 -22.5zM196 723v99h594v-99h-594zM352 790l-33 105l321 86l43 -133z" />
    <glyph glyph-name="uni1E53" unicode="&#x1e53;" 
d="M497 -8q-135 -2 -232 29.5t-149.5 87.5t-52.5 125q0 70 52.5 126t149.5 89t232 33t230 -33t144.5 -89t49.5 -126q0 -69 -49.5 -124t-144.5 -86.5t-230 -31.5zM497 116q80 0 138 14t89 40.5t31 64.5q0 39 -31 66.5t-89 42t-138 14.5t-140.5 -14.5t-94 -42t-33.5 -66.5
q0 -38 33.5 -64.5t94 -40.5t140.5 -14zM193 571v99h594v-99h-594zM439 645l-136 69l238 136l160 -88z" />
    <glyph glyph-name="uni1E5A" unicode="&#x1e5a;" 
d="M102 0v623h458q108 0 185 -25t118 -67.5t41 -95.5q0 -60 -34.5 -98.5t-94.5 -58t-135 -23.5l298 -255h-186l-286 246h-211v-246h-153zM255 366h311q103 0 143.5 19.5t40.5 49.5q0 20 -18 35t-60 24t-116 9h-301v-137zM500 -193q-36 0 -61.5 25.5t-25.5 61.5q0 37 25 62.5
t62 25.5q35 0 61.5 -26.5t26.5 -61.5q0 -36 -26.5 -61.5t-61.5 -25.5z" />
    <glyph glyph-name="uni1E5B" unicode="&#x1e5b;" 
d="M185 471h159l-6 -121l-18 15q12 24 43.5 45t77 37.5t98.5 25.5t106 9q93 0 163 -21t110 -53l-80 -92l-7 -8l-5 5q-1 8 -7 12t-21 11q-39 17 -83.5 23.5t-92.5 6.5q-50 0 -100 -7t-91 -24t-66 -45.5t-25 -71.5v-219h-155v472zM552 -193q-36 0 -61.5 25.5t-25.5 61.5
q0 37 25 62.5t62 25.5q35 0 61.5 -26.5t26.5 -61.5q0 -36 -26.5 -61.5t-61.5 -25.5z" />
    <glyph glyph-name="uni1E5E" unicode="&#x1e5e;" 
d="M102 0v623h458q108 0 185 -25t118 -67.5t41 -95.5q0 -60 -34.5 -98.5t-94.5 -58t-135 -23.5l298 -255h-186l-286 246h-211v-246h-153zM255 366h311q103 0 143.5 19.5t40.5 49.5q0 20 -18 35t-60 24t-116 9h-301v-137zM200 -163v99h594v-99h-594z" />
    <glyph glyph-name="uni1E5F" unicode="&#x1e5f;" 
d="M185 471h159l-6 -121l-18 15q12 24 43.5 45t77 37.5t98.5 25.5t106 9q93 0 163 -21t110 -53l-80 -92l-7 -8l-5 5q-1 8 -7 12t-21 11q-39 17 -83.5 23.5t-92.5 6.5q-50 0 -100 -7t-91 -24t-66 -45.5t-25 -71.5v-219h-155v472zM252 -163v99h594v-99h-594z" />
    <glyph glyph-name="uni1E60" unicode="&#x1e60;" 
d="M494 -10q-121 0 -223.5 20t-176.5 59l78 106l6 8l6 -4q2 -8 7.5 -12t20.5 -12q52 -23 127.5 -34t174.5 -11q56 0 102 4t80 11.5t52.5 19t18.5 25.5q0 11 -8.5 19t-28 16t-53.5 16.5t-84.5 19.5t-120.5 26q-131 26 -205 54t-103.5 64.5t-29.5 85.5q0 54 47.5 89.5t134 53
t204.5 17.5q68 0 134.5 -9t124.5 -26t101 -43l-67 -96l-6 -8l-6 4q-1 8 -7.5 11.5t-21.5 10.5q-53 21 -123.5 28.5t-150.5 7.5q-49 0 -88 -2.5t-66.5 -8.5t-41.5 -15.5t-14 -23.5q0 -8 8 -16t28 -16t55 -17.5t88 -21t129 -26.5q93 -19 155.5 -40.5t99.5 -45t53 -50.5t16 -58
q0 -50 -45.5 -91t-140 -65t-240.5 -24v0zM520 667q-36 0 -61.5 25.5t-25.5 61.5q0 37 25 62.5t62 25.5q35 0 61.5 -26.5t26.5 -61.5q0 -36 -26.5 -61.5t-61.5 -25.5z" />
    <glyph glyph-name="uni1E61" unicode="&#x1e61;" 
d="M524 -10q-82 0 -154 7.5t-133.5 24t-114.5 42.5l88 97l7 8l5 -5q1 -8 7.5 -10.5t22.5 -8.5q50 -17 122.5 -27t153.5 -10q68 0 116.5 3.5t74.5 11t26 17.5q0 7 -7 12t-29 9t-67 8.5t-122 10.5q-132 10 -212.5 25t-117 44.5t-36.5 81.5q0 46 42.5 80t123 52.5t192.5 18.5
q55 0 105 -3.5t95 -12.5t86 -23t78 -35l-73 -86l-7 -8l-5 5q-1 8 -7.5 10.5t-22.5 8.5q-46 14 -109.5 20t-135.5 6q-94 0 -152 -6.5t-58 -20.5q0 -8 24 -13.5t83 -11t163 -14.5q115 -9 185 -28t102.5 -51t32.5 -82q0 -47 -42.5 -80t-125.5 -50t-204 -17v0zM504 517
q-36 0 -61.5 25.5t-25.5 61.5q0 37 25 62.5t62 25.5q35 0 61.5 -26.5t26.5 -61.5q0 -36 -26.5 -61.5t-61.5 -25.5z" />
    <glyph glyph-name="uni1E62" unicode="&#x1e62;" 
d="M494 -10q-121 0 -223.5 20t-176.5 59l78 106l6 8l6 -4q2 -8 7.5 -12t20.5 -12q52 -23 127.5 -34t174.5 -11q56 0 102 4t80 11.5t52.5 19t18.5 25.5q0 11 -8.5 19t-28 16t-53.5 16.5t-84.5 19.5t-120.5 26q-131 26 -205 54t-103.5 64.5t-29.5 85.5q0 54 47.5 89.5t134 53
t204.5 17.5q68 0 134.5 -9t124.5 -26t101 -43l-67 -96l-6 -8l-6 4q-1 8 -7.5 11.5t-21.5 10.5q-53 21 -123.5 28.5t-150.5 7.5q-49 0 -88 -2.5t-66.5 -8.5t-41.5 -15.5t-14 -23.5q0 -8 8 -16t28 -16t55 -17.5t88 -21t129 -26.5q93 -19 155.5 -40.5t99.5 -45t53 -50.5t16 -58
q0 -50 -45.5 -91t-140 -65t-240.5 -24v0zM494 -193q-36 0 -61.5 25.5t-25.5 61.5q0 37 25 62.5t62 25.5q35 0 61.5 -26.5t26.5 -61.5q0 -36 -26.5 -61.5t-61.5 -25.5z" />
    <glyph glyph-name="uni1E63" unicode="&#x1e63;" 
d="M524 -10q-82 0 -154 7.5t-133.5 24t-114.5 42.5l88 97l7 8l5 -5q1 -8 7.5 -10.5t22.5 -8.5q50 -17 122.5 -27t153.5 -10q68 0 116.5 3.5t74.5 11t26 17.5q0 7 -7 12t-29 9t-67 8.5t-122 10.5q-132 10 -212.5 25t-117 44.5t-36.5 81.5q0 46 42.5 80t123 52.5t192.5 18.5
q55 0 105 -3.5t95 -12.5t86 -23t78 -35l-73 -86l-7 -8l-5 5q-1 8 -7.5 10.5t-22.5 8.5q-46 14 -109.5 20t-135.5 6q-94 0 -152 -6.5t-58 -20.5q0 -8 24 -13.5t83 -11t163 -14.5q115 -9 185 -28t102.5 -51t32.5 -82q0 -47 -42.5 -80t-125.5 -50t-204 -17v0zM478 -193
q-36 0 -61.5 25.5t-25.5 61.5q0 37 25 62.5t62 25.5q35 0 61.5 -26.5t26.5 -61.5q0 -36 -26.5 -61.5t-61.5 -25.5z" />
    <glyph glyph-name="uni1E64" unicode="&#x1e64;" 
d="M494 -10q-121 0 -223.5 20t-176.5 59l78 106l6 8l6 -4q2 -8 7.5 -12t20.5 -12q52 -23 127.5 -34t174.5 -11q56 0 102 4t80 11.5t52.5 19t18.5 25.5q0 11 -8.5 19t-28 16t-53.5 16.5t-84.5 19.5t-120.5 26q-131 26 -205 54t-103.5 64.5t-29.5 85.5q0 54 47.5 89.5t134 53
t204.5 17.5q68 0 134.5 -9t124.5 -26t101 -43l-67 -96l-6 -8l-6 4q-1 8 -7.5 11.5t-21.5 10.5q-53 21 -123.5 28.5t-150.5 7.5q-49 0 -88 -2.5t-66.5 -8.5t-41.5 -15.5t-14 -23.5q0 -8 8 -16t28 -16t55 -17.5t88 -21t129 -26.5q93 -19 155.5 -40.5t99.5 -45t53 -50.5t16 -58
q0 -50 -45.5 -91t-140 -65t-240.5 -24v0zM374 636l-33 105l321 86l43 -133zM520 785q-36 0 -61.5 25.5t-25.5 61.5q0 37 25 62.5t62 25.5q35 0 61.5 -26.5t26.5 -61.5q0 -36 -26.5 -61.5t-61.5 -25.5z" />
    <glyph glyph-name="uni1E65" unicode="&#x1e65;" 
d="M524 -10q-82 0 -154 7.5t-133.5 24t-114.5 42.5l88 97l7 8l5 -5q1 -8 7.5 -10.5t22.5 -8.5q50 -17 122.5 -27t153.5 -10q68 0 116.5 3.5t74.5 11t26 17.5q0 7 -7 12t-29 9t-67 8.5t-122 10.5q-132 10 -212.5 25t-117 44.5t-36.5 81.5q0 46 42.5 80t123 52.5t192.5 18.5
q55 0 105 -3.5t95 -12.5t86 -23t78 -35l-73 -86l-7 -8l-5 5q-1 8 -7.5 10.5t-22.5 8.5q-46 14 -109.5 20t-135.5 6q-94 0 -152 -6.5t-58 -20.5q0 -8 24 -13.5t83 -11t163 -14.5q115 -9 185 -28t102.5 -51t32.5 -82q0 -47 -42.5 -80t-125.5 -50t-204 -17v0zM453 477l-136 69
l238 136l160 -88zM529 669q-36 0 -61.5 25.5t-25.5 61.5q0 37 25 62.5t62 25.5q35 0 61.5 -26.5t26.5 -61.5q0 -36 -26.5 -61.5t-61.5 -25.5z" />
    <glyph glyph-name="uni1E66" unicode="&#x1e66;" 
d="M494 -10q-121 0 -223.5 20t-176.5 59l78 106l6 8l6 -4q2 -8 7.5 -12t20.5 -12q52 -23 127.5 -34t174.5 -11q56 0 102 4t80 11.5t52.5 19t18.5 25.5q0 11 -8.5 19t-28 16t-53.5 16.5t-84.5 19.5t-120.5 26q-131 26 -205 54t-103.5 64.5t-29.5 85.5q0 54 47.5 89.5t134 53
t204.5 17.5q68 0 134.5 -9t124.5 -26t101 -43l-67 -96l-6 -8l-6 4q-1 8 -7.5 11.5t-21.5 10.5q-53 21 -123.5 28.5t-150.5 7.5q-49 0 -88 -2.5t-66.5 -8.5t-41.5 -15.5t-14 -23.5q0 -8 8 -16t28 -16t55 -17.5t88 -21t129 -26.5q93 -19 155.5 -40.5t99.5 -45t53 -50.5t16 -58
q0 -50 -45.5 -91t-140 -65t-240.5 -24v0zM826 816l46 -81l-326 -90h-74l-304 91l46 81l296 -64zM520 815q-36 0 -61.5 25.5t-25.5 61.5q0 37 25 62.5t62 25.5q35 0 61.5 -26.5t26.5 -61.5q0 -36 -26.5 -61.5t-61.5 -25.5z" />
    <glyph glyph-name="uni1E67" unicode="&#x1e67;" 
d="M524 -10q-82 0 -154 7.5t-133.5 24t-114.5 42.5l88 97l7 8l5 -5q1 -8 7.5 -10.5t22.5 -8.5q50 -17 122.5 -27t153.5 -10q68 0 116.5 3.5t74.5 11t26 17.5q0 7 -7 12t-29 9t-67 8.5t-122 10.5q-132 10 -212.5 25t-117 44.5t-36.5 81.5q0 46 42.5 80t123 52.5t192.5 18.5
q55 0 105 -3.5t95 -12.5t86 -23t78 -35l-73 -86l-7 -8l-5 5q-1 8 -7.5 10.5t-22.5 8.5q-46 14 -109.5 20t-135.5 6q-94 0 -152 -6.5t-58 -20.5q0 -8 24 -13.5t83 -11t163 -14.5q115 -9 185 -28t102.5 -51t32.5 -82q0 -47 -42.5 -80t-125.5 -50t-204 -17v0zM278 688l232 -74
l232 74l70 -84l-268 -90h-68l-268 90zM511 664q-36 0 -61.5 25.5t-25.5 61.5q0 37 25 62.5t62 25.5q35 0 61.5 -26.5t26.5 -61.5q0 -36 -26.5 -61.5t-61.5 -25.5z" />
    <glyph glyph-name="uni1E68" unicode="&#x1e68;" 
d="M494 -10q-121 0 -223.5 20t-176.5 59l78 106l6 8l6 -4q2 -8 7.5 -12t20.5 -12q52 -23 127.5 -34t174.5 -11q56 0 102 4t80 11.5t52.5 19t18.5 25.5q0 11 -8.5 19t-28 16t-53.5 16.5t-84.5 19.5t-120.5 26q-131 26 -205 54t-103.5 64.5t-29.5 85.5q0 54 47.5 89.5t134 53
t204.5 17.5q68 0 134.5 -9t124.5 -26t101 -43l-67 -96l-6 -8l-6 4q-1 8 -7.5 11.5t-21.5 10.5q-53 21 -123.5 28.5t-150.5 7.5q-49 0 -88 -2.5t-66.5 -8.5t-41.5 -15.5t-14 -23.5q0 -8 8 -16t28 -16t55 -17.5t88 -21t129 -26.5q93 -19 155.5 -40.5t99.5 -45t53 -50.5t16 -58
q0 -50 -45.5 -91t-140 -65t-240.5 -24v0zM494 -193q-36 0 -61.5 25.5t-25.5 61.5q0 37 25 62.5t62 25.5q35 0 61.5 -26.5t26.5 -61.5q0 -36 -26.5 -61.5t-61.5 -25.5zM520 667q-36 0 -61.5 25.5t-25.5 61.5q0 37 25 62.5t62 25.5q35 0 61.5 -26.5t26.5 -61.5
q0 -36 -26.5 -61.5t-61.5 -25.5z" />
    <glyph glyph-name="uni1E69" unicode="&#x1e69;" 
d="M524 -10q-82 0 -154 7.5t-133.5 24t-114.5 42.5l88 97l7 8l5 -5q1 -8 7.5 -10.5t22.5 -8.5q50 -17 122.5 -27t153.5 -10q68 0 116.5 3.5t74.5 11t26 17.5q0 7 -7 12t-29 9t-67 8.5t-122 10.5q-132 10 -212.5 25t-117 44.5t-36.5 81.5q0 46 42.5 80t123 52.5t192.5 18.5
q55 0 105 -3.5t95 -12.5t86 -23t78 -35l-73 -86l-7 -8l-5 5q-1 8 -7.5 10.5t-22.5 8.5q-46 14 -109.5 20t-135.5 6q-94 0 -152 -6.5t-58 -20.5q0 -8 24 -13.5t83 -11t163 -14.5q115 -9 185 -28t102.5 -51t32.5 -82q0 -47 -42.5 -80t-125.5 -50t-204 -17v0zM478 -193
q-36 0 -61.5 25.5t-25.5 61.5q0 37 25 62.5t62 25.5q35 0 61.5 -26.5t26.5 -61.5q0 -36 -26.5 -61.5t-61.5 -25.5zM504 517q-36 0 -61.5 25.5t-25.5 61.5q0 37 25 62.5t62 25.5q35 0 61.5 -26.5t26.5 -61.5q0 -36 -26.5 -61.5t-61.5 -25.5z" />
    <glyph glyph-name="uni1E6C" unicode="&#x1e6c;" 
d="M410 0v504h-364v120h896v-120h-379v-504h-153zM500 -193q-36 0 -61.5 25.5t-25.5 61.5q0 37 25 62.5t62 25.5q35 0 61.5 -26.5t26.5 -61.5q0 -36 -26.5 -61.5t-61.5 -25.5z" />
    <glyph glyph-name="uni1E6D" unicode="&#x1e6d;" 
d="M580 -12q-88 0 -146 16t-89.5 48t-42.5 81t-6 115l24 326l161 9h10v-6q-5 -7 -9.5 -14t-6.5 -23l-17 -100l4 -32l-14 -165q-4 -50 8.5 -82t47 -47.5t95.5 -15.5q66 0 124.5 14t113.5 36l33 -106q-69 -25 -140.5 -39.5t-149.5 -14.5v0zM132 471h638v-110h-638v110z
M531 -193q-36 0 -61.5 25.5t-25.5 61.5q0 37 25 62.5t62 25.5q35 0 61.5 -26.5t26.5 -61.5q0 -36 -26.5 -61.5t-61.5 -25.5z" />
    <glyph glyph-name="uni1E6E" unicode="&#x1e6e;" 
d="M410 0v504h-364v120h896v-120h-379v-504h-153zM200 -163v99h594v-99h-594z" />
    <glyph glyph-name="uni1E6F" unicode="&#x1e6f;" 
d="M580 -12q-88 0 -146 16t-89.5 48t-42.5 81t-6 115l24 326l161 9h10v-6q-5 -7 -9.5 -14t-6.5 -23l-17 -100l4 -32l-14 -165q-4 -50 8.5 -82t47 -47.5t95.5 -15.5q66 0 124.5 14t113.5 36l33 -106q-69 -25 -140.5 -39.5t-149.5 -14.5v0zM132 471h638v-110h-638v110z
M231 -163v99h594v-99h-594z" />
    <glyph glyph-name="uni1E78" unicode="&#x1e78;" 
d="M502 -11q-199 0 -305.5 68t-106.5 198v368h152h10v-7q-6 -6 -7.5 -13t-1.5 -24v-325q0 -64 65.5 -104.5t195.5 -40.5q143 0 204 41t61 107v366h149v-365q0 -94 -52.5 -153.5t-146.5 -87.5t-217 -28v0zM773 806l77 -88q-35 -37 -80.5 -58.5t-105.5 -21.5q-45 0 -79.5 8
t-64 19t-58 19t-62.5 8t-69 -15t-58 -37l-77 87q29 31 75.5 55.5t124.5 24.5q44 0 77 -8t61 -19t57 -19t65 -8q32 0 62.5 15.5t54.5 37.5zM352 771l-33 105l321 86l43 -133z" />
    <glyph glyph-name="uni1E79" unicode="&#x1e79;" 
d="M439 -11q-87 0 -147.5 16t-99.5 42.5t-60.5 58t-30 63t-8.5 57.5l2 245h154v-232q0 -24 11.5 -46.5t37 -40.5t69.5 -28.5t108 -10.5q60 0 108.5 6.5t83 20.5t53.5 36.5t19 55.5v239h154v-400q0 -18 2.5 -35.5t17.5 -35.5h-142q-8 8 -12.5 16.5t-6 19t-1.5 24.5
q-22 -19 -56 -32.5t-76.5 -22t-88.5 -12.5t-91 -4zM765 712l77 -88q-35 -37 -80.5 -58.5t-105.5 -21.5q-45 0 -79.5 8t-64 19t-58 19t-62.5 8t-69 -15t-58 -37l-77 87q29 31 75.5 55.5t124.5 24.5q44 0 77 -8t61 -19t57 -19t65 -8q32 0 62.5 15.5t54.5 37.5zM442 656
l-136 69l238 136l160 -88z" />
    <glyph glyph-name="uni1E7A" unicode="&#x1e7a;" 
d="M502 -11q-199 0 -305.5 68t-106.5 198v368h152h10v-7q-6 -6 -7.5 -13t-1.5 -24v-325q0 -64 65.5 -104.5t195.5 -40.5q143 0 204 41t61 107v366h149v-365q0 -94 -52.5 -153.5t-146.5 -87.5t-217 -28v0zM196 723v99h594v-99h-594zM309 831q-31 0 -54 23t-23 55q0 31 22 54
t55 23q32 0 55 -23t23 -55q0 -31 -23 -54t-55 -23zM687 831q-31 0 -54 23t-23 54q0 32 22 55t55 23q32 0 55 -23t23 -55q0 -31 -23 -54t-55 -23z" />
    <glyph glyph-name="uni1E7B" unicode="&#x1e7b;" 
d="M439 -11q-87 0 -147.5 16t-99.5 42.5t-60.5 58t-30 63t-8.5 57.5l2 245h154v-232q0 -24 11.5 -46.5t37 -40.5t69.5 -28.5t108 -10.5q60 0 108.5 6.5t83 20.5t53.5 36.5t19 55.5v239h154v-400q0 -18 2.5 -35.5t17.5 -35.5h-142q-8 8 -12.5 16.5t-6 19t-1.5 24.5
q-22 -19 -56 -32.5t-76.5 -22t-88.5 -12.5t-91 -4zM196 557v99h594v-99h-594zM309 688q-31 0 -54 23t-23 55q0 31 22 54t55 23q32 0 55 -23t23 -55q0 -31 -23 -54t-55 -23zM687 688q-31 0 -54 23t-23 54q0 32 22 55t55 23q32 0 55 -23t23 -55q0 -31 -23 -54t-55 -23z" />
    <glyph glyph-name="Wgrave" unicode="&#x1e80;" 
d="M234 0l-210 623h156l120 -409l182 363h76l163 -363l119 409h146l-208 -623h-84l-177 383l-195 -383h-88zM664 636l-331 58l43 133l321 -86z" />
    <glyph glyph-name="wgrave" unicode="&#x1e81;" 
d="M236 -1l-211 472h152l143 -335l129 292h124l149 -317q26 77 44.5 130t30.5 89.5t19.5 63t10.5 51.5l3 26h145q-23 -77 -52.5 -157t-63.5 -159.5t-69 -155.5h-146l-138 279l-124 -279h-146zM537 491l-262 117l160 88l238 -136z" />
    <glyph glyph-name="Wacute" unicode="&#x1e82;" 
d="M234 0l-210 623h156l120 -409l182 363h76l163 -363l119 409h146l-208 -623h-84l-177 383l-195 -383h-88zM372 636l-33 105l321 86l43 -133z" />
    <glyph glyph-name="wacute" unicode="&#x1e83;" 
d="M236 -1l-211 472h152l143 -335l129 292h124l149 -317q26 77 44.5 130t30.5 89.5t19.5 63t10.5 51.5l3 26h145q-23 -77 -52.5 -157t-63.5 -159.5t-69 -155.5h-146l-138 279l-124 -279h-146zM445 491l-136 69l238 136l160 -88z" />
    <glyph glyph-name="Wdieresis" unicode="&#x1e84;" 
d="M234 0l-210 623h156l120 -409l182 363h76l163 -363l119 409h146l-208 -623h-84l-177 383l-195 -383h-88zM329 677q-31 0 -54 23t-23 55q0 31 22 54t55 23q32 0 55 -23t23 -55q0 -31 -23 -54t-55 -23zM707 677q-31 0 -54 23t-23 54q0 32 22 55t55 23q32 0 55 -23t23 -55
q0 -31 -23 -54t-55 -23z" />
    <glyph glyph-name="wdieresis" unicode="&#x1e85;" 
d="M236 -1l-211 472h152l143 -335l129 292h124l149 -317q26 77 44.5 130t30.5 89.5t19.5 63t10.5 51.5l3 26h145q-23 -77 -52.5 -157t-63.5 -159.5t-69 -155.5h-146l-138 279l-124 -279h-146zM312 548q-31 0 -54 23t-23 55q0 31 22 54t55 23q32 0 55 -23t23 -55
q0 -31 -23 -54t-55 -23zM690 548q-31 0 -54 23t-23 54q0 32 22 55t55 23q32 0 55 -23t23 -55q0 -31 -23 -54t-55 -23z" />
    <glyph glyph-name="uni1E8E" unicode="&#x1e8e;" 
d="M440 0v226l-404 397h186l301 -275l265 275h178l-373 -397v-226h-153zM498 667q-36 0 -61.5 25.5t-25.5 61.5q0 37 25 62.5t62 25.5q35 0 61.5 -26.5t26.5 -61.5q0 -36 -26.5 -61.5t-61.5 -25.5z" />
    <glyph glyph-name="uni1E8F" unicode="&#x1e8f;" 
d="M299 -174q-72 0 -131 14.5t-100 42.5l68 113l6 9l6 -4q2 -8 7.5 -13.5t19.5 -13.5q27 -13 61 -18.5t76 -5.5q49 0 82 9.5t57 29t44 48.5l164 238q31 45 58.5 97.5t37.5 98.5h164q-13 -46 -44 -100t-64 -101l-228 -322q-48 -67 -117 -94.5t-167 -27.5v0zM85 471h206
l299 -381l-85 -125zM518 531q-36 0 -61.5 25.5t-25.5 61.5q0 37 25 62.5t62 25.5q35 0 61.5 -26.5t26.5 -61.5q0 -36 -26.5 -61.5t-61.5 -25.5z" />
    <glyph glyph-name="uni1E92" unicode="&#x1e92;" 
d="M90 89l578 414h-554v120h790v-89l-582 -415h570q17 0 24 2t13 8h7v-10v-119h-846v89zM540 -193q-36 0 -61.5 25.5t-25.5 61.5q0 37 25 62.5t62 25.5q35 0 61.5 -26.5t26.5 -61.5q0 -36 -26.5 -61.5t-61.5 -25.5z" />
    <glyph glyph-name="uni1E93" unicode="&#x1e93;" 
d="M90 97l491 250h-469v124h775v-97l-481 -250h460q17 0 24 2t13 8h7v-10v-124h-820v97zM500 -193q-36 0 -61.5 25.5t-25.5 61.5q0 37 25 62.5t62 25.5q35 0 61.5 -26.5t26.5 -61.5q0 -36 -26.5 -61.5t-61.5 -25.5z" />
    <glyph glyph-name="uni1E97" unicode="&#x1e97;" 
d="M580 -12q-88 0 -146 16t-89.5 48t-42.5 81t-6 115l24 326l161 9h10v-6q-5 -7 -9.5 -14t-6.5 -23l-17 -100l4 -32l-14 -165q-4 -50 8.5 -82t47 -47.5t95.5 -15.5q66 0 124.5 14t113.5 36l33 -106q-69 -25 -140.5 -39.5t-149.5 -14.5v0zM132 471h638v-110h-638v110z
M257 660q-31 0 -54 23t-23 55q0 31 22 54t55 23q32 0 55 -23t23 -55q0 -31 -23 -54t-55 -23zM635 660q-31 0 -54 23t-23 54q0 32 22 55t55 23q32 0 55 -23t23 -55q0 -31 -23 -54t-55 -23z" />
    <glyph glyph-name="uni1E9E" unicode="&#x1e9e;" 
d="M566 -10q-61 0 -116.5 7.5t-105.5 23.5l60 125q27 -12 54 -19t52 -10t42 -3q50 0 91 5.5t71 16.5t46.5 26.5t16.5 36.5q0 31 -32.5 51.5t-97 31t-159.5 10.5h-60v119l250 94q-4 13 -25.5 21.5t-61 13.5t-97.5 5q-52 0 -96 -7t-76.5 -21t-50 -36t-17.5 -51v-430h-154v432
q0 63 34.5 107.5t91.5 73.5t126.5 42.5t139.5 13.5q118 0 199 -25.5t123 -70.5t42 -104l-319 -150l-57 92q153 0 254.5 -28.5t152.5 -78t51 -113.5q0 -53 -28 -91t-78 -62.5t-118 -36t-148 -11.5z" />
    <glyph glyph-name="uni1EA0" unicode="&#x1ea0;" 
d="M762 153h-532l60 112h428zM498 424l-298 -424h-178l450 634h56l450 -634h-184zM500 -193q-36 0 -61.5 25.5t-25.5 61.5q0 37 25 62.5t62 25.5q35 0 61.5 -26.5t26.5 -61.5q0 -36 -26.5 -61.5t-61.5 -25.5z" />
    <glyph glyph-name="uni1EA1" unicode="&#x1ea1;" 
d="M425 -11q-166 0 -253 33t-87 106q0 39 26.5 70.5t83 53.5t147 33.5t219.5 11.5q33 0 73 -2.5t82.5 -6.5t84.5 -7l-3 -101q-36 3 -75.5 4t-78 1h-71.5q-97 0 -163 -4t-106 -11t-57.5 -15.5t-17.5 -18.5q0 -8 10.5 -14.5t35 -11t64.5 -7t99 -2.5q78 0 137.5 5.5t100.5 19.5
t61.5 40t20.5 66q0 58 -28 87.5t-82.5 40t-135.5 10.5q-103 0 -172.5 -14t-122.5 -38l-82 85q65 32 154 55.5t223 23.5q87 0 159 -9.5t124 -35t80.5 -72.5t28.5 -122v-243h-152v50q-31 -15 -70.5 -26.5t-84 -19t-88.5 -11.5t-84 -4zM466 -193q-36 0 -61.5 25.5t-25.5 61.5
q0 37 25 62.5t62 25.5q35 0 61.5 -26.5t26.5 -61.5q0 -36 -26.5 -61.5t-61.5 -25.5z" />
    <glyph glyph-name="uni1EA2" unicode="&#x1ea2;" 
d="M762 153h-532l60 112h428zM498 424l-298 -424h-178l450 634h56l450 -634h-184zM688 797q0 -23 -18 -37t-42 -23.5t-42 -18t-18 -22.5v-7h-122v20q0 16 17 28t40 21t40 16.5t17 14.5q0 8 -16.5 13t-44.5 5q-30 0 -61 -12t-51 -32l-59 69q36 23 79 38t101 15q47 0 88 -11.5
t66.5 -31.5t25.5 -45z" />
    <glyph glyph-name="uni1EA3" unicode="&#x1ea3;" 
d="M425 -11q-166 0 -253 33t-87 106q0 39 26.5 70.5t83 53.5t147 33.5t219.5 11.5q33 0 73 -2.5t82.5 -6.5t84.5 -7l-3 -101q-36 3 -75.5 4t-78 1h-71.5q-97 0 -163 -4t-106 -11t-57.5 -15.5t-17.5 -18.5q0 -8 10.5 -14.5t35 -11t64.5 -7t99 -2.5q78 0 137.5 5.5t100.5 19.5
t61.5 40t20.5 66q0 58 -28 87.5t-82.5 40t-135.5 10.5q-103 0 -172.5 -14t-122.5 -38l-82 85q65 32 154 55.5t223 23.5q87 0 159 -9.5t124 -35t80.5 -72.5t28.5 -122v-243h-152v50q-31 -15 -70.5 -26.5t-84 -19t-88.5 -11.5t-84 -4zM700 645q0 -23 -18 -37t-42 -23.5
t-42 -18t-18 -22.5v-7h-122v20q0 16 17 28t40 21t40 16.5t17 14.5q0 8 -16.5 13t-44.5 5q-30 0 -61 -12t-51 -32l-59 69q36 23 79 38t101 15q47 0 88 -11.5t66.5 -31.5t25.5 -45z" />
    <glyph glyph-name="uni1EA4" unicode="&#x1ea4;" 
d="M762 153h-532l60 112h428zM498 424l-298 -424h-178l450 634h56l450 -634h-184zM192 635l-46 81l326 90h74l304 -91l-46 -81l-296 64zM736 742l-33 105l321 86l43 -133z" />
    <glyph glyph-name="uni1EA5" unicode="&#x1ea5;" 
d="M425 -11q-166 0 -253 33t-87 106q0 39 26.5 70.5t83 53.5t147 33.5t219.5 11.5q33 0 73 -2.5t82.5 -6.5t84.5 -7l-3 -101q-36 3 -75.5 4t-78 1h-71.5q-97 0 -163 -4t-106 -11t-57.5 -15.5t-17.5 -18.5q0 -8 10.5 -14.5t35 -11t64.5 -7t99 -2.5q78 0 137.5 5.5t100.5 19.5
t61.5 40t20.5 66q0 58 -28 87.5t-82.5 40t-135.5 10.5q-103 0 -172.5 -14t-122.5 -38l-82 85q65 32 154 55.5t223 23.5q87 0 159 -9.5t124 -35t80.5 -72.5t28.5 -122v-243h-152v50q-31 -15 -70.5 -26.5t-84 -19t-88.5 -11.5t-84 -4zM280 525l-70 84l268 90h68l268 -90
l-70 -84l-232 74zM727 615l-136 69l238 136l160 -88z" />
    <glyph glyph-name="uni1EA6" unicode="&#x1ea6;" 
d="M762 153h-532l60 112h428zM498 424l-298 -424h-178l450 634h56l450 -634h-184zM194 635l-46 81l326 90h74l304 -91l-46 -81l-296 64zM672 774l-331 58l43 133l321 -86z" />
    <glyph glyph-name="uni1EA7" unicode="&#x1ea7;" 
d="M425 -11q-166 0 -253 33t-87 106q0 39 26.5 70.5t83 53.5t147 33.5t219.5 11.5q33 0 73 -2.5t82.5 -6.5t84.5 -7l-3 -101q-36 3 -75.5 4t-78 1h-71.5q-97 0 -163 -4t-106 -11t-57.5 -15.5t-17.5 -18.5q0 -8 10.5 -14.5t35 -11t64.5 -7t99 -2.5q78 0 137.5 5.5t100.5 19.5
t61.5 40t20.5 66q0 58 -28 87.5t-82.5 40t-135.5 10.5q-103 0 -172.5 -14t-122.5 -38l-82 85q65 32 154 55.5t223 23.5q87 0 159 -9.5t124 -35t80.5 -72.5t28.5 -122v-243h-152v50q-31 -15 -70.5 -26.5t-84 -19t-88.5 -11.5t-84 -4zM284 525l-70 84l268 90h68l268 -90
l-70 -84l-232 74zM816 636l-262 117l160 88l238 -136z" />
    <glyph glyph-name="uni1EA8" unicode="&#x1ea8;" 
d="M762 153h-532l60 112h428zM498 424l-298 -424h-178l450 634h56l450 -634h-184zM186 635l-46 81l326 90h74l304 -91l-46 -81l-296 64zM918 857q0 -23 -18 -37t-42 -23.5t-42 -18t-18 -22.5v-7h-122v20q0 16 17 28t40 21t40 16.5t17 14.5q0 8 -16.5 13t-44.5 5
q-30 0 -61 -12t-51 -32l-59 69q36 23 79 38t101 15q47 0 88 -11.5t66.5 -31.5t25.5 -45z" />
    <glyph glyph-name="uni1EA9" unicode="&#x1ea9;" 
d="M425 -11q-166 0 -253 33t-87 106q0 39 26.5 70.5t83 53.5t147 33.5t219.5 11.5q33 0 73 -2.5t82.5 -6.5t84.5 -7l-3 -101q-36 3 -75.5 4t-78 1h-71.5q-97 0 -163 -4t-106 -11t-57.5 -15.5t-17.5 -18.5q0 -8 10.5 -14.5t35 -11t64.5 -7t99 -2.5q78 0 137.5 5.5t100.5 19.5
t61.5 40t20.5 66q0 58 -28 87.5t-82.5 40t-135.5 10.5q-103 0 -172.5 -14t-122.5 -38l-82 85q65 32 154 55.5t223 23.5q87 0 159 -9.5t124 -35t80.5 -72.5t28.5 -122v-243h-152v50q-31 -15 -70.5 -26.5t-84 -19t-88.5 -11.5t-84 -4zM282 525l-70 84l268 90h68l268 -90
l-70 -84l-232 74zM942 745q0 -23 -18 -37t-42 -23.5t-42 -18t-18 -22.5v-7h-122v20q0 16 17 28t40 21t40 16.5t17 14.5q0 8 -16.5 13t-44.5 5q-30 0 -61 -12t-51 -32l-59 69q36 23 79 38t101 15q47 0 88 -11.5t66.5 -31.5t25.5 -45z" />
    <glyph glyph-name="uni1EAA" unicode="&#x1eaa;" 
d="M762 153h-532l60 112h428zM498 424l-298 -424h-178l450 634h56l450 -634h-184zM194 635l-46 81l326 90h74l304 -91l-46 -81l-296 64zM708 958l65 -72q-30 -37 -69.5 -56t-85.5 -19q-37 0 -66 9t-53.5 20t-48.5 20t-52 9q-29 0 -58 -14.5t-48 -36.5l-65 71q24 31 65 53
t102 22q37 0 64.5 -9t51 -20t47.5 -20t54 -9q26 0 52 15t45 37z" />
    <glyph glyph-name="uni1EAB" unicode="&#x1eab;" 
d="M425 -11q-166 0 -253 33t-87 106q0 39 26.5 70.5t83 53.5t147 33.5t219.5 11.5q33 0 73 -2.5t82.5 -6.5t84.5 -7l-3 -101q-36 3 -75.5 4t-78 1h-71.5q-97 0 -163 -4t-106 -11t-57.5 -15.5t-17.5 -18.5q0 -8 10.5 -14.5t35 -11t64.5 -7t99 -2.5q78 0 137.5 5.5t100.5 19.5
t61.5 40t20.5 66q0 58 -28 87.5t-82.5 40t-135.5 10.5q-103 0 -172.5 -14t-122.5 -38l-82 85q65 32 154 55.5t223 23.5q87 0 159 -9.5t124 -35t80.5 -72.5t28.5 -122v-243h-152v50q-31 -15 -70.5 -26.5t-84 -19t-88.5 -11.5t-84 -4zM282 525l-70 84l268 90h68l268 -90
l-70 -84l-232 74zM724 863l65 -72q-30 -37 -69.5 -56t-85.5 -19q-37 0 -66 9t-53.5 20t-48.5 20t-52 9q-29 0 -58 -14.5t-48 -36.5l-65 71q24 31 65 53t102 22q37 0 64.5 -9t51 -20t47.5 -20t54 -9q26 0 52 15t45 37z" />
    <glyph glyph-name="uni1EAC" unicode="&#x1eac;" 
d="M762 153h-532l60 112h428zM498 424l-298 -424h-178l450 634h56l450 -634h-184zM500 -193q-36 0 -61.5 25.5t-25.5 61.5q0 37 25 62.5t62 25.5q35 0 61.5 -26.5t26.5 -61.5q0 -36 -26.5 -61.5t-61.5 -25.5zM184 635l-46 81l326 90h74l304 -91l-46 -81l-296 64z" />
    <glyph glyph-name="uni1EAD" unicode="&#x1ead;" 
d="M425 -11q-166 0 -253 33t-87 106q0 39 26.5 70.5t83 53.5t147 33.5t219.5 11.5q33 0 73 -2.5t82.5 -6.5t84.5 -7l-3 -101q-36 3 -75.5 4t-78 1h-71.5q-97 0 -163 -4t-106 -11t-57.5 -15.5t-17.5 -18.5q0 -8 10.5 -14.5t35 -11t64.5 -7t99 -2.5q78 0 137.5 5.5t100.5 19.5
t61.5 40t20.5 66q0 58 -28 87.5t-82.5 40t-135.5 10.5q-103 0 -172.5 -14t-122.5 -38l-82 85q65 32 154 55.5t223 23.5q87 0 159 -9.5t124 -35t80.5 -72.5t28.5 -122v-243h-152v50q-31 -15 -70.5 -26.5t-84 -19t-88.5 -11.5t-84 -4zM466 -193q-36 0 -61.5 25.5t-25.5 61.5
q0 37 25 62.5t62 25.5q35 0 61.5 -26.5t26.5 -61.5q0 -36 -26.5 -61.5t-61.5 -25.5zM280 511l-70 84l268 90h68l268 -90l-70 -84l-232 74z" />
    <glyph glyph-name="uni1EAE" unicode="&#x1eae;" 
d="M762 153h-532l60 112h428zM498 424l-298 -424h-178l450 634h56l450 -634h-184zM712 797l66 -68q-51 -39 -125.5 -64.5t-152.5 -25.5t-152.5 27t-125.5 74l66 68q44 -40 98 -61.5t114 -21.5q40 0 77.5 7t71.5 23t63 42zM401 747l-33 105l321 86l43 -133z" />
    <glyph glyph-name="uni1EAF" unicode="&#x1eaf;" 
d="M425 -11q-166 0 -253 33t-87 106q0 39 26.5 70.5t83 53.5t147 33.5t219.5 11.5q33 0 73 -2.5t82.5 -6.5t84.5 -7l-3 -101q-36 3 -75.5 4t-78 1h-71.5q-97 0 -163 -4t-106 -11t-57.5 -15.5t-17.5 -18.5q0 -8 10.5 -14.5t35 -11t64.5 -7t99 -2.5q78 0 137.5 5.5t100.5 19.5
t61.5 40t20.5 66q0 58 -28 87.5t-82.5 40t-135.5 10.5q-103 0 -172.5 -14t-122.5 -38l-82 85q65 32 154 55.5t223 23.5q87 0 159 -9.5t124 -35t80.5 -72.5t28.5 -122v-243h-152v50q-31 -15 -70.5 -26.5t-84 -19t-88.5 -11.5t-84 -4zM724 678l66 -68q-51 -39 -125.5 -64.5
t-152.5 -25.5t-152.5 27t-125.5 74l66 68q44 -40 98 -61.5t114 -21.5q40 0 77.5 7t71.5 23t63 42zM465 622l-136 69l238 136l160 -88z" />
    <glyph glyph-name="uni1EB0" unicode="&#x1eb0;" 
d="M762 153h-532l60 112h428zM498 424l-298 -424h-178l450 634h56l450 -634h-184zM712 797l66 -68q-51 -39 -125.5 -64.5t-152.5 -25.5t-152.5 27t-125.5 74l66 68q44 -40 98 -61.5t114 -21.5q40 0 77.5 7t71.5 23t63 42zM644 800l-331 58l43 133l321 -86z" />
    <glyph glyph-name="uni1EB1" unicode="&#x1eb1;" 
d="M425 -11q-166 0 -253 33t-87 106q0 39 26.5 70.5t83 53.5t147 33.5t219.5 11.5q33 0 73 -2.5t82.5 -6.5t84.5 -7l-3 -101q-36 3 -75.5 4t-78 1h-71.5q-97 0 -163 -4t-106 -11t-57.5 -15.5t-17.5 -18.5q0 -8 10.5 -14.5t35 -11t64.5 -7t99 -2.5q78 0 137.5 5.5t100.5 19.5
t61.5 40t20.5 66q0 58 -28 87.5t-82.5 40t-135.5 10.5q-103 0 -172.5 -14t-122.5 -38l-82 85q65 32 154 55.5t223 23.5q87 0 159 -9.5t124 -35t80.5 -72.5t28.5 -122v-243h-152v50q-31 -15 -70.5 -26.5t-84 -19t-88.5 -11.5t-84 -4zM724 678l66 -68q-51 -39 -125.5 -64.5
t-152.5 -25.5t-152.5 27t-125.5 74l66 68q44 -40 98 -61.5t114 -21.5q40 0 77.5 7t71.5 23t63 42zM568 622l-262 117l160 88l238 -136z" />
    <glyph glyph-name="uni1EB2" unicode="&#x1eb2;" 
d="M762 153h-532l60 112h428zM498 424l-298 -424h-178l450 634h56l450 -634h-184zM712 797l66 -68q-51 -39 -125.5 -64.5t-152.5 -25.5t-152.5 27t-125.5 74l66 68q44 -40 98 -61.5t114 -21.5q40 0 77.5 7t71.5 23t63 42zM663 863q0 -23 -18 -37t-42 -23.5t-42 -18
t-18 -22.5v-7h-122v20q0 16 17 28t40 21t40 16.5t17 14.5q0 8 -16.5 13t-44.5 5q-30 0 -61 -12t-51 -32l-59 69q36 23 79 38t101 15q47 0 88 -11.5t66.5 -31.5t25.5 -45z" />
    <glyph glyph-name="uni1EB3" unicode="&#x1eb3;" 
d="M425 -11q-166 0 -253 33t-87 106q0 39 26.5 70.5t83 53.5t147 33.5t219.5 11.5q33 0 73 -2.5t82.5 -6.5t84.5 -7l-3 -101q-36 3 -75.5 4t-78 1h-71.5q-97 0 -163 -4t-106 -11t-57.5 -15.5t-17.5 -18.5q0 -8 10.5 -14.5t35 -11t64.5 -7t99 -2.5q78 0 137.5 5.5t100.5 19.5
t61.5 40t20.5 66q0 58 -28 87.5t-82.5 40t-135.5 10.5q-103 0 -172.5 -14t-122.5 -38l-82 85q65 32 154 55.5t223 23.5q87 0 159 -9.5t124 -35t80.5 -72.5t28.5 -122v-243h-152v50q-31 -15 -70.5 -26.5t-84 -19t-88.5 -11.5t-84 -4zM724 678l66 -68q-51 -39 -125.5 -64.5
t-152.5 -25.5t-152.5 27t-125.5 74l66 68q44 -40 98 -61.5t114 -21.5q40 0 77.5 7t71.5 23t63 42zM688 772q0 -23 -18 -37t-42 -23.5t-42 -18t-18 -22.5v-7h-122v20q0 16 17 28t40 21t40 16.5t17 14.5q0 8 -16.5 13t-44.5 5q-30 0 -61 -12t-51 -32l-59 69q36 23 79 38
t101 15q47 0 88 -11.5t66.5 -31.5t25.5 -45z" />
    <glyph glyph-name="uni1EB4" unicode="&#x1eb4;" 
d="M762 153h-532l60 112h428zM498 424l-298 -424h-178l450 634h56l450 -634h-184zM712 797l66 -68q-51 -39 -125.5 -64.5t-152.5 -25.5t-152.5 27t-125.5 74l66 68q44 -40 98 -61.5t114 -21.5q40 0 77.5 7t71.5 23t63 42zM713 955l65 -72q-30 -37 -69.5 -56t-85.5 -19
q-37 0 -66 9t-53.5 20t-48.5 20t-52 9q-29 0 -58 -14.5t-48 -36.5l-65 71q24 31 65 53t102 22q37 0 64.5 -9t51 -20t47.5 -20t54 -9q26 0 52 15t45 37z" />
    <glyph glyph-name="uni1EB5" unicode="&#x1eb5;" 
d="M425 -11q-166 0 -253 33t-87 106q0 39 26.5 70.5t83 53.5t147 33.5t219.5 11.5q33 0 73 -2.5t82.5 -6.5t84.5 -7l-3 -101q-36 3 -75.5 4t-78 1h-71.5q-97 0 -163 -4t-106 -11t-57.5 -15.5t-17.5 -18.5q0 -8 10.5 -14.5t35 -11t64.5 -7t99 -2.5q78 0 137.5 5.5t100.5 19.5
t61.5 40t20.5 66q0 58 -28 87.5t-82.5 40t-135.5 10.5q-103 0 -172.5 -14t-122.5 -38l-82 85q65 32 154 55.5t223 23.5q87 0 159 -9.5t124 -35t80.5 -72.5t28.5 -122v-243h-152v50q-31 -15 -70.5 -26.5t-84 -19t-88.5 -11.5t-84 -4zM716 678l66 -68q-51 -39 -125.5 -64.5
t-152.5 -25.5t-152.5 27t-125.5 74l66 68q44 -40 98 -61.5t114 -21.5q40 0 77.5 7t71.5 23t63 42zM714 841l65 -72q-30 -37 -69.5 -56t-85.5 -19q-37 0 -66 9t-53.5 20t-48.5 20t-52 9q-29 0 -58 -14.5t-48 -36.5l-65 71q24 31 65 53t102 22q37 0 64.5 -9t51 -20t47.5 -20
t54 -9q26 0 52 15t45 37z" />
    <glyph glyph-name="uni1EB6" unicode="&#x1eb6;" 
d="M762 153h-532l60 112h428zM498 424l-298 -424h-178l450 634h56l450 -634h-184zM500 -193q-36 0 -61.5 25.5t-25.5 61.5q0 37 25 62.5t62 25.5q35 0 61.5 -26.5t26.5 -61.5q0 -36 -26.5 -61.5t-61.5 -25.5zM712 797l66 -68q-51 -39 -125.5 -64.5t-152.5 -25.5t-152.5 27
t-125.5 74l66 68q44 -40 98 -61.5t114 -21.5q40 0 77.5 7t71.5 23t63 42z" />
    <glyph glyph-name="uni1EB7" unicode="&#x1eb7;" 
d="M425 -11q-166 0 -253 33t-87 106q0 39 26.5 70.5t83 53.5t147 33.5t219.5 11.5q33 0 73 -2.5t82.5 -6.5t84.5 -7l-3 -101q-36 3 -75.5 4t-78 1h-71.5q-97 0 -163 -4t-106 -11t-57.5 -15.5t-17.5 -18.5q0 -8 10.5 -14.5t35 -11t64.5 -7t99 -2.5q78 0 137.5 5.5t100.5 19.5
t61.5 40t20.5 66q0 58 -28 87.5t-82.5 40t-135.5 10.5q-103 0 -172.5 -14t-122.5 -38l-82 85q65 32 154 55.5t223 23.5q87 0 159 -9.5t124 -35t80.5 -72.5t28.5 -122v-243h-152v50q-31 -15 -70.5 -26.5t-84 -19t-88.5 -11.5t-84 -4zM466 -193q-36 0 -61.5 25.5t-25.5 61.5
q0 37 25 62.5t62 25.5q35 0 61.5 -26.5t26.5 -61.5q0 -36 -26.5 -61.5t-61.5 -25.5zM724 678l66 -68q-51 -39 -125.5 -64.5t-152.5 -25.5t-152.5 27t-125.5 74l66 68q44 -40 98 -61.5t114 -21.5q40 0 77.5 7t71.5 23t63 42z" />
    <glyph glyph-name="uni1EB8" unicode="&#x1eb8;" 
d="M88 0v624h824v-120h-670v-119h560v-120h-560v-145h664v-120h-818zM500 -193q-36 0 -61.5 25.5t-25.5 61.5q0 37 25 62.5t62 25.5q35 0 61.5 -26.5t26.5 -61.5q0 -36 -26.5 -61.5t-61.5 -25.5z" />
    <glyph glyph-name="uni1EB9" unicode="&#x1eb9;" 
d="M547 -10q-100 0 -187 15.5t-152.5 45.5t-102 74.5t-36.5 101.5q0 58 32 105t91.5 80t143 51t185.5 18q98 0 173 -20t126.5 -55.5t78 -83t26.5 -103.5q0 -8 -1 -16.5t-3 -16.5h-710q9 -18 35.5 -33t69 -25.5t101.5 -16t134 -5.5q47 0 101 3t98.5 10t64.5 18l80 -77
q-34 -22 -90 -38t-123 -24t-135 -8zM211 293h574q-6 18 -29.5 32t-60.5 23.5t-84 14.5t-100 5q-67 0 -118.5 -5t-88.5 -14.5t-59.5 -23.5t-33.5 -32zM547 -193q-36 0 -61.5 25.5t-25.5 61.5q0 37 25 62.5t62 25.5q35 0 61.5 -26.5t26.5 -61.5q0 -36 -26.5 -61.5t-61.5 -25.5
z" />
    <glyph glyph-name="uni1EBA" unicode="&#x1eba;" 
d="M88 0v624h824v-120h-670v-119h560v-120h-560v-145h664v-120h-818zM728 797q0 -23 -18 -37t-42 -23.5t-42 -18t-18 -22.5v-7h-122v20q0 16 17 28t40 21t40 16.5t17 14.5q0 8 -16.5 13t-44.5 5q-30 0 -61 -12t-51 -32l-59 69q36 23 79 38t101 15q47 0 88 -11.5t66.5 -31.5
t25.5 -45z" />
    <glyph glyph-name="uni1EBB" unicode="&#x1ebb;" 
d="M547 -10q-100 0 -187 15.5t-152.5 45.5t-102 74.5t-36.5 101.5q0 58 32 105t91.5 80t143 51t185.5 18q98 0 173 -20t126.5 -55.5t78 -83t26.5 -103.5q0 -8 -1 -16.5t-3 -16.5h-710q9 -18 35.5 -33t69 -25.5t101.5 -16t134 -5.5q47 0 101 3t98.5 10t64.5 18l80 -77
q-34 -22 -90 -38t-123 -24t-135 -8zM211 293h574q-6 18 -29.5 32t-60.5 23.5t-84 14.5t-100 5q-67 0 -118.5 -5t-88.5 -14.5t-59.5 -23.5t-33.5 -32zM709 631q0 -23 -18 -37t-42 -23.5t-42 -18t-18 -22.5v-7h-122v20q0 16 17 28t40 21t40 16.5t17 14.5q0 8 -16.5 13t-44.5 5
q-30 0 -61 -12t-51 -32l-59 69q36 23 79 38t101 15q47 0 88 -11.5t66.5 -31.5t25.5 -45z" />
    <glyph glyph-name="uni1EBC" unicode="&#x1ebc;" 
d="M88 0v624h824v-120h-670v-119h560v-120h-560v-145h664v-120h-818zM813 806l77 -88q-35 -37 -80.5 -58.5t-105.5 -21.5q-45 0 -79.5 8t-64 19t-58 19t-62.5 8t-69 -15t-58 -37l-77 87q29 31 75.5 55.5t124.5 24.5q44 0 77 -8t61 -19t57 -19t65 -8q32 0 62.5 15.5
t54.5 37.5z" />
    <glyph glyph-name="uni1EBD" unicode="&#x1ebd;" 
d="M547 -10q-100 0 -187 15.5t-152.5 45.5t-102 74.5t-36.5 101.5q0 58 32 105t91.5 80t143 51t185.5 18q98 0 173 -20t126.5 -55.5t78 -83t26.5 -103.5q0 -8 -1 -16.5t-3 -16.5h-710q9 -18 35.5 -33t69 -25.5t101.5 -16t134 -5.5q47 0 101 3t98.5 10t64.5 18l80 -77
q-34 -22 -90 -38t-123 -24t-135 -8zM211 293h574q-6 18 -29.5 32t-60.5 23.5t-84 14.5t-100 5q-67 0 -118.5 -5t-88.5 -14.5t-59.5 -23.5t-33.5 -32zM786 712l77 -88q-35 -37 -80.5 -58.5t-105.5 -21.5q-45 0 -79.5 8t-64 19t-58 19t-62.5 8t-69 -15t-58 -37l-77 87
q29 31 75.5 55.5t124.5 24.5q44 0 77 -8t61 -19t57 -19t65 -8q32 0 62.5 15.5t54.5 37.5z" />
    <glyph glyph-name="uni1EBE" unicode="&#x1ebe;" 
d="M88 0v624h824v-120h-670v-119h560v-120h-560v-145h664v-120h-818zM232 635l-46 81l326 90h74l304 -91l-46 -81l-296 64zM776 742l-33 105l321 86l43 -133z" />
    <glyph glyph-name="uni1EBF" unicode="&#x1ebf;" 
d="M547 -10q-100 0 -187 15.5t-152.5 45.5t-102 74.5t-36.5 101.5q0 58 32 105t91.5 80t143 51t185.5 18q98 0 173 -20t126.5 -55.5t78 -83t26.5 -103.5q0 -8 -1 -16.5t-3 -16.5h-710q9 -18 35.5 -33t69 -25.5t101.5 -16t134 -5.5q47 0 101 3t98.5 10t64.5 18l80 -77
q-34 -22 -90 -38t-123 -24t-135 -8zM211 293h574q-6 18 -29.5 32t-60.5 23.5t-84 14.5t-100 5q-67 0 -118.5 -5t-88.5 -14.5t-59.5 -23.5t-33.5 -32zM289 511l-70 84l268 90h68l268 -90l-70 -84l-232 74zM736 601l-136 69l238 136l160 -88z" />
    <glyph glyph-name="uni1EC0" unicode="&#x1ec0;" 
d="M88 0v624h824v-120h-670v-119h560v-120h-560v-145h664v-120h-818zM234 635l-46 81l326 90h74l304 -91l-46 -81l-296 64zM712 774l-331 58l43 133l321 -86z" />
    <glyph glyph-name="uni1EC1" unicode="&#x1ec1;" 
d="M547 -10q-100 0 -187 15.5t-152.5 45.5t-102 74.5t-36.5 101.5q0 58 32 105t91.5 80t143 51t185.5 18q98 0 173 -20t126.5 -55.5t78 -83t26.5 -103.5q0 -8 -1 -16.5t-3 -16.5h-710q9 -18 35.5 -33t69 -25.5t101.5 -16t134 -5.5q47 0 101 3t98.5 10t64.5 18l80 -77
q-34 -22 -90 -38t-123 -24t-135 -8zM211 293h574q-6 18 -29.5 32t-60.5 23.5t-84 14.5t-100 5q-67 0 -118.5 -5t-88.5 -14.5t-59.5 -23.5t-33.5 -32zM293 511l-70 84l268 90h68l268 -90l-70 -84l-232 74zM825 622l-262 117l160 88l238 -136z" />
    <glyph glyph-name="uni1EC2" unicode="&#x1ec2;" 
d="M88 0v624h824v-120h-670v-119h560v-120h-560v-145h664v-120h-818zM226 635l-46 81l326 90h74l304 -91l-46 -81l-296 64zM958 857q0 -23 -18 -37t-42 -23.5t-42 -18t-18 -22.5v-7h-122v20q0 16 17 28t40 21t40 16.5t17 14.5q0 8 -16.5 13t-44.5 5q-30 0 -61 -12t-51 -32
l-59 69q36 23 79 38t101 15q47 0 88 -11.5t66.5 -31.5t25.5 -45z" />
    <glyph glyph-name="uni1EC3" unicode="&#x1ec3;" 
d="M547 -10q-100 0 -187 15.5t-152.5 45.5t-102 74.5t-36.5 101.5q0 58 32 105t91.5 80t143 51t185.5 18q98 0 173 -20t126.5 -55.5t78 -83t26.5 -103.5q0 -8 -1 -16.5t-3 -16.5h-710q9 -18 35.5 -33t69 -25.5t101.5 -16t134 -5.5q47 0 101 3t98.5 10t64.5 18l80 -77
q-34 -22 -90 -38t-123 -24t-135 -8zM211 293h574q-6 18 -29.5 32t-60.5 23.5t-84 14.5t-100 5q-67 0 -118.5 -5t-88.5 -14.5t-59.5 -23.5t-33.5 -32zM291 511l-70 84l268 90h68l268 -90l-70 -84l-232 74zM951 731q0 -23 -18 -37t-42 -23.5t-42 -18t-18 -22.5v-7h-122v20
q0 16 17 28t40 21t40 16.5t17 14.5q0 8 -16.5 13t-44.5 5q-30 0 -61 -12t-51 -32l-59 69q36 23 79 38t101 15q47 0 88 -11.5t66.5 -31.5t25.5 -45z" />
    <glyph glyph-name="uni1EC4" unicode="&#x1ec4;" 
d="M88 0v624h824v-120h-670v-119h560v-120h-560v-145h664v-120h-818zM234 635l-46 81l326 90h74l304 -91l-46 -81l-296 64zM748 958l65 -72q-30 -37 -69.5 -56t-85.5 -19q-37 0 -66 9t-53.5 20t-48.5 20t-52 9q-29 0 -58 -14.5t-48 -36.5l-65 71q24 31 65 53t102 22
q37 0 64.5 -9t51 -20t47.5 -20t54 -9q26 0 52 15t45 37z" />
    <glyph glyph-name="uni1EC5" unicode="&#x1ec5;" 
d="M547 -10q-100 0 -187 15.5t-152.5 45.5t-102 74.5t-36.5 101.5q0 58 32 105t91.5 80t143 51t185.5 18q98 0 173 -20t126.5 -55.5t78 -83t26.5 -103.5q0 -8 -1 -16.5t-3 -16.5h-710q9 -18 35.5 -33t69 -25.5t101.5 -16t134 -5.5q47 0 101 3t98.5 10t64.5 18l80 -77
q-34 -22 -90 -38t-123 -24t-135 -8zM211 293h574q-6 18 -29.5 32t-60.5 23.5t-84 14.5t-100 5q-67 0 -118.5 -5t-88.5 -14.5t-59.5 -23.5t-33.5 -32zM291 511l-70 84l268 90h68l268 -90l-70 -84l-232 74zM733 849l65 -72q-30 -37 -69.5 -56t-85.5 -19q-37 0 -66 9t-53.5 20
t-48.5 20t-52 9q-29 0 -58 -14.5t-48 -36.5l-65 71q24 31 65 53t102 22q37 0 64.5 -9t51 -20t47.5 -20t54 -9q26 0 52 15t45 37z" />
    <glyph glyph-name="uni1EC6" unicode="&#x1ec6;" 
d="M88 0v624h824v-120h-670v-119h560v-120h-560v-145h664v-120h-818zM500 -193q-36 0 -61.5 25.5t-25.5 61.5q0 37 25 62.5t62 25.5q35 0 61.5 -26.5t26.5 -61.5q0 -36 -26.5 -61.5t-61.5 -25.5zM224 635l-46 81l326 90h74l304 -91l-46 -81l-296 64z" />
    <glyph glyph-name="uni1EC7" unicode="&#x1ec7;" 
d="M547 -10q-100 0 -187 15.5t-152.5 45.5t-102 74.5t-36.5 101.5q0 58 32 105t91.5 80t143 51t185.5 18q98 0 173 -20t126.5 -55.5t78 -83t26.5 -103.5q0 -8 -1 -16.5t-3 -16.5h-710q9 -18 35.5 -33t69 -25.5t101.5 -16t134 -5.5q47 0 101 3t98.5 10t64.5 18l80 -77
q-34 -22 -90 -38t-123 -24t-135 -8zM211 293h574q-6 18 -29.5 32t-60.5 23.5t-84 14.5t-100 5q-67 0 -118.5 -5t-88.5 -14.5t-59.5 -23.5t-33.5 -32zM547 -193q-36 0 -61.5 25.5t-25.5 61.5q0 37 25 62.5t62 25.5q35 0 61.5 -26.5t26.5 -61.5q0 -36 -26.5 -61.5t-61.5 -25.5
zM289 497l-70 84l268 90h68l268 -90l-70 -84l-232 74z" />
    <glyph glyph-name="uni1EC8" unicode="&#x1ec8;" 
d="M141 0v124h260v375h-246v124h648v-124h-249v-376h261v-123h-674zM665 797q0 -23 -18 -37t-42 -23.5t-42 -18t-18 -22.5v-7h-122v20q0 16 17 28t40 21t40 16.5t17 14.5q0 8 -16.5 13t-44.5 5q-30 0 -61 -12t-51 -32l-59 69q36 23 79 38t101 15q47 0 88 -11.5t66.5 -31.5
t25.5 -45z" />
    <glyph glyph-name="uni1EC9" unicode="&#x1ec9;" 
d="M175 0v124h259v223h-247v124h401v-347h239v-124h-652zM693 645q0 -23 -18 -37t-42 -23.5t-42 -18t-18 -22.5v-7h-122v20q0 16 17 28t40 21t40 16.5t17 14.5q0 8 -16.5 13t-44.5 5q-30 0 -61 -12t-51 -32l-59 69q36 23 79 38t101 15q47 0 88 -11.5t66.5 -31.5t25.5 -45z
" />
    <glyph glyph-name="uni1ECA" unicode="&#x1eca;" 
d="M141 0v124h260v375h-246v124h648v-124h-249v-376h261v-123h-674zM499 -193q-36 0 -61.5 25.5t-25.5 61.5q0 37 25 62.5t62 25.5q35 0 61.5 -26.5t26.5 -61.5q0 -36 -26.5 -61.5t-61.5 -25.5z" />
    <glyph glyph-name="uni1ECB" unicode="&#x1ecb;" 
d="M175 0v124h259v223h-247v124h401v-347h239v-124h-652zM504 531q-36 0 -61.5 25.5t-25.5 61.5q0 37 25 62.5t62 25.5q35 0 61.5 -26.5t26.5 -61.5q0 -36 -26.5 -61.5t-61.5 -25.5zM505 -193q-36 0 -61.5 25.5t-25.5 61.5q0 37 25 62.5t62 25.5q35 0 61.5 -26.5t26.5 -61.5
q0 -36 -26.5 -61.5t-61.5 -25.5z" />
    <glyph glyph-name="uni1ECC" unicode="&#x1ecc;" 
d="M500 -11q-138 0 -240.5 39.5t-159 111t-56.5 168.5q0 94 56.5 165.5t159 112.5t240.5 41t240.5 -41t159 -112.5t56.5 -165.5q0 -97 -56.5 -168.5t-159 -111t-240.5 -39.5zM500 113q100 0 167 22.5t101 66t34 106.5q0 59 -34 102.5t-101 68t-167 24.5t-167 -24.5t-101 -68
t-34 -102.5q0 -63 34 -106.5t101 -66t167 -22.5zM500 -193q-36 0 -61.5 25.5t-25.5 61.5q0 37 25 62.5t62 25.5q35 0 61.5 -26.5t26.5 -61.5q0 -36 -26.5 -61.5t-61.5 -25.5z" />
    <glyph glyph-name="uni1ECD" unicode="&#x1ecd;" 
d="M497 -8q-135 -2 -232 29.5t-149.5 87.5t-52.5 125q0 70 52.5 126t149.5 89t232 33t230 -33t144.5 -89t49.5 -126q0 -69 -49.5 -124t-144.5 -86.5t-230 -31.5zM497 116q80 0 138 14t89 40.5t31 64.5q0 39 -31 66.5t-89 42t-138 14.5t-140.5 -14.5t-94 -42t-33.5 -66.5
q0 -38 33.5 -64.5t94 -40.5t140.5 -14zM497 -193q-36 0 -61.5 25.5t-25.5 61.5q0 37 25 62.5t62 25.5q35 0 61.5 -26.5t26.5 -61.5q0 -36 -26.5 -61.5t-61.5 -25.5z" />
    </font>
</defs>
</svg>
